SplineFontDB: 3.2
FontName: RobotoSemiMono-Medium
FullName: Roboto Semi Mono Medium
FamilyName: Roboto Semi Mono Medium
Weight: Medium
Copyright: Roboto - Copyright 2011 Google Inc. All Rights Reserved. Roboto is a trademark of Google. Roboto Mono - Copyright 2015 The Roboto Mono Project Authors (https://github.com/googlefonts/robotomono). Roboto Mono is a trademark of Google. Roboto Serif - Copyright 2020 The Roboto Serif Project Authors (https://github.com/googlefonts/RobotoSerif). Roboto Serif is a trademark of Google, Inc.
Version: 1.0.0
ItalicAngle: 0
UnderlinePosition: -200
UnderlineWidth: 100
Ascent: 1536
Descent: 512
InvalidEm: 0
sfntRevision: 0x00022312
LayerCount: 2
Layer: 0 1 "Back" 1
Layer: 1 1 "Fore" 0
XUID: [1021 788 -1684003395 11044810]
StyleMap: 0x0040
FSType: 0
OS2Version: 3
OS2_WeightWidthSlopeOnly: 0
OS2_UseTypoMetrics: 0
CreationTime: 1221222574
ModificationTime: 1704833930
PfmFamily: 17
TTFWeight: 500
TTFWidth: 5
LineGap: 0
VLineGap: 0
Panose: 2 0 0 0 0 0 0 0 0 0
OS2TypoAscent: 1536
OS2TypoAOffset: 0
OS2TypoDescent: -512
OS2TypoDOffset: 0
OS2TypoLinegap: 102
OS2WinAscent: 1946
OS2WinAOffset: 0
OS2WinDescent: 512
OS2WinDOffset: 0
HheadAscent: 1900
HheadAOffset: 0
HheadDescent: -500
HheadDOffset: 0
OS2SubXSize: 1434
OS2SubYSize: 1331
OS2SubXOff: 0
OS2SubYOff: 287
OS2SupXSize: 1434
OS2SupYSize: 1331
OS2SupXOff: 0
OS2SupYOff: 977
OS2StrikeYSize: 102
OS2StrikeYPos: 512
OS2CapHeight: 1456
OS2XHeight: 1082
OS2Vendor: 'GOOG'
OS2CodePages: 2000019f.00000000
OS2UnicodeRanges: e00002ff.5000205b.00000020.00000000
Lookup: 1 0 0 "'c2sc' Capitals to Small Capitals lookup 0" { "'c2sc' Capitals to Small Capitals lookup 0 subtable"  } ['c2sc' ('DFLT' <'dflt' > 'cyrl' <'dflt' > 'grek' <'dflt' > 'latn' <'AZE ' 'CRT ' 'FRA ' 'MOL ' 'NAV ' 'ROM ' 'TRK ' 'dflt' > ) ]

StartChar: .notdef
Encoding: 65536 -1 0
Width: 908
GlyphClass: 1
Flags: W
LayerCount: 2
Fore
SplineSet
808 0 m 1,0,-1
 100 0 l 1,1,-1
 100 1456 l 1,2,-1
 808 1456 l 1,3,-1
 808 0 l 1,0,-1
754 84 m 1,4,-1
 754 1371 l 1,5,-1
 480 728 l 1,6,-1
 754 84 l 1,4,-1
154 1359 m 1,7,-1
 154 96 l 1,8,-1
 422 728 l 1,9,-1
 154 1359 l 1,7,-1
194 54 m 1,10,-1
 709 54 l 1,11,-1
 451 660 l 1,12,-1
 194 54 l 1,10,-1
451 796 m 1,13,-1
 709 1402 l 1,14,-1
 194 1402 l 1,15,-1
 451 796 l 1,13,-1
EndSplineSet
EndChar

StartChar: exclam
Encoding: 33 33 5
Width: 1229
GlyphClass: 1
Flags: HW
LayerCount: 2
Fore
SplineSet
720 493 m 1,0,-1
 729 1456 l 1,1,-1
 485 1456 l 1,2,-1
 495 493 l 1,3,-1
 720 493 l 1,0,-1
466 120 m 0,4,5
 466 63 466 63 503 25 c 128,-1,6
 540 -13 540 -13 608 -13 c 0,7,8
 675 -13 675 -13 713 25 c 128,-1,9
 751 63 751 63 751 120 c 0,10,11
 751 178 751 178 713 217 c 128,-1,12
 675 256 675 256 608 256 c 0,13,14
 540 256 540 256 503 217 c 128,-1,15
 466 178 466 178 466 120 c 0,4,5
EndSplineSet
EndChar

StartChar: quotedbl
Encoding: 34 34 6
Width: 1229
GlyphClass: 1
Flags: HW
LayerCount: 2
Fore
SplineSet
495 1428 m 1,0,-1
 495 1536 l 1,1,-1
 312 1536 l 1,2,-1
 312 1418 l 1,3,-1
 312 1029 l 1,4,-1
 469 1029 l 1,5,-1
 495 1428 l 1,0,-1
883 1428 m 1,6,-1
 883 1536 l 1,7,-1
 701 1536 l 1,8,-1
 701 1420 l 1,9,-1
 701 1029 l 1,10,-1
 858 1029 l 1,11,-1
 883 1428 l 1,6,-1
EndSplineSet
EndChar

StartChar: numbersign
Encoding: 35 35 7
Width: 1229
GlyphClass: 1
Flags: HW
LayerCount: 2
Fore
SplineSet
673 410 m 1,0,-1
 597 0 l 1,1,-1
 761 0 l 1,2,-1
 837 410 l 1,3,-1
 1090 410 l 1,4,-1
 1090 566 l 1,5,-1
 866 566 l 1,6,-1
 925 882 l 1,7,-1
 1165 882 l 1,8,-1
 1165 1040 l 1,9,-1
 953 1040 l 1,10,-1
 1031 1456 l 1,11,-1
 867 1456 l 1,12,-1
 790 1040 l 1,13,-1
 562 1040 l 1,14,-1
 639 1456 l 1,15,-1
 476 1456 l 1,16,-1
 398 1040 l 1,17,-1
 125 1040 l 1,18,-1
 125 882 l 1,19,-1
 369 882 l 1,20,-1
 310 566 l 1,21,-1
 49 566 l 1,22,-1
 49 410 l 1,23,-1
 282 410 l 1,24,-1
 206 0 l 1,25,-1
 370 0 l 1,26,-1
 446 410 l 1,27,-1
 673 410 l 1,0,-1
474 566 m 1,28,-1
 533 882 l 1,29,-1
 760 882 l 1,30,-1
 702 566 l 1,31,-1
 474 566 l 1,28,-1
EndSplineSet
EndChar

StartChar: dollar
Encoding: 36 36 8
Width: 1229
GlyphClass: 1
Flags: HW
LayerCount: 2
Fore
SplineSet
881 379 m 0,0,1
 881 335 881 335 866 298 c 128,-1,2
 851 261 851 261 822 235 c 0,3,4
 791 207 791 207 744.5 192 c 128,-1,5
 698 177 698 177 638 177 c 0,6,7
 591 177 591 177 545 189.5 c 128,-1,8
 499 202 499 202 463 233 c 0,9,10
 427 263 427 263 404 314.5 c 128,-1,11
 381 366 381 366 381 443 c 1,12,-1
 142 443 l 1,13,14
 142 326 142 326 177 242.5 c 128,-1,15
 212 159 212 159 271 104 c 256,16,17
 330 49 330 49 406.5 20 c 128,-1,18
 483 -9 483 -9 565 -17 c 1,19,-1
 565 -211 l 1,20,-1
 720 -211 l 1,21,-1
 720 -17 l 1,22,23
 811 -8 811 -8 885 22.5 c 128,-1,24
 959 53 959 53 1011 104 c 0,25,26
 1064 154 1064 154 1092 223.5 c 128,-1,27
 1120 293 1120 293 1120 381 c 0,28,29
 1120 474 1120 474 1090.5 543 c 128,-1,30
 1061 612 1061 612 1005 665 c 0,31,32
 949 717 949 717 870 756.5 c 128,-1,33
 791 796 791 796 693 831 c 0,34,35
 622 856 622 856 573 881 c 128,-1,36
 524 906 524 906 494 935 c 0,37,38
 463 963 463 963 449.5 997 c 128,-1,39
 436 1031 436 1031 436 1075 c 256,40,41
 436 1119 436 1119 449 1155.5 c 128,-1,42
 462 1192 462 1192 487 1219 c 0,43,44
 514 1247 514 1247 555.5 1262.5 c 128,-1,45
 597 1278 597 1278 654 1278 c 0,46,47
 704 1278 704 1278 744.5 1260 c 128,-1,48
 785 1242 785 1242 813 1210 c 0,49,50
 843 1175 843 1175 859.5 1123.5 c 128,-1,51
 876 1072 876 1072 876 1006 c 1,52,-1
 1114 1006 l 1,53,54
 1114 1113 1114 1113 1085.5 1196.5 c 128,-1,55
 1057 1280 1057 1280 1004 1340 c 0,56,57
 956 1393 956 1393 889 1426.5 c 128,-1,58
 822 1460 822 1460 739 1471 c 1,59,-1
 739 1690 l 1,60,-1
 584 1690 l 1,61,-1
 584 1473 l 1,62,63
 496 1463 496 1463 424.5 1431.5 c 128,-1,64
 353 1400 353 1400 303 1349 c 0,65,66
 253 1297 253 1297 225.5 1227.5 c 128,-1,67
 198 1158 198 1158 198 1074 c 0,68,69
 198 980 198 980 228.5 910.5 c 128,-1,70
 259 841 259 841 316 789 c 0,71,72
 372 736 372 736 451.5 696.5 c 128,-1,73
 531 657 531 657 629 624 c 0,74,75
 697 601 697 601 745 576 c 128,-1,76
 793 551 793 551 824 522 c 0,77,78
 854 492 854 492 867.5 457 c 128,-1,79
 881 422 881 422 881 379 c 0,0,1
EndSplineSet
Substitution2: "'c2sc' Capitals to Small Capitals lookup 0 subtable" dollar.c2sc
Position2: "'cpsp' Capital Spacing lookup 0 subtable" dx=36 dy=0 dh=72 dv=0
EndChar

StartChar: percent
Encoding: 37 37 9
Width: 1229
GlyphClass: 1
Flags: HW
LayerCount: 2
Fore
SplineSet
39 1195 m 2,0,-1
 39 1118 l 2,1,2
 39 1061 39 1061 57 1010.5 c 128,-1,3
 75 960 75 960 109 922 c 0,4,5
 144 883 144 883 196.5 860.5 c 128,-1,6
 249 838 249 838 318 838 c 256,7,8
 387 838 387 838 438.5 860.5 c 128,-1,9
 490 883 490 883 525 922 c 0,10,11
 559 960 559 960 576.5 1010.5 c 128,-1,12
 594 1061 594 1061 594 1118 c 2,13,-1
 594 1195 l 2,14,15
 594 1253 594 1253 576.5 1304 c 128,-1,16
 559 1355 559 1355 525 1394 c 0,17,18
 490 1432 490 1432 438 1454.5 c 128,-1,19
 386 1477 386 1477 316 1477 c 0,20,21
 247 1477 247 1477 195 1454.5 c 128,-1,22
 143 1432 143 1432 109 1394 c 0,23,24
 74 1355 74 1355 56.5 1304 c 128,-1,25
 39 1253 39 1253 39 1195 c 2,0,-1
206 1118 m 2,26,-1
 206 1195 l 2,27,28
 206 1221 206 1221 212 1246 c 128,-1,29
 218 1271 218 1271 231 1291 c 0,30,31
 244 1309 244 1309 264.5 1320.5 c 128,-1,32
 285 1332 285 1332 316 1332 c 256,33,34
 347 1332 347 1332 368 1320.5 c 128,-1,35
 389 1309 389 1309 403 1291 c 0,36,37
 415 1271 415 1271 421 1246 c 128,-1,38
 427 1221 427 1221 427 1195 c 2,39,-1
 427 1118 l 2,40,41
 427 1092 427 1092 421 1067.5 c 128,-1,42
 415 1043 415 1043 403 1024 c 0,43,44
 390 1005 390 1005 369 994 c 128,-1,45
 348 983 348 983 318 983 c 0,46,47
 287 983 287 983 265.5 994 c 128,-1,48
 244 1005 244 1005 231 1024 c 0,49,50
 217 1043 217 1043 211.5 1067.5 c 128,-1,51
 206 1092 206 1092 206 1118 c 2,26,-1
632 337 m 2,52,-1
 632 259 l 2,53,54
 632 202 632 202 650 151 c 128,-1,55
 668 100 668 100 703 62 c 256,56,57
 738 24 738 24 790.5 2 c 128,-1,58
 843 -20 843 -20 912 -20 c 256,59,60
 981 -20 981 -20 1032.5 2 c 128,-1,61
 1084 24 1084 24 1119 62 c 256,62,63
 1154 100 1154 100 1171 151 c 128,-1,64
 1188 202 1188 202 1188 259 c 2,65,-1
 1188 337 l 2,66,67
 1188 394 1188 394 1170.5 445 c 128,-1,68
 1153 496 1153 496 1119 535 c 0,69,70
 1084 574 1084 574 1032 596 c 128,-1,71
 980 618 980 618 910 618 c 0,72,73
 842 618 842 618 790 596 c 128,-1,74
 738 574 738 574 703 535 c 256,75,76
 668 496 668 496 650 445 c 128,-1,77
 632 394 632 394 632 337 c 2,52,-1
799 259 m 2,78,-1
 799 337 l 2,79,80
 799 364 799 364 805 388.5 c 128,-1,81
 811 413 811 413 824 432 c 256,82,83
 837 451 837 451 858 462 c 128,-1,84
 879 473 879 473 910 473 c 0,85,86
 940 473 940 473 961.5 461.5 c 128,-1,87
 983 450 983 450 997 432 c 0,88,89
 1009 413 1009 413 1015 388.5 c 128,-1,90
 1021 364 1021 364 1021 337 c 2,91,-1
 1021 259 l 2,92,93
 1021 232 1021 232 1016.5 208 c 128,-1,94
 1012 184 1012 184 999 165 c 0,95,96
 987 146 987 146 966 134.5 c 128,-1,97
 945 123 945 123 912 123 c 0,98,99
 882 123 882 123 861 134.5 c 128,-1,100
 840 146 840 146 827 165 c 0,101,102
 813 184 813 184 806 208.5 c 128,-1,103
 799 233 799 233 799 259 c 2,78,-1
408 194 m 1,104,-1
 971 1226 l 1,105,-1
 846 1289 l 1,106,-1
 282 258 l 1,107,-1
 408 194 l 1,104,-1
EndSplineSet
EndChar

StartChar: ampersand
Encoding: 38 38 10
Width: 1229
GlyphClass: 1
Flags: HW
LayerCount: 2
Fore
SplineSet
88 372 m 0,0,1
 88 286 88 286 118.5 213.5 c 128,-1,2
 149 141 149 141 205 89 c 256,3,4
 261 37 261 37 342 8 c 128,-1,5
 423 -21 423 -21 523 -21 c 0,6,7
 585 -21 585 -21 640.5 -9.5 c 128,-1,8
 696 2 696 2 747 23 c 0,9,10
 778 37 778 37 808.5 55 c 128,-1,11
 839 73 839 73 868 94 c 1,12,-1
 941 0 l 1,13,-1
 1218 0 l 1,14,-1
 1033 239 l 1,15,16
 1108 330 1108 330 1144.5 445 c 128,-1,17
 1181 560 1181 560 1181 693 c 1,18,-1
 972 693 l 1,19,20
 972 611 972 611 953.5 539.5 c 128,-1,21
 935 468 935 468 902 408 c 1,22,-1
 629 761 l 1,23,-1
 715 832 l 2,24,25
 759 864 759 864 796.5 898.5 c 128,-1,26
 834 933 834 933 862 973 c 0,27,28
 890 1011 890 1011 905.5 1055.5 c 128,-1,29
 921 1100 921 1100 921 1152 c 0,30,31
 921 1217 921 1217 898 1276 c 128,-1,32
 875 1335 875 1335 833 1380 c 0,33,34
 790 1425 790 1425 730 1451 c 128,-1,35
 670 1477 670 1477 597 1477 c 0,36,37
 511 1477 511 1477 441.5 1452 c 128,-1,38
 372 1427 372 1427 323 1380 c 0,39,40
 273 1333 273 1333 246.5 1264.5 c 128,-1,41
 220 1196 220 1196 220 1111 c 0,42,43
 220 1064 220 1064 230.5 1019.5 c 128,-1,44
 241 975 241 975 261 931 c 0,45,46
 277 894 277 894 300.5 855 c 128,-1,47
 324 816 324 816 353 775 c 1,48,-1
 328 756 l 2,49,50
 276 719 276 719 234.5 680 c 128,-1,51
 193 641 193 641 162 599 c 0,52,53
 127 550 127 550 107.5 494 c 128,-1,54
 88 438 88 438 88 372 c 0,0,1
530 172 m 0,55,56
 482 172 482 172 444.5 188 c 128,-1,57
 407 204 407 204 381 232 c 256,58,59
 355 260 355 260 341.5 298.5 c 128,-1,60
 328 337 328 337 328 381 c 0,61,62
 328 401 328 401 332.5 426.5 c 128,-1,63
 337 452 337 452 350 482 c 256,64,65
 363 512 363 512 388 546.5 c 128,-1,66
 413 581 413 581 450 611 c 2,67,-1
 466 624 l 1,68,-1
 754 245 l 1,69,70
 733 230 733 230 711 218.5 c 128,-1,71
 689 207 689 207 666 197 c 0,72,73
 633 185 633 185 599 178.5 c 128,-1,74
 565 172 565 172 530 172 c 0,55,56
444 1112 m 0,75,76
 444 1147 444 1147 453.5 1177.5 c 128,-1,77
 463 1208 463 1208 483 1232 c 0,78,79
 501 1255 501 1255 530 1269 c 128,-1,80
 559 1283 559 1283 597 1283 c 0,81,82
 624 1283 624 1283 646 1271 c 128,-1,83
 668 1259 668 1259 683 1239 c 0,84,85
 698 1220 698 1220 706 1194.5 c 128,-1,86
 714 1169 714 1169 714 1142 c 0,87,88
 714 1128 714 1128 712 1108.5 c 128,-1,89
 710 1089 710 1089 702 1069 c 0,90,91
 694 1047 694 1047 676 1025 c 128,-1,92
 658 1003 658 1003 627 982 c 2,93,-1
 524 903 l 1,94,95
 506 931 506 931 491.5 957 c 128,-1,96
 477 983 477 983 467 1008 c 0,97,98
 456 1035 456 1035 450 1060.5 c 128,-1,99
 444 1086 444 1086 444 1112 c 0,75,76
EndSplineSet
Substitution2: "'smcp' Lowercase to Small Capitals lookup 1 subtable" ampersand.c2sc
Substitution2: "'c2sc' Capitals to Small Capitals lookup 0 subtable" ampersand.c2sc
Position2: "'cpsp' Capital Spacing lookup 0 subtable" dx=36 dy=0 dh=72 dv=0
EndChar

StartChar: quotesingle
Encoding: 39 39 11
Width: 1229
GlyphClass: 1
Flags: HW
LayerCount: 2
Fore
SplineSet
663 1407 m 1,0,-1
 663 1536 l 1,1,-1
 473 1536 l 1,2,-1
 473 1401 l 1,3,-1
 473 1020 l 1,4,-1
 638 1020 l 1,5,-1
 663 1407 l 1,0,-1
EndSplineSet
EndChar

StartChar: parenleft
Encoding: 40 40 12
Width: 1229
GlyphClass: 1
Flags: HW
LayerCount: 2
Fore
SplineSet
350 592 m 2,0,-1
 350 575 l 2,1,2
 350 432 350 432 372 307.5 c 128,-1,3
 394 183 394 183 431 77 c 0,4,5
 468 -30 468 -30 517.5 -117.5 c 128,-1,6
 567 -205 567 -205 622 -273 c 256,7,8
 677 -341 677 -341 734 -388.5 c 128,-1,9
 791 -436 791 -436 844 -462 c 1,10,-1
 892 -328 l 1,11,12
 852 -297 852 -297 812 -251 c 128,-1,13
 772 -205 772 -205 735 -145 c 0,14,15
 700 -86 700 -86 668.5 -9 c 128,-1,16
 637 68 637 68 613 158 c 0,17,18
 594 233 594 233 580 340.5 c 128,-1,19
 566 448 566 448 566 573 c 2,20,-1
 566 594 l 2,21,22
 566 722 566 722 580.5 832 c 128,-1,23
 595 942 595 942 620 1033 c 0,24,25
 647 1130 647 1130 684.5 1212 c 128,-1,26
 722 1294 722 1294 765 1355 c 0,27,28
 796 1398 796 1398 828 1432 c 128,-1,29
 860 1466 860 1466 892 1490 c 1,30,-1
 844 1629 l 1,31,32
 791 1603 791 1603 734 1555.5 c 128,-1,33
 677 1508 677 1508 623 1440 c 0,34,35
 568 1372 568 1372 518.5 1284 c 128,-1,36
 469 1196 469 1196 431 1091 c 0,37,38
 394 984 394 984 372 858.5 c 128,-1,39
 350 733 350 733 350 592 c 2,0,-1
EndSplineSet
EndChar

StartChar: parenright
Encoding: 41 41 13
Width: 1229
GlyphClass: 1
Flags: HW
LayerCount: 2
Fore
SplineSet
868 575 m 2,0,-1
 868 592 l 2,1,2
 868 735 868 735 845 857.5 c 128,-1,3
 822 980 822 980 785 1086 c 0,4,5
 748 1193 748 1193 698 1280.5 c 128,-1,6
 648 1368 648 1368 591 1438 c 0,7,8
 536 1506 536 1506 477.5 1554.5 c 128,-1,9
 419 1603 419 1603 365 1629 c 1,10,-1
 318 1495 l 1,11,12
 349 1471 349 1471 381.5 1435.5 c 128,-1,13
 414 1400 414 1400 444 1355 c 0,14,15
 487 1292 487 1292 526.5 1206 c 128,-1,16
 566 1120 566 1120 594 1012 c 0,17,18
 615 929 615 929 629 824 c 128,-1,19
 643 719 643 719 643 594 c 2,20,-1
 643 573 l 2,21,22
 643 452 643 452 630.5 348 c 128,-1,23
 618 244 618 244 596 156 c 0,24,25
 573 61 573 61 539.5 -17.5 c 128,-1,26
 506 -96 506 -96 468 -158 c 0,27,28
 432 -214 432 -214 394 -257 c 128,-1,29
 356 -300 356 -300 318 -328 c 1,30,-1
 365 -462 l 1,31,32
 419 -436 419 -436 477 -388 c 128,-1,33
 535 -340 535 -340 591 -270 c 0,34,35
 647 -202 647 -202 697 -114 c 128,-1,36
 747 -26 747 -26 785 81 c 0,37,38
 823 187 823 187 845.5 311 c 128,-1,39
 868 435 868 435 868 575 c 2,0,-1
EndSplineSet
EndChar

StartChar: asterisk
Encoding: 42 42 14
Width: 1229
GlyphClass: 1
Flags: HW
LayerCount: 2
Fore
SplineSet
542 900 m 1,0,-1
 271 573 l 1,1,-1
 437 458 l 1,2,-1
 648 816 l 1,3,-1
 860 447 l 1,4,-1
 1025 568 l 1,5,-1
 762 892 l 1,6,-1
 1153 984 l 1,7,-1
 1092 1180 l 1,8,-1
 724 1023 l 1,9,-1
 759 1456 l 1,10,-1
 557 1456 l 1,11,-1
 588 1029 l 1,12,-1
 217 1189 l 1,13,-1
 157 996 l 1,14,-1
 542 900 l 1,0,-1
EndSplineSet
EndChar

StartChar: plus
Encoding: 43 43 15
Width: 1229
GlyphClass: 1
Flags: HW
LayerCount: 2
Fore
SplineSet
722 799 m 1,0,-1
 722 1206 l 1,1,-1
 491 1206 l 1,2,-1
 491 799 l 1,3,-1
 107 799 l 1,4,-1
 107 574 l 1,5,-1
 491 574 l 1,6,-1
 491 146 l 1,7,-1
 722 146 l 1,8,-1
 722 574 l 1,9,-1
 1105 574 l 1,10,-1
 1105 799 l 1,11,-1
 722 799 l 1,0,-1
EndSplineSet
EndChar

StartChar: comma
Encoding: 44 44 16
Width: 1229
GlyphClass: 1
Flags: HW
LayerCount: 2
Fore
SplineSet
682 31 m 2,0,-1
 682 233 l 1,1,-1
 447 233 l 1,2,-1
 447 22 l 2,3,4
 447 -77 447 -77 423.5 -156 c 128,-1,5
 400 -235 400 -235 357 -306 c 1,6,-1
 491 -377 l 1,7,8
 577 -300 577 -300 629.5 -188.5 c 128,-1,9
 682 -77 682 -77 682 31 c 2,0,-1
EndSplineSet
EndChar

StartChar: hyphen
Encoding: 45 45 17
Width: 1229
GlyphClass: 1
Flags: HW
LayerCount: 2
Fore
SplineSet
1060 543 m 1,0,-1
 1060 737 l 1,1,-1
 255 737 l 1,2,-1
 255 543 l 1,3,-1
 1060 543 l 1,0,-1
EndSplineSet
EndChar

StartChar: period
Encoding: 46 46 18
Width: 1229
GlyphClass: 1
Flags: HW
LayerCount: 2
Fore
SplineSet
453 144 m 256,0,1
 453 75 453 75 498.5 27.5 c 128,-1,2
 544 -20 544 -20 626 -20 c 0,3,4
 707 -20 707 -20 753.5 27 c 128,-1,5
 800 74 800 74 800 144 c 256,6,7
 800 214 800 214 754 262.5 c 128,-1,8
 708 311 708 311 626 311 c 0,9,10
 542 311 542 311 497.5 262 c 128,-1,11
 453 213 453 213 453 144 c 256,0,1
EndSplineSet
EndChar

StartChar: slash
Encoding: 47 47 19
Width: 1229
GlyphClass: 1
Flags: HW
LayerCount: 2
Fore
SplineSet
453 -125 m 1,0,-1
 1024 1456 l 1,1,-1
 805 1456 l 1,2,-1
 233 -125 l 1,3,-1
 453 -125 l 1,0,-1
EndSplineSet
Substitution2: "'frac' Diagonal Fractions lookup 22 subtable" fraction
EndChar

StartChar: zero
Encoding: 48 48 20
Width: 1164
GlyphClass: 1
Flags: W
LayerCount: 2
Fore
SplineSet
1058 613 m 2,0,1
 1058 299 1058 299 940.5 139.5 c 128,-1,2
 823 -20 823 -20 583 -20 c 0,3,4
 347 -20 347 -20 227.5 135.5 c 128,-1,5
 108 291 108 291 105 596 c 2,6,-1
 105 848 l 2,7,8
 105 1162 105 1162 222.5 1319 c 128,-1,9
 340 1476 340 1476 581 1476 c 0,10,11
 820 1476 820 1476 937.5 1323 c 128,-1,12
 1055 1170 1055 1170 1058 865 c 2,13,-1
 1058 613 l 2,0,1
815 885 m 2,14,15
 815 1090 815 1090 759 1185.5 c 128,-1,16
 703 1281 703 1281 581 1281 c 0,17,18
 462 1281 462 1281 406 1190.5 c 128,-1,19
 350 1100 350 1100 347 908 c 2,20,-1
 347 578 l 2,21,22
 347 374 347 374 404 274 c 128,-1,23
 461 174 461 174 583 174 c 0,24,25
 700 174 700 174 756 266.5 c 128,-1,26
 812 359 812 359 815 556 c 2,27,-1
 815 885 l 2,14,15
EndSplineSet
Substitution2: "'numr' Numerators lookup 25 subtable" zero.numr
Substitution2: "'dnom' Denominators lookup 24 subtable" zero.dnom
Substitution2: "'pnum' Proportional Numbers lookup 19 subtable" zero.pnum
Substitution2: "'onum' Oldstyle Figures lookup 18 subtable" zero.oldstyle
Substitution2: "'c2sc' Capitals to Small Capitals lookup 0 subtable" zero.c2sc
Position2: "'cpsp' Capital Spacing lookup 0 subtable" dx=36 dy=0 dh=72 dv=0
EndChar

StartChar: one
Encoding: 49 49 21
Width: 1164
GlyphClass: 1
Flags: W
LayerCount: 2
Fore
SplineSet
767 0 m 1,0,-1
 525 0 l 1,1,-1
 525 1169 l 1,2,-1
 168 1047 l 1,3,-1
 168 1252 l 1,4,-1
 736 1461 l 1,5,-1
 767 1461 l 1,6,-1
 767 0 l 1,0,-1
EndSplineSet
Substitution2: "'numr' Numerators lookup 25 subtable" uni00B9
Substitution2: "'dnom' Denominators lookup 24 subtable" one.dnom
Substitution2: "'pnum' Proportional Numbers lookup 19 subtable" one.pnum
Substitution2: "'onum' Oldstyle Figures lookup 18 subtable" one.oldstyle
Substitution2: "'c2sc' Capitals to Small Capitals lookup 0 subtable" one.c2sc
Position2: "'cpsp' Capital Spacing lookup 0 subtable" dx=36 dy=0 dh=72 dv=0
EndChar

StartChar: two
Encoding: 50 50 22
Width: 1164
GlyphClass: 1
Flags: W
LayerCount: 2
Fore
SplineSet
1088 0 m 1,0,-1
 109 0 l 1,1,-1
 109 167 l 1,2,-1
 594 696 l 2,3,4
 699 813 699 813 743.5 891.5 c 128,-1,5
 788 970 788 970 788 1049 c 0,6,7
 788 1153 788 1153 729.5 1217 c 128,-1,8
 671 1281 671 1281 572 1281 c 0,9,10
 454 1281 454 1281 389 1209 c 128,-1,11
 324 1137 324 1137 324 1012 c 1,12,-1
 81 1012 l 1,13,14
 81 1145 81 1145 141.5 1251.5 c 128,-1,15
 202 1358 202 1358 314.5 1417 c 128,-1,16
 427 1476 427 1476 574 1476 c 0,17,18
 786 1476 786 1476 908.5 1369.5 c 128,-1,19
 1031 1263 1031 1263 1031 1075 c 0,20,21
 1031 966 1031 966 969.5 846.5 c 128,-1,22
 908 727 908 727 768 575 c 2,23,-1
 412 194 l 1,24,-1
 1088 194 l 1,25,-1
 1088 0 l 1,0,-1
EndSplineSet
Substitution2: "'numr' Numerators lookup 25 subtable" uni00B2
Substitution2: "'dnom' Denominators lookup 24 subtable" two.dnom
Substitution2: "'pnum' Proportional Numbers lookup 19 subtable" two.pnum
Substitution2: "'onum' Oldstyle Figures lookup 18 subtable" two.oldstyle
Substitution2: "'c2sc' Capitals to Small Capitals lookup 0 subtable" two.c2sc
Position2: "'cpsp' Capital Spacing lookup 0 subtable" dx=36 dy=0 dh=72 dv=0
EndChar

StartChar: three
Encoding: 51 51 23
Width: 1164
GlyphClass: 1
Flags: W
LayerCount: 2
Fore
SplineSet
390 839 m 1,0,-1
 538 839 l 2,1,2
 650 840 650 840 715.5 897 c 128,-1,3
 781 954 781 954 781 1062 c 0,4,5
 781 1166 781 1166 726.5 1223.5 c 128,-1,6
 672 1281 672 1281 560 1281 c 0,7,8
 462 1281 462 1281 399 1224.5 c 128,-1,9
 336 1168 336 1168 336 1077 c 1,10,-1
 93 1077 l 1,11,12
 93 1189 93 1189 152.5 1281 c 128,-1,13
 212 1373 212 1373 318.5 1424.5 c 128,-1,14
 425 1476 425 1476 557 1476 c 0,15,16
 775 1476 775 1476 899.5 1366.5 c 128,-1,17
 1024 1257 1024 1257 1024 1062 c 0,18,19
 1024 964 1024 964 961.5 877.5 c 128,-1,20
 899 791 899 791 800 747 c 1,21,22
 920 706 920 706 982.5 618 c 128,-1,23
 1045 530 1045 530 1045 408 c 0,24,25
 1045 212 1045 212 910.5 96 c 128,-1,26
 776 -20 776 -20 557 -20 c 0,27,28
 347 -20 347 -20 213 92 c 128,-1,29
 79 204 79 204 79 390 c 1,30,-1
 322 390 l 1,31,32
 322 294 322 294 386.5 234 c 128,-1,33
 451 174 451 174 560 174 c 0,34,35
 673 174 673 174 738 234 c 128,-1,36
 803 294 803 294 803 408 c 0,37,38
 803 523 803 523 735 585 c 128,-1,39
 667 647 667 647 533 647 c 2,40,-1
 390 647 l 1,41,-1
 390 839 l 1,0,-1
EndSplineSet
Substitution2: "'numr' Numerators lookup 25 subtable" uni00B3
Substitution2: "'dnom' Denominators lookup 24 subtable" three.dnom
Substitution2: "'pnum' Proportional Numbers lookup 19 subtable" three.pnum
Substitution2: "'onum' Oldstyle Figures lookup 18 subtable" three.oldstyle
Substitution2: "'c2sc' Capitals to Small Capitals lookup 0 subtable" three.c2sc
Position2: "'cpsp' Capital Spacing lookup 0 subtable" dx=36 dy=0 dh=72 dv=0
EndChar

StartChar: four
Encoding: 52 52 24
Width: 1164
GlyphClass: 1
Flags: W
LayerCount: 2
Fore
SplineSet
931 519 m 1,0,-1
 1112 519 l 1,1,-1
 1112 324 l 1,2,-1
 931 324 l 1,3,-1
 931 0 l 1,4,-1
 688 0 l 1,5,-1
 688 324 l 1,6,-1
 59 324 l 1,7,-1
 52 472 l 1,8,-1
 680 1456 l 1,9,-1
 931 1456 l 1,10,-1
 931 519 l 1,0,-1
307 519 m 1,11,-1
 688 519 l 1,12,-1
 688 1127 l 1,13,-1
 670 1095 l 1,14,-1
 307 519 l 1,11,-1
EndSplineSet
Substitution2: "'numr' Numerators lookup 25 subtable" four.numr
Substitution2: "'dnom' Denominators lookup 24 subtable" four.dnom
Substitution2: "'pnum' Proportional Numbers lookup 19 subtable" four.pnum
Substitution2: "'onum' Oldstyle Figures lookup 18 subtable" four.oldstyle
Substitution2: "'c2sc' Capitals to Small Capitals lookup 0 subtable" four.c2sc
Position2: "'cpsp' Capital Spacing lookup 0 subtable" dx=36 dy=0 dh=72 dv=0
EndChar

StartChar: five
Encoding: 53 53 25
Width: 1164
GlyphClass: 1
Flags: W
LayerCount: 2
Fore
SplineSet
174 722 m 1,0,-1
 253 1456 l 1,1,-1
 1035 1456 l 1,2,-1
 1035 1246 l 1,3,-1
 455 1246 l 1,4,-1
 415 898 l 1,5,6
 516 956 516 956 643 956 c 0,7,8
 851 956 851 956 966.5 823 c 128,-1,9
 1082 690 1082 690 1082 465 c 0,10,11
 1082 243 1082 243 954 111.5 c 128,-1,12
 826 -20 826 -20 603 -20 c 0,13,14
 403 -20 403 -20 271.5 93.5 c 128,-1,15
 140 207 140 207 129 393 c 1,16,-1
 364 393 l 1,17,18
 378 287 378 287 440 230.5 c 128,-1,19
 502 174 502 174 602 174 c 0,20,21
 714 174 714 174 776.5 254 c 128,-1,22
 839 334 839 334 839 472 c 0,23,24
 839 605 839 605 770 682.5 c 128,-1,25
 701 760 701 760 580 760 c 0,26,27
 514 760 514 760 468 742.5 c 128,-1,28
 422 725 422 725 368 674 c 1,29,-1
 174 722 l 1,0,-1
EndSplineSet
Substitution2: "'numr' Numerators lookup 25 subtable" five.numr
Substitution2: "'dnom' Denominators lookup 24 subtable" five.dnom
Substitution2: "'pnum' Proportional Numbers lookup 19 subtable" five.pnum
Substitution2: "'onum' Oldstyle Figures lookup 18 subtable" five.oldstyle
Substitution2: "'c2sc' Capitals to Small Capitals lookup 0 subtable" five.c2sc
Position2: "'cpsp' Capital Spacing lookup 0 subtable" dx=36 dy=0 dh=72 dv=0
EndChar

StartChar: six
Encoding: 54 54 26
Width: 1164
GlyphClass: 1
Flags: W
LayerCount: 2
Fore
SplineSet
865 1463 m 1,0,-1
 865 1262 l 1,1,-1
 835 1262 l 2,2,3
 631 1259 631 1259 509 1150 c 128,-1,4
 387 1041 387 1041 364 841 c 1,5,6
 481 964 481 964 663 964 c 0,7,8
 856 964 856 964 967.5 828 c 128,-1,9
 1079 692 1079 692 1079 477 c 0,10,11
 1079 255 1079 255 948.5 117.5 c 128,-1,12
 818 -20 818 -20 606 -20 c 0,13,14
 388 -20 388 -20 252.5 141 c 128,-1,15
 117 302 117 302 117 563 c 2,16,-1
 117 646 l 2,17,18
 117 1029 117 1029 303.5 1246 c 128,-1,19
 490 1463 490 1463 840 1463 c 2,20,-1
 865 1463 l 1,0,-1
604 768 m 0,21,22
 524 768 524 768 457.5 723 c 128,-1,23
 391 678 391 678 360 603 c 1,24,-1
 360 529 l 2,25,26
 360 367 360 367 428 271.5 c 128,-1,27
 496 176 496 176 604 176 c 128,-1,28
 712 176 712 176 775 257 c 128,-1,29
 838 338 838 338 838 470 c 128,-1,30
 838 602 838 602 774 685 c 128,-1,31
 710 768 710 768 604 768 c 0,21,22
EndSplineSet
Substitution2: "'numr' Numerators lookup 25 subtable" six.numr
Substitution2: "'dnom' Denominators lookup 24 subtable" six.dnom
Substitution2: "'lnum' Lining Figures lookup 21 subtable" six.pnum
Substitution2: "'tnum' Tabular Numbers lookup 20 subtable" six.oldstyle
Substitution2: "'pnum' Proportional Numbers lookup 19 subtable" six.pnum
Substitution2: "'onum' Oldstyle Figures lookup 18 subtable" six.oldstyle
Substitution2: "'c2sc' Capitals to Small Capitals lookup 0 subtable" six.c2sc
Position2: "'cpsp' Capital Spacing lookup 0 subtable" dx=36 dy=0 dh=72 dv=0
EndChar

StartChar: seven
Encoding: 55 55 27
Width: 1164
GlyphClass: 1
Flags: W
LayerCount: 2
Fore
SplineSet
1078 1321 m 1,0,-1
 496 0 l 1,1,-1
 241 0 l 1,2,-1
 822 1261 l 1,3,-1
 69 1261 l 1,4,-1
 69 1456 l 1,5,-1
 1078 1456 l 1,6,-1
 1078 1321 l 1,0,-1
EndSplineSet
Substitution2: "'numr' Numerators lookup 25 subtable" seven.numr
Substitution2: "'dnom' Denominators lookup 24 subtable" seven.dnom
Substitution2: "'pnum' Proportional Numbers lookup 19 subtable" seven.pnum
Substitution2: "'onum' Oldstyle Figures lookup 18 subtable" seven.oldstyle
Substitution2: "'c2sc' Capitals to Small Capitals lookup 0 subtable" seven.c2sc
Position2: "'cpsp' Capital Spacing lookup 0 subtable" dx=36 dy=0 dh=72 dv=0
EndChar

StartChar: eight
Encoding: 56 56 28
Width: 1164
GlyphClass: 1
Flags: W
LayerCount: 2
Fore
SplineSet
1026 1072 m 0,0,1
 1026 965 1026 965 971 881.5 c 128,-1,2
 916 798 916 798 821 750 c 1,3,4
 935 697 935 697 996.5 605 c 128,-1,5
 1058 513 1058 513 1058 397 c 0,6,7
 1058 205 1058 205 928 92.5 c 128,-1,8
 798 -20 798 -20 582 -20 c 0,9,10
 365 -20 365 -20 234.5 93 c 128,-1,11
 104 206 104 206 104 397 c 0,12,13
 104 514 104 514 166 607 c 128,-1,14
 228 700 228 700 340 750 c 1,15,16
 246 798 246 798 191.5 881.5 c 128,-1,17
 137 965 137 965 137 1072 c 0,18,19
 137 1258 137 1258 257 1367 c 128,-1,20
 377 1476 377 1476 581 1476 c 0,21,22
 786 1476 786 1476 906 1367 c 128,-1,23
 1026 1258 1026 1258 1026 1072 c 0,0,1
815 409 m 0,24,25
 815 517 815 517 750.5 583.5 c 128,-1,26
 686 650 686 650 580 650 c 128,-1,27
 474 650 474 650 410.5 584 c 128,-1,28
 347 518 347 518 347 409 c 0,29,30
 347 302 347 302 409.5 238 c 128,-1,31
 472 174 472 174 582 174 c 128,-1,32
 692 174 692 174 753.5 236 c 128,-1,33
 815 298 815 298 815 409 c 0,24,25
784 1063 m 0,34,35
 784 1158 784 1158 729 1219.5 c 128,-1,36
 674 1281 674 1281 581 1281 c 128,-1,37
 488 1281 488 1281 434 1222.5 c 128,-1,38
 380 1164 380 1164 380 1063 c 0,39,40
 380 963 380 963 434.5 904 c 128,-1,41
 489 845 489 845 582 845 c 128,-1,42
 675 845 675 845 729.5 904 c 128,-1,43
 784 963 784 963 784 1063 c 0,34,35
EndSplineSet
Substitution2: "'numr' Numerators lookup 25 subtable" eight.numr
Substitution2: "'dnom' Denominators lookup 24 subtable" eight.dnom
Substitution2: "'lnum' Lining Figures lookup 21 subtable" eight.pnum
Substitution2: "'tnum' Tabular Numbers lookup 20 subtable" eight.oldstyle
Substitution2: "'pnum' Proportional Numbers lookup 19 subtable" eight.pnum
Substitution2: "'onum' Oldstyle Figures lookup 18 subtable" eight.oldstyle
Substitution2: "'c2sc' Capitals to Small Capitals lookup 0 subtable" eight.c2sc
Position2: "'cpsp' Capital Spacing lookup 0 subtable" dx=36 dy=0 dh=72 dv=0
EndChar

StartChar: nine
Encoding: 57 57 29
Width: 1164
GlyphClass: 1
Flags: W
LayerCount: 2
Fore
SplineSet
798 609 m 1,0,1
 676 480 676 480 513 480 c 0,2,3
 321 480 321 480 207 614.5 c 128,-1,4
 93 749 93 749 93 968 c 0,5,6
 93 1112 93 1112 151 1229 c 128,-1,7
 209 1346 209 1346 316 1411 c 128,-1,8
 423 1476 423 1476 564 1476 c 0,9,10
 784 1476 784 1476 913 1312 c 128,-1,11
 1042 1148 1042 1148 1042 873 c 2,12,-1
 1042 805 l 2,13,14
 1042 411 1042 411 864 204 c 128,-1,15
 686 -3 686 -3 333 -6 c 2,16,-1
 304 -6 l 1,17,-1
 304 195 l 1,18,-1
 339 195 l 2,19,20
 554 198 554 198 669 298.5 c 128,-1,21
 784 399 784 399 798 609 c 1,0,1
564 670 m 0,22,23
 637 670 637 670 701 712 c 128,-1,24
 765 754 765 754 800 828 c 1,25,-1
 800 923 l 2,26,27
 800 1084 800 1084 734 1182 c 128,-1,28
 668 1280 668 1280 563 1280 c 128,-1,29
 458 1280 458 1280 395.5 1193.5 c 128,-1,30
 333 1107 333 1107 333 975 c 0,31,32
 333 838 333 838 396 754 c 128,-1,33
 459 670 459 670 564 670 c 0,22,23
EndSplineSet
Substitution2: "'numr' Numerators lookup 25 subtable" nine.numr
Substitution2: "'dnom' Denominators lookup 24 subtable" nine.dnom
Substitution2: "'pnum' Proportional Numbers lookup 19 subtable" nine.pnum
Substitution2: "'onum' Oldstyle Figures lookup 18 subtable" nine.oldstyle
Substitution2: "'c2sc' Capitals to Small Capitals lookup 0 subtable" nine.c2sc
Position2: "'cpsp' Capital Spacing lookup 0 subtable" dx=36 dy=0 dh=72 dv=0
EndChar

StartChar: less
Encoding: 60 60 32
Width: 1229
GlyphClass: 1
Flags: HW
LayerCount: 2
Fore
SplineSet
1031 166 m 1,0,-1
 1031 405 l 1,1,-1
 456 611 l 1,2,-1
 395 632 l 1,3,-1
 456 654 l 1,4,-1
 1031 862 l 1,5,-1
 1031 1101 l 1,6,-1
 162 730 l 1,7,-1
 162 538 l 1,8,-1
 1031 166 l 1,0,-1
EndSplineSet
EndChar

StartChar: equal
Encoding: 61 61 33
Width: 1229
GlyphClass: 1
Flags: HW
LayerCount: 2
Fore
SplineSet
1088 743 m 1,0,-1
 1088 943 l 1,1,-1
 164 943 l 1,2,-1
 164 743 l 1,3,-1
 1088 743 l 1,0,-1
1088 319 m 1,4,-1
 1088 518 l 1,5,-1
 164 518 l 1,6,-1
 164 319 l 1,7,-1
 1088 319 l 1,4,-1
EndSplineSet
EndChar

StartChar: greater
Encoding: 62 62 34
Width: 1229
GlyphClass: 1
Flags: HW
LayerCount: 2
Fore
SplineSet
168 166 m 1,0,-1
 1061 538 l 1,1,-1
 1061 731 l 1,2,-1
 168 1102 l 1,3,-1
 168 865 l 1,4,-1
 773 655 l 1,5,-1
 833 635 l 1,6,-1
 772 617 l 1,7,-1
 168 403 l 1,8,-1
 168 166 l 1,0,-1
EndSplineSet
EndChar

StartChar: question
Encoding: 63 63 35
Width: 1229
GlyphClass: 1
Flags: HW
LayerCount: 2
Fore
SplineSet
504 429 m 1,0,-1
 727 429 l 1,1,2
 727 468 727 468 729 497.5 c 128,-1,3
 731 527 731 527 739 552 c 0,4,5
 746 577 746 577 763 601.5 c 128,-1,6
 780 626 780 626 810 655 c 0,7,8
 858 698 858 698 906.5 745 c 128,-1,9
 955 792 955 792 993 845 c 0,10,11
 1032 898 1032 898 1056.5 958.5 c 128,-1,12
 1081 1019 1081 1019 1081 1091 c 0,13,14
 1081 1184 1081 1184 1050 1256 c 128,-1,15
 1019 1328 1019 1328 961 1377 c 256,16,17
 903 1426 903 1426 818.5 1451.5 c 128,-1,18
 734 1477 734 1477 627 1477 c 0,19,20
 531 1477 531 1477 449 1452.5 c 128,-1,21
 367 1428 367 1428 306 1379 c 0,22,23
 245 1331 245 1331 209.5 1259 c 128,-1,24
 174 1187 174 1187 173 1092 c 1,25,-1
 413 1092 l 1,26,27
 413 1141 413 1141 431.5 1176 c 128,-1,28
 450 1211 450 1211 480 1233 c 256,29,30
 510 1255 510 1255 548 1265.5 c 128,-1,31
 586 1276 586 1276 627 1276 c 0,32,33
 679 1276 679 1276 719.5 1263.5 c 128,-1,34
 760 1251 760 1251 788 1226 c 0,35,36
 813 1202 813 1202 826.5 1165.5 c 128,-1,37
 840 1129 840 1129 840 1081 c 0,38,39
 840 1038 840 1038 822.5 997 c 128,-1,40
 805 956 805 956 777 918 c 0,41,42
 748 879 748 879 713.5 843.5 c 128,-1,43
 679 808 679 808 645 776 c 0,44,45
 597 735 597 735 569 702 c 128,-1,46
 541 669 541 669 527 632 c 0,47,48
 513 594 513 594 508.5 546.5 c 128,-1,49
 504 499 504 499 504 429 c 1,0,-1
471 121 m 0,50,51
 471 65 471 65 508 26.5 c 128,-1,52
 545 -12 545 -12 613 -12 c 0,53,54
 680 -12 680 -12 718.5 26.5 c 128,-1,55
 757 65 757 65 757 121 c 0,56,57
 757 180 757 180 718.5 219 c 128,-1,58
 680 258 680 258 613 258 c 0,59,60
 545 258 545 258 508 219 c 128,-1,61
 471 180 471 180 471 121 c 0,50,51
EndSplineSet
EndChar

StartChar: at
Encoding: 64 64 36
Width: 1229
GlyphClass: 1
Flags: HW
LayerCount: 2
Fore
SplineSet
1165 809 m 0,0,1
 1169 953 1169 953 1136.5 1071 c 128,-1,2
 1104 1189 1104 1189 1040 1273 c 0,3,4
 974 1357 974 1357 879 1403 c 128,-1,5
 784 1449 784 1449 664 1449 c 0,6,7
 533 1449 533 1449 424 1390.5 c 128,-1,8
 315 1332 315 1332 235 1230 c 0,9,10
 154 1126 154 1126 106.5 984.5 c 128,-1,11
 59 843 59 843 53 685 c 0,12,13
 48 528 48 528 79 400 c 128,-1,14
 110 272 110 272 178 182 c 0,15,16
 246 91 246 91 351.5 41.5 c 128,-1,17
 457 -8 457 -8 604 -8 c 0,18,19
 637 -8 637 -8 673.5 -3.5 c 128,-1,20
 710 1 710 1 746 11 c 0,21,22
 782 20 782 20 815 34 c 128,-1,23
 848 48 848 48 874 67 c 1,24,-1
 842 194 l 1,25,26
 819 181 819 181 791 170.5 c 128,-1,27
 763 160 763 160 733 152 c 0,28,29
 701 144 701 144 669 139.5 c 128,-1,30
 637 135 637 135 607 135 c 0,31,32
 503 135 503 135 424.5 170.5 c 128,-1,33
 346 206 346 206 295 276 c 0,34,35
 244 345 244 345 220 447.5 c 128,-1,36
 196 550 196 550 201 685 c 0,37,38
 205 823 205 823 240 938.5 c 128,-1,39
 275 1054 275 1054 337 1137 c 0,40,41
 396 1218 396 1218 476.5 1262.5 c 128,-1,42
 557 1307 557 1307 657 1307 c 0,43,44
 750 1307 750 1307 821.5 1275 c 128,-1,45
 893 1243 893 1243 941 1180 c 256,46,47
 989 1117 989 1117 1012 1023 c 128,-1,48
 1035 929 1035 929 1031 805 c 0,49,50
 1031 728 1031 728 1022 662 c 128,-1,51
 1013 596 1013 596 995 548 c 0,52,53
 978 500 978 500 953.5 472.5 c 128,-1,54
 929 445 929 445 899 445 c 0,55,56
 886 445 886 445 874.5 448 c 128,-1,57
 863 451 863 451 855 462 c 0,58,59
 846 473 846 473 842 493 c 128,-1,60
 838 513 838 513 840 547 c 2,61,-1
 884 1064 l 1,62,63
 855 1097 855 1097 807.5 1121.5 c 128,-1,64
 760 1146 760 1146 687 1146 c 0,65,66
 613 1146 613 1146 553 1113.5 c 128,-1,67
 493 1081 493 1081 448 1021 c 256,68,69
 403 961 403 961 375 875.5 c 128,-1,70
 347 790 347 790 337 684 c 0,71,72
 329 601 329 601 339 532.5 c 128,-1,73
 349 464 349 464 375 416 c 0,74,75
 400 366 400 366 441.5 339.5 c 128,-1,76
 483 313 483 313 538 313 c 0,77,78
 570 313 570 313 598.5 322.5 c 128,-1,79
 627 332 627 332 652 350 c 0,80,81
 671 364 671 364 688 381.5 c 128,-1,82
 705 399 705 399 719 420 c 1,83,84
 728 398 728 398 741 380 c 128,-1,85
 754 362 754 362 770 348 c 0,86,87
 791 330 791 330 818 321 c 128,-1,88
 845 312 845 312 877 312 c 0,89,90
 953 312 953 312 1006.5 356.5 c 128,-1,91
 1060 401 1060 401 1094 472 c 256,92,93
 1128 543 1128 543 1145 632 c 128,-1,94
 1162 721 1162 721 1165 809 c 0,0,1
489 684 m 0,95,96
 496 760 496 760 512 819.5 c 128,-1,97
 528 879 528 879 553 920 c 0,98,99
 578 962 578 962 614 983.5 c 128,-1,100
 650 1005 650 1005 698 1005 c 0,101,102
 711 1005 711 1005 721.5 1003 c 128,-1,103
 732 1001 732 1001 740 998 c 1,104,-1
 702 556 l 1,105,-1
 701 544 l 1,106,107
 692 526 692 526 681 512.5 c 128,-1,108
 670 499 670 499 659 489 c 0,109,110
 641 473 641 473 620.5 466.5 c 128,-1,111
 600 460 600 460 578 460 c 0,112,113
 554 460 554 460 535.5 474.5 c 128,-1,114
 517 489 517 489 506 519 c 0,115,116
 495 547 495 547 490.5 589 c 128,-1,117
 486 631 486 631 489 684 c 0,95,96
EndSplineSet
EndChar

StartChar: A
Encoding: 65 65 37
Width: 1363
GlyphClass: 2
Flags: W
LayerCount: 2
Fore
SplineSet
963 339 m 1,0,-1
 399 339 l 1,1,-1
 281 0 l 1,2,-1
 18 0 l 1,3,-1
 568 1456 l 1,4,-1
 795 1456 l 1,5,-1
 1346 0 l 1,6,-1
 1082 0 l 1,7,-1
 963 339 l 1,0,-1
470 543 m 1,8,-1
 892 543 l 1,9,-1
 681 1147 l 1,10,-1
 470 543 l 1,8,-1
EndSplineSet
Substitution2: "'c2sc' Capitals to Small Capitals lookup 0 subtable" A.c2sc
Position2: "'cpsp' Capital Spacing lookup 0 subtable" dx=36 dy=0 dh=72 dv=0
EndChar

StartChar: B
Encoding: 66 66 38
Width: 1292
GlyphClass: 2
Flags: W
LayerCount: 2
Fore
SplineSet
148 0 m 1,0,-1
 148 1456 l 1,1,-1
 647 1456 l 2,2,3
 894 1456 894 1456 1023 1357 c 128,-1,4
 1152 1258 1152 1258 1152 1062 c 0,5,6
 1152 962 1152 962 1098 882 c 128,-1,7
 1044 802 1044 802 940 758 c 1,8,9
 1058 726 1058 726 1122.5 637.5 c 128,-1,10
 1187 549 1187 549 1187 425 c 0,11,12
 1187 220 1187 220 1055.5 110 c 128,-1,13
 924 0 924 0 679 0 c 2,14,-1
 148 0 l 1,0,-1
401 657 m 1,15,-1
 401 202 l 1,16,-1
 682 202 l 2,17,18
 801 202 801 202 868 261 c 128,-1,19
 935 320 935 320 935 425 c 0,20,21
 935 652 935 652 703 657 c 1,22,-1
 401 657 l 1,15,-1
401 843 m 1,23,-1
 649 843 l 2,24,25
 767 843 767 843 833.5 896.5 c 128,-1,26
 900 950 900 950 900 1048 c 0,27,28
 900 1156 900 1156 838.5 1204 c 128,-1,29
 777 1252 777 1252 647 1252 c 2,30,-1
 401 1252 l 1,31,-1
 401 843 l 1,23,-1
EndSplineSet
Substitution2: "'c2sc' Capitals to Small Capitals lookup 0 subtable" B.c2sc
Position2: "'cpsp' Capital Spacing lookup 0 subtable" dx=36 dy=0 dh=72 dv=0
EndChar

StartChar: C
Encoding: 67 67 39
Width: 1337
GlyphClass: 2
Flags: W
LayerCount: 2
Fore
SplineSet
1259 474 m 1,0,1
 1237 241 1237 241 1087 110.5 c 128,-1,2
 937 -20 937 -20 688 -20 c 0,3,4
 514 -20 514 -20 381.5 62.5 c 128,-1,5
 249 145 249 145 177 297 c 128,-1,6
 105 449 105 449 102 650 c 2,7,-1
 102 786 l 2,8,9
 102 992 102 992 175 1149 c 128,-1,10
 248 1306 248 1306 384.5 1391 c 128,-1,11
 521 1476 521 1476 700 1476 c 0,12,13
 941 1476 941 1476 1088 1345 c 128,-1,14
 1235 1214 1235 1214 1259 975 c 1,15,-1
 1007 975 l 1,16,17
 989 1132 989 1132 915.5 1201.5 c 128,-1,18
 842 1271 842 1271 700 1271 c 0,19,20
 535 1271 535 1271 446.5 1150.5 c 128,-1,21
 358 1030 358 1030 356 797 c 2,22,-1
 356 668 l 2,23,24
 356 432 356 432 440.5 308 c 128,-1,25
 525 184 525 184 688 184 c 0,26,27
 837 184 837 184 912 251 c 128,-1,28
 987 318 987 318 1007 474 c 1,29,-1
 1259 474 l 1,0,1
EndSplineSet
Substitution2: "'ss06' Style Set 6 lookup 16 subtable" C.ss06
Substitution2: "'c2sc' Capitals to Small Capitals lookup 0 subtable" C.c2sc
Position2: "'cpsp' Capital Spacing lookup 0 subtable" dx=36 dy=0 dh=72 dv=0
EndChar

StartChar: D
Encoding: 68 68 40
Width: 1338
GlyphClass: 2
Flags: W
LayerCount: 2
Fore
SplineSet
148 0 m 1,0,-1
 148 1456 l 1,1,-1
 578 1456 l 2,2,3
 771 1456 771 1456 920.5 1370 c 128,-1,4
 1070 1284 1070 1284 1152 1126 c 128,-1,5
 1234 968 1234 968 1234 764 c 2,6,-1
 1234 691 l 2,7,8
 1234 484 1234 484 1151.5 327 c 128,-1,9
 1069 170 1069 170 916.5 85 c 128,-1,10
 764 0 764 0 567 0 c 2,11,-1
 148 0 l 1,0,-1
401 1252 m 1,12,-1
 401 202 l 1,13,-1
 566 202 l 2,14,15
 765 202 765 202 871.5 326.5 c 128,-1,16
 978 451 978 451 980 684 c 2,17,-1
 980 765 l 2,18,19
 980 1002 980 1002 877 1127 c 128,-1,20
 774 1252 774 1252 578 1252 c 2,21,-1
 401 1252 l 1,12,-1
EndSplineSet
Substitution2: "'ss06' Style Set 6 lookup 16 subtable" D.ss06
Substitution2: "'c2sc' Capitals to Small Capitals lookup 0 subtable" D.c2sc
Position2: "'cpsp' Capital Spacing lookup 0 subtable" dx=36 dy=0 dh=72 dv=0
EndChar

StartChar: E
Encoding: 69 69 41
Width: 1158
GlyphClass: 2
Flags: W
LayerCount: 2
Fore
SplineSet
999 650 m 1,0,-1
 401 650 l 1,1,-1
 401 202 l 1,2,-1
 1100 202 l 1,3,-1
 1100 0 l 1,4,-1
 148 0 l 1,5,-1
 148 1456 l 1,6,-1
 1093 1456 l 1,7,-1
 1093 1252 l 1,8,-1
 401 1252 l 1,9,-1
 401 850 l 1,10,-1
 999 850 l 1,11,-1
 999 650 l 1,0,-1
EndSplineSet
Substitution2: "'c2sc' Capitals to Small Capitals lookup 0 subtable" E.c2sc
Position2: "'cpsp' Capital Spacing lookup 0 subtable" dx=36 dy=0 dh=72 dv=0
EndChar

StartChar: F
Encoding: 70 70 42
Width: 1125
GlyphClass: 2
Flags: W
LayerCount: 2
Fore
SplineSet
987 617 m 1,0,-1
 401 617 l 1,1,-1
 401 0 l 1,2,-1
 148 0 l 1,3,-1
 148 1456 l 1,4,-1
 1073 1456 l 1,5,-1
 1073 1252 l 1,6,-1
 401 1252 l 1,7,-1
 401 819 l 1,8,-1
 987 819 l 1,9,-1
 987 617 l 1,0,-1
EndSplineSet
Substitution2: "'c2sc' Capitals to Small Capitals lookup 0 subtable" F.c2sc
Position2: "'cpsp' Capital Spacing lookup 0 subtable" dx=36 dy=0 dh=72 dv=0
EndChar

StartChar: G
Encoding: 71 71 43
Width: 1394
GlyphClass: 2
Flags: W
LayerCount: 2
Fore
SplineSet
1264 189 m 1,0,1
 1185 86 1185 86 1045 33 c 128,-1,2
 905 -20 905 -20 727 -20 c 0,3,4
 544 -20 544 -20 403 63 c 128,-1,5
 262 146 262 146 185.5 300.5 c 128,-1,6
 109 455 109 455 106 661 c 2,7,-1
 106 775 l 2,8,9
 106 1105 106 1105 264 1290.5 c 128,-1,10
 422 1476 422 1476 705 1476 c 0,11,12
 948 1476 948 1476 1091 1356 c 128,-1,13
 1234 1236 1234 1236 1263 1010 c 1,14,-1
 1015 1010 l 1,15,16
 973 1273 973 1273 710 1273 c 0,17,18
 540 1273 540 1273 451.5 1150.5 c 128,-1,19
 363 1028 363 1028 360 791 c 2,20,-1
 360 679 l 2,21,22
 360 443 360 443 459.5 312.5 c 128,-1,23
 559 182 559 182 736 182 c 0,24,25
 930 182 930 182 1012 270 c 1,26,-1
 1012 555 l 1,27,-1
 712 555 l 1,28,-1
 712 747 l 1,29,-1
 1264 747 l 1,30,-1
 1264 189 l 1,0,1
EndSplineSet
Substitution2: "'ss06' Style Set 6 lookup 16 subtable" G.ss06
Substitution2: "'c2sc' Capitals to Small Capitals lookup 0 subtable" G.c2sc
Position2: "'cpsp' Capital Spacing lookup 0 subtable" dx=36 dy=0 dh=72 dv=0
EndChar

StartChar: H
Encoding: 72 72 44
Width: 1455
GlyphClass: 2
Flags: W
LayerCount: 2
Fore
SplineSet
1304 0 m 1,0,-1
 1052 0 l 1,1,-1
 1052 647 l 1,2,-1
 401 647 l 1,3,-1
 401 0 l 1,4,-1
 148 0 l 1,5,-1
 148 1456 l 1,6,-1
 401 1456 l 1,7,-1
 401 850 l 1,8,-1
 1052 850 l 1,9,-1
 1052 1456 l 1,10,-1
 1304 1456 l 1,11,-1
 1304 0 l 1,0,-1
EndSplineSet
Substitution2: "'c2sc' Capitals to Small Capitals lookup 0 subtable" H.c2sc
Position2: "'cpsp' Capital Spacing lookup 0 subtable" dx=36 dy=0 dh=72 dv=0
EndChar

StartChar: I
Encoding: 73 73 45
Width: 578
GlyphClass: 2
Flags: W
LayerCount: 2
Fore
SplineSet
415 0 m 1,0,-1
 163 0 l 1,1,-1
 163 1456 l 1,2,-1
 415 1456 l 1,3,-1
 415 0 l 1,0,-1
EndSplineSet
Substitution2: "'c2sc' Capitals to Small Capitals lookup 0 subtable" I.c2sc
Position2: "'cpsp' Capital Spacing lookup 0 subtable" dx=36 dy=0 dh=72 dv=0
EndChar

StartChar: J
Encoding: 74 74 46
Width: 1137
GlyphClass: 2
Flags: W
LayerCount: 2
Fore
SplineSet
744 1456 m 1,0,-1
 996 1456 l 1,1,-1
 996 435 l 2,2,3
 996 226 996 226 865.5 103 c 128,-1,4
 735 -20 735 -20 521 -20 c 0,5,6
 293 -20 293 -20 169 95 c 128,-1,7
 45 210 45 210 45 415 c 1,8,-1
 297 415 l 1,9,10
 297 299 297 299 354.5 240.5 c 128,-1,11
 412 182 412 182 521 182 c 0,12,13
 623 182 623 182 683.5 249.5 c 128,-1,14
 744 317 744 317 744 436 c 2,15,-1
 744 1456 l 1,0,-1
EndSplineSet
Substitution2: "'c2sc' Capitals to Small Capitals lookup 0 subtable" J.c2sc
Position2: "'cpsp' Capital Spacing lookup 0 subtable" dx=36 dy=0 dh=72 dv=0
EndChar

StartChar: K
Encoding: 75 75 47
Width: 1291
GlyphClass: 2
Flags: W
LayerCount: 2
Fore
SplineSet
566 629 m 1,0,-1
 401 454 l 1,1,-1
 401 0 l 1,2,-1
 148 0 l 1,3,-1
 148 1456 l 1,4,-1
 401 1456 l 1,5,-1
 401 773 l 1,6,-1
 541 946 l 1,7,-1
 967 1456 l 1,8,-1
 1273 1456 l 1,9,-1
 732 811 l 1,10,-1
 1304 0 l 1,11,-1
 1004 0 l 1,12,-1
 566 629 l 1,0,-1
EndSplineSet
Substitution2: "'ss05' Style Set 5 lookup 15 subtable" K.ss05
Substitution2: "'ss04' Style Set 4 lookup 14 subtable" K.ss04
Substitution2: "'c2sc' Capitals to Small Capitals lookup 0 subtable" K.c2sc
Position2: "'cpsp' Capital Spacing lookup 0 subtable" dx=36 dy=0 dh=72 dv=0
EndChar

StartChar: L
Encoding: 76 76 48
Width: 1108
GlyphClass: 2
Flags: W
LayerCount: 2
Fore
SplineSet
401 202 m 1,0,-1
 1062 202 l 1,1,-1
 1062 0 l 1,2,-1
 148 0 l 1,3,-1
 148 1456 l 1,4,-1
 401 1456 l 1,5,-1
 401 202 l 1,0,-1
EndSplineSet
Substitution2: "'c2sc' Capitals to Small Capitals lookup 0 subtable" L.c2sc
Position2: "'cpsp' Capital Spacing lookup 0 subtable" dx=36 dy=0 dh=72 dv=0
EndChar

StartChar: M
Encoding: 77 77 49
Width: 1793
GlyphClass: 2
Flags: W
LayerCount: 2
Fore
SplineSet
476 1456 m 1,0,-1
 896 340 l 1,1,-1
 1315 1456 l 1,2,-1
 1642 1456 l 1,3,-1
 1642 0 l 1,4,-1
 1390 0 l 1,5,-1
 1390 480 l 1,6,-1
 1415 1122 l 1,7,-1
 985 0 l 1,8,-1
 804 0 l 1,9,-1
 375 1121 l 1,10,-1
 400 480 l 1,11,-1
 400 0 l 1,12,-1
 148 0 l 1,13,-1
 148 1456 l 1,14,-1
 476 1456 l 1,0,-1
EndSplineSet
Substitution2: "'c2sc' Capitals to Small Capitals lookup 0 subtable" M.c2sc
Position2: "'cpsp' Capital Spacing lookup 0 subtable" dx=36 dy=0 dh=72 dv=0
EndChar

StartChar: N
Encoding: 78 78 50
Width: 1454
GlyphClass: 2
Flags: W
LayerCount: 2
Fore
SplineSet
1303 0 m 1,0,-1
 1050 0 l 1,1,-1
 401 1033 l 1,2,-1
 401 0 l 1,3,-1
 148 0 l 1,4,-1
 148 1456 l 1,5,-1
 401 1456 l 1,6,-1
 1052 419 l 1,7,-1
 1052 1456 l 1,8,-1
 1303 1456 l 1,9,-1
 1303 0 l 1,0,-1
EndSplineSet
Substitution2: "'c2sc' Capitals to Small Capitals lookup 0 subtable" N.c2sc
Position2: "'cpsp' Capital Spacing lookup 0 subtable" dx=36 dy=0 dh=72 dv=0
EndChar

StartChar: O
Encoding: 79 79 51
Width: 1414
GlyphClass: 2
Flags: W
LayerCount: 2
Fore
SplineSet
1310 690 m 2,0,1
 1310 476 1310 476 1236 314.5 c 128,-1,2
 1162 153 1162 153 1024.5 66.5 c 128,-1,3
 887 -20 887 -20 708 -20 c 0,4,5
 531 -20 531 -20 392.5 66.5 c 128,-1,6
 254 153 254 153 178.5 313 c 128,-1,7
 103 473 103 473 102 682 c 2,8,-1
 102 764 l 2,9,10
 102 977 102 977 177.5 1140 c 128,-1,11
 253 1303 253 1303 390.5 1389.5 c 128,-1,12
 528 1476 528 1476 706 1476 c 128,-1,13
 884 1476 884 1476 1021.5 1390.5 c 128,-1,14
 1159 1305 1159 1305 1234 1144.5 c 128,-1,15
 1309 984 1309 984 1310 771 c 2,16,-1
 1310 690 l 2,0,1
1057 766 m 2,17,18
 1057 1008 1057 1008 965.5 1137 c 128,-1,19
 874 1266 874 1266 706 1266 c 0,20,21
 542 1266 542 1266 449.5 1137.5 c 128,-1,22
 357 1009 357 1009 355 774 c 2,23,-1
 355 690 l 2,24,25
 355 450 355 450 448.5 319 c 128,-1,26
 542 188 542 188 708 188 c 0,27,28
 876 188 876 188 966.5 316 c 128,-1,29
 1057 444 1057 444 1057 690 c 2,30,-1
 1057 766 l 2,17,18
EndSplineSet
Substitution2: "'ss06' Style Set 6 lookup 16 subtable" O.ss06
Substitution2: "'c2sc' Capitals to Small Capitals lookup 0 subtable" O.c2sc
Position2: "'cpsp' Capital Spacing lookup 0 subtable" dx=36 dy=0 dh=72 dv=0
EndChar

StartChar: P
Encoding: 80 80 52
Width: 1309
GlyphClass: 2
Flags: W
LayerCount: 2
Fore
SplineSet
401 541 m 1,0,-1
 401 0 l 1,1,-1
 148 0 l 1,2,-1
 148 1456 l 1,3,-1
 705 1456 l 2,4,5
 949 1456 949 1456 1092.5 1329 c 128,-1,6
 1236 1202 1236 1202 1236 993 c 0,7,8
 1236 779 1236 779 1095.5 660 c 128,-1,9
 955 541 955 541 702 541 c 2,10,-1
 401 541 l 1,0,-1
401 744 m 1,11,-1
 705 744 l 2,12,13
 840 744 840 744 911 807.5 c 128,-1,14
 982 871 982 871 982 991 c 0,15,16
 982 1109 982 1109 910 1179.5 c 128,-1,17
 838 1250 838 1250 712 1252 c 2,18,-1
 401 1252 l 1,19,-1
 401 744 l 1,11,-1
EndSplineSet
Substitution2: "'c2sc' Capitals to Small Capitals lookup 0 subtable" P.c2sc
Position2: "'cpsp' Capital Spacing lookup 0 subtable" dx=36 dy=0 dh=72 dv=0
EndChar

StartChar: Q
Encoding: 81 81 53
Width: 1414
GlyphClass: 2
Flags: W
LayerCount: 2
Fore
SplineSet
1305 690 m 2,0,1
 1305 483 1305 483 1239.5 331.5 c 128,-1,2
 1174 180 1174 180 1056 91 c 1,3,-1
 1306 -104 l 1,4,-1
 1142 -252 l 1,5,-1
 832 -7 l 1,6,7
 771 -20 771 -20 701 -20 c 0,8,9
 525 -20 525 -20 386.5 66.5 c 128,-1,10
 248 153 248 153 172.5 313 c 128,-1,11
 97 473 97 473 96 682 c 2,12,-1
 96 764 l 2,13,14
 96 977 96 977 171.5 1140 c 128,-1,15
 247 1303 247 1303 384.5 1389.5 c 128,-1,16
 522 1476 522 1476 699 1476 c 0,17,18
 879 1476 879 1476 1016.5 1390.5 c 128,-1,19
 1154 1305 1154 1305 1229 1144.5 c 128,-1,20
 1304 984 1304 984 1305 771 c 2,21,-1
 1305 690 l 2,0,1
1051 766 m 2,22,23
 1051 1012 1051 1012 959 1139 c 128,-1,24
 867 1266 867 1266 699 1266 c 0,25,26
 536 1266 536 1266 443.5 1137.5 c 128,-1,27
 351 1009 351 1009 349 775 c 2,28,-1
 349 690 l 2,29,30
 349 454 349 454 441.5 321 c 128,-1,31
 534 188 534 188 701 188 c 0,32,33
 870 188 870 188 960.5 316 c 128,-1,34
 1051 444 1051 444 1051 690 c 2,35,-1
 1051 766 l 2,22,23
EndSplineSet
Substitution2: "'ss06' Style Set 6 lookup 16 subtable" Q.ss06
Substitution2: "'c2sc' Capitals to Small Capitals lookup 0 subtable" Q.c2sc
Position2: "'cpsp' Capital Spacing lookup 0 subtable" dx=36 dy=0 dh=72 dv=0
EndChar

StartChar: R
Encoding: 82 82 54
Width: 1278
GlyphClass: 2
Flags: W
LayerCount: 2
Fore
SplineSet
683 561 m 1,0,-1
 401 561 l 1,1,-1
 401 0 l 1,2,-1
 148 0 l 1,3,-1
 148 1456 l 1,4,-1
 660 1456 l 2,5,6
 912 1456 912 1456 1049 1343 c 128,-1,7
 1186 1230 1186 1230 1186 1016 c 0,8,9
 1186 870 1186 870 1115.5 771.5 c 128,-1,10
 1045 673 1045 673 919 620 c 1,11,-1
 1246 13 l 1,12,-1
 1246 0 l 1,13,-1
 975 0 l 1,14,-1
 683 561 l 1,0,-1
401 764 m 1,15,-1
 661 764 l 2,16,17
 789 764 789 764 861 828.5 c 128,-1,18
 933 893 933 893 933 1005 c 0,19,20
 933 1122 933 1122 866.5 1186 c 128,-1,21
 800 1250 800 1250 668 1252 c 2,22,-1
 401 1252 l 1,23,-1
 401 764 l 1,15,-1
EndSplineSet
Substitution2: "'ss03' Style Set 3 lookup 13 subtable" R.ss03
Substitution2: "'c2sc' Capitals to Small Capitals lookup 0 subtable" R.c2sc
Position2: "'cpsp' Capital Spacing lookup 0 subtable" dx=36 dy=0 dh=72 dv=0
EndChar

StartChar: S
Encoding: 83 83 55
Width: 1236
GlyphClass: 2
Flags: W
LayerCount: 2
Fore
SplineSet
909 375 m 0,0,1
 909 471 909 471 841.5 523 c 128,-1,2
 774 575 774 575 598 628 c 128,-1,3
 422 681 422 681 318 746 c 0,4,5
 119 871 119 871 119 1072 c 0,6,7
 119 1248 119 1248 262.5 1362 c 128,-1,8
 406 1476 406 1476 635 1476 c 0,9,10
 787 1476 787 1476 906 1420 c 128,-1,11
 1025 1364 1025 1364 1093 1260.5 c 128,-1,12
 1161 1157 1161 1157 1161 1031 c 1,13,-1
 909 1031 l 1,14,15
 909 1145 909 1145 837.5 1209.5 c 128,-1,16
 766 1274 766 1274 633 1274 c 0,17,18
 509 1274 509 1274 440.5 1221 c 128,-1,19
 372 1168 372 1168 372 1073 c 0,20,21
 372 993 372 993 446 939.5 c 128,-1,22
 520 886 520 886 690 835.5 c 128,-1,23
 860 785 860 785 963 720.5 c 128,-1,24
 1066 656 1066 656 1114 572.5 c 128,-1,25
 1162 489 1162 489 1162 377 c 0,26,27
 1162 195 1162 195 1022.5 87.5 c 128,-1,28
 883 -20 883 -20 644 -20 c 0,29,30
 486 -20 486 -20 353.5 38.5 c 128,-1,31
 221 97 221 97 147.5 200 c 128,-1,32
 74 303 74 303 74 440 c 1,33,-1
 327 440 l 1,34,35
 327 316 327 316 409 248 c 128,-1,36
 491 180 491 180 644 180 c 0,37,38
 776 180 776 180 842.5 233.5 c 128,-1,39
 909 287 909 287 909 375 c 0,0,1
EndSplineSet
Substitution2: "'c2sc' Capitals to Small Capitals lookup 0 subtable" S.c2sc
Position2: "'cpsp' Capital Spacing lookup 0 subtable" dx=36 dy=0 dh=72 dv=0
EndChar

StartChar: T
Encoding: 84 84 56
Width: 1243
GlyphClass: 2
Flags: W
LayerCount: 2
Fore
SplineSet
1200 1252 m 1,0,-1
 746 1252 l 1,1,-1
 746 0 l 1,2,-1
 495 0 l 1,3,-1
 495 1252 l 1,4,-1
 45 1252 l 1,5,-1
 45 1456 l 1,6,-1
 1200 1456 l 1,7,-1
 1200 1252 l 1,0,-1
EndSplineSet
Substitution2: "'c2sc' Capitals to Small Capitals lookup 0 subtable" T.c2sc
Position2: "'cpsp' Capital Spacing lookup 0 subtable" dx=36 dy=0 dh=72 dv=0
EndChar

StartChar: U
Encoding: 85 85 57
Width: 1335
GlyphClass: 2
Flags: W
LayerCount: 2
Fore
SplineSet
1213 1456 m 1,0,-1
 1213 483 l 2,1,2
 1213 251 1213 251 1064.5 115.5 c 128,-1,3
 916 -20 916 -20 669 -20 c 0,4,5
 419 -20 419 -20 272 113.5 c 128,-1,6
 125 247 125 247 125 484 c 2,7,-1
 125 1456 l 1,8,-1
 377 1456 l 1,9,-1
 377 482 l 2,10,11
 377 336 377 336 451 259 c 128,-1,12
 525 182 525 182 669 182 c 0,13,14
 961 182 961 182 961 490 c 2,15,-1
 961 1456 l 1,16,-1
 1213 1456 l 1,0,-1
EndSplineSet
Substitution2: "'c2sc' Capitals to Small Capitals lookup 0 subtable" U.c2sc
Position2: "'cpsp' Capital Spacing lookup 0 subtable" dx=36 dy=0 dh=72 dv=0
EndChar

StartChar: V
Encoding: 86 86 58
Width: 1325
GlyphClass: 2
Flags: W
LayerCount: 2
Fore
SplineSet
661 317 m 1,0,-1
 1031 1456 l 1,1,-1
 1309 1456 l 1,2,-1
 785 0 l 1,3,-1
 540 0 l 1,4,-1
 18 1456 l 1,5,-1
 295 1456 l 1,6,-1
 661 317 l 1,0,-1
EndSplineSet
Substitution2: "'c2sc' Capitals to Small Capitals lookup 0 subtable" V.c2sc
Position2: "'cpsp' Capital Spacing lookup 0 subtable" dx=36 dy=0 dh=72 dv=0
EndChar

StartChar: W
Encoding: 87 87 59
Width: 1802
GlyphClass: 2
Flags: W
LayerCount: 2
Fore
SplineSet
1290 360 m 1,0,-1
 1514 1456 l 1,1,-1
 1765 1456 l 1,2,-1
 1429 0 l 1,3,-1
 1187 0 l 1,4,-1
 910 1063 l 1,5,-1
 627 0 l 1,6,-1
 384 0 l 1,7,-1
 48 1456 l 1,8,-1
 299 1456 l 1,9,-1
 525 362 l 1,10,-1
 803 1456 l 1,11,-1
 1015 1456 l 1,12,-1
 1290 360 l 1,0,-1
EndSplineSet
Substitution2: "'c2sc' Capitals to Small Capitals lookup 0 subtable" W.c2sc
Position2: "'cpsp' Capital Spacing lookup 0 subtable" dx=36 dy=0 dh=72 dv=0
EndChar

StartChar: X
Encoding: 88 88 60
Width: 1296
GlyphClass: 2
Flags: W
LayerCount: 2
Fore
SplineSet
649 930 m 1,0,-1
 955 1456 l 1,1,-1
 1247 1456 l 1,2,-1
 807 734 l 1,3,-1
 1257 0 l 1,4,-1
 962 0 l 1,5,-1
 649 534 l 1,6,-1
 335 0 l 1,7,-1
 41 0 l 1,8,-1
 492 734 l 1,9,-1
 51 1456 l 1,10,-1
 343 1456 l 1,11,-1
 649 930 l 1,0,-1
EndSplineSet
Substitution2: "'c2sc' Capitals to Small Capitals lookup 0 subtable" X.c2sc
Position2: "'cpsp' Capital Spacing lookup 0 subtable" dx=36 dy=0 dh=72 dv=0
EndChar

StartChar: Y
Encoding: 89 89 61
Width: 1248
GlyphClass: 2
Flags: W
LayerCount: 2
Fore
SplineSet
623 766 m 1,0,-1
 958 1456 l 1,1,-1
 1238 1456 l 1,2,-1
 750 536 l 1,3,-1
 750 0 l 1,4,-1
 496 0 l 1,5,-1
 496 536 l 1,6,-1
 7 1456 l 1,7,-1
 288 1456 l 1,8,-1
 623 766 l 1,0,-1
EndSplineSet
Substitution2: "'c2sc' Capitals to Small Capitals lookup 0 subtable" Y.c2sc
Position2: "'cpsp' Capital Spacing lookup 0 subtable" dx=36 dy=0 dh=72 dv=0
EndChar

StartChar: Z
Encoding: 90 90 62
Width: 1233
GlyphClass: 2
Flags: W
LayerCount: 2
Fore
SplineSet
386 202 m 1,0,-1
 1164 202 l 1,1,-1
 1164 0 l 1,2,-1
 80 0 l 1,3,-1
 80 164 l 1,4,-1
 833 1252 l 1,5,-1
 85 1252 l 1,6,-1
 85 1456 l 1,7,-1
 1140 1456 l 1,8,-1
 1140 1296 l 1,9,-1
 386 202 l 1,0,-1
EndSplineSet
Substitution2: "'c2sc' Capitals to Small Capitals lookup 0 subtable" Z.c2sc
Position2: "'cpsp' Capital Spacing lookup 0 subtable" dx=36 dy=0 dh=72 dv=0
EndChar

StartChar: bracketleft
Encoding: 91 91 63
Width: 1229
GlyphClass: 1
Flags: HW
LayerCount: 2
Fore
SplineSet
837 1491 m 1,0,-1
 837 1679 l 1,1,-1
 411 1679 l 1,2,-1
 411 -325 l 1,3,-1
 837 -325 l 1,4,-1
 837 -137 l 1,5,-1
 645 -137 l 1,6,-1
 645 1491 l 1,7,-1
 837 1491 l 1,0,-1
EndSplineSet
EndChar

StartChar: backslash
Encoding: 92 92 64
Width: 1229
GlyphClass: 1
Flags: HW
LayerCount: 2
Fore
SplineSet
236 1456 m 1,0,-1
 808 -125 l 1,1,-1
 1029 -125 l 1,2,-1
 457 1456 l 1,3,-1
 236 1456 l 1,0,-1
EndSplineSet
EndChar

StartChar: bracketright
Encoding: 93 93 65
Width: 1229
GlyphClass: 1
Flags: HW
LayerCount: 2
Fore
SplineSet
402 1679 m 1,0,-1
 402 1491 l 1,1,-1
 595 1491 l 1,2,-1
 595 -137 l 1,3,-1
 402 -137 l 1,4,-1
 402 -325 l 1,5,-1
 829 -325 l 1,6,-1
 829 1679 l 1,7,-1
 402 1679 l 1,0,-1
EndSplineSet
EndChar

StartChar: asciicircum
Encoding: 94 94 66
Width: 1229
GlyphClass: 1
Flags: HW
LayerCount: 2
Fore
SplineSet
221 683 m 1,0,-1
 423 683 l 1,1,-1
 605 1150 l 1,2,-1
 623 1228 l 1,3,-1
 642 1150 l 1,4,-1
 827 683 l 1,5,-1
 1028 683 l 1,6,-1
 710 1456 l 1,7,-1
 540 1456 l 1,8,-1
 221 683 l 1,0,-1
EndSplineSet
EndChar

StartChar: underscore
Encoding: 95 95 67
Width: 1229
GlyphClass: 1
Flags: HW
LayerCount: 2
Fore
SplineSet
1065 -189 m 1,0,-1
 1065 0 l 1,1,-1
 151 0 l 1,2,-1
 151 -189 l 1,3,-1
 1065 -189 l 1,0,-1
EndSplineSet
EndChar

StartChar: grave
Encoding: 96 96 68
Width: 1229
GlyphClass: 1
Flags: HW
LayerCount: 2
Fore
SplineSet
860 1206 m 1,0,-1
 684 1479 l 1,1,-1
 413 1479 l 1,2,-1
 670 1206 l 1,3,-1
 860 1206 l 1,0,-1
EndSplineSet
EndChar

StartChar: a
Encoding: 97 97 69
Width: 1108
GlyphClass: 2
Flags: W
LayerCount: 2
Fore
SplineSet
771 0 m 1,0,1
 755 31 755 31 743 101 c 1,2,3
 627 -20 627 -20 459 -20 c 0,4,5
 296 -20 296 -20 193 73 c 128,-1,6
 90 166 90 166 90 303 c 0,7,8
 90 476 90 476 218.5 568.5 c 128,-1,9
 347 661 347 661 586 661 c 2,10,-1
 735 661 l 1,11,-1
 735 732 l 2,12,13
 735 816 735 816 688 866.5 c 128,-1,14
 641 917 641 917 545 917 c 0,15,16
 462 917 462 917 409 875.5 c 128,-1,17
 356 834 356 834 356 770 c 1,18,-1
 113 770 l 1,19,20
 113 859 113 859 172 936.5 c 128,-1,21
 231 1014 231 1014 332.5 1058 c 128,-1,22
 434 1102 434 1102 559 1102 c 0,23,24
 749 1102 749 1102 862 1006.5 c 128,-1,25
 975 911 975 911 978 738 c 2,26,-1
 978 250 l 2,27,28
 978 104 978 104 1019 17 c 1,29,-1
 1019 0 l 1,30,-1
 771 0 l 1,0,1
504 175 m 0,31,32
 576 175 576 175 639.5 210 c 128,-1,33
 703 245 703 245 735 304 c 1,34,-1
 735 508 l 1,35,-1
 604 508 l 2,36,37
 469 508 469 508 401 461 c 128,-1,38
 333 414 333 414 333 328 c 0,39,40
 333 258 333 258 379.5 216.5 c 128,-1,41
 426 175 426 175 504 175 c 0,31,32
EndSplineSet
Substitution2: "'smcp' Lowercase to Small Capitals lookup 1 subtable" A.c2sc
EndChar

StartChar: b
Encoding: 98 98 70
Width: 1153
GlyphClass: 2
Flags: W
LayerCount: 2
Fore
SplineSet
1074 530 m 2,0,1
 1074 278 1074 278 961.5 129 c 128,-1,2
 849 -20 849 -20 652 -20 c 0,3,4
 462 -20 462 -20 356 117 c 1,5,-1
 344 0 l 1,6,-1
 124 0 l 1,7,-1
 124 1536 l 1,8,-1
 367 1536 l 1,9,-1
 367 978 l 1,10,11
 472 1102 472 1102 650 1102 c 0,12,13
 848 1102 848 1102 961 955 c 128,-1,14
 1074 808 1074 808 1074 544 c 2,15,-1
 1074 530 l 2,0,1
831 551 m 2,16,17
 831 727 831 727 769 815 c 128,-1,18
 707 903 707 903 589 903 c 0,19,20
 431 903 431 903 367 765 c 1,21,-1
 367 319 l 1,22,23
 432 178 432 178 591 178 c 0,24,25
 705 178 705 178 767 263 c 128,-1,26
 829 348 829 348 831 520 c 2,27,-1
 831 551 l 2,16,17
EndSplineSet
Substitution2: "'ss06' Style Set 6 lookup 16 subtable" b.ss06
Substitution2: "'smcp' Lowercase to Small Capitals lookup 1 subtable" B.c2sc
EndChar

StartChar: c
Encoding: 99 99 71
Width: 1072
GlyphClass: 2
Flags: W
LayerCount: 2
Fore
SplineSet
569 174 m 0,0,1
 660 174 660 174 720 227 c 128,-1,2
 780 280 780 280 784 358 c 1,3,-1
 1013 358 l 1,4,5
 1009 257 1009 257 950 169.5 c 128,-1,6
 891 82 891 82 790 31 c 128,-1,7
 689 -20 689 -20 572 -20 c 0,8,9
 345 -20 345 -20 212 127 c 128,-1,10
 79 274 79 274 79 533 c 2,11,-1
 79 558 l 2,12,13
 79 805 79 805 211 953.5 c 128,-1,14
 343 1102 343 1102 571 1102 c 0,15,16
 764 1102 764 1102 885.5 989.5 c 128,-1,17
 1007 877 1007 877 1013 694 c 1,18,-1
 784 694 l 1,19,20
 780 787 780 787 720.5 847 c 128,-1,21
 661 907 661 907 569 907 c 0,22,23
 451 907 451 907 387 821.5 c 128,-1,24
 323 736 323 736 322 562 c 2,25,-1
 322 523 l 2,26,27
 322 347 322 347 385.5 260.5 c 128,-1,28
 449 174 449 174 569 174 c 0,0,1
EndSplineSet
Substitution2: "'ss06' Style Set 6 lookup 16 subtable" c.ss06
Substitution2: "'smcp' Lowercase to Small Capitals lookup 1 subtable" C.c2sc
EndChar

StartChar: d
Encoding: 100 100 72
Width: 1156
GlyphClass: 2
Flags: W
LayerCount: 2
Fore
SplineSet
79 549 m 0,0,1
 79 799 79 799 195 950.5 c 128,-1,2
 311 1102 311 1102 506 1102 c 0,3,4
 678 1102 678 1102 784 982 c 1,5,-1
 784 1536 l 1,6,-1
 1027 1536 l 1,7,-1
 1027 0 l 1,8,-1
 807 0 l 1,9,-1
 795 112 l 1,10,11
 686 -20 686 -20 504 -20 c 0,12,13
 314 -20 314 -20 196.5 133 c 128,-1,14
 79 286 79 286 79 549 c 0,0,1
322 528 m 0,15,16
 322 363 322 363 385.5 270.5 c 128,-1,17
 449 178 449 178 566 178 c 0,18,19
 715 178 715 178 784 311 c 1,20,-1
 784 773 l 1,21,22
 717 903 717 903 568 903 c 0,23,24
 450 903 450 903 386 809.5 c 128,-1,25
 322 716 322 716 322 528 c 0,15,16
EndSplineSet
Substitution2: "'ss06' Style Set 6 lookup 16 subtable" d.ss06
Substitution2: "'smcp' Lowercase to Small Capitals lookup 1 subtable" D.c2sc
EndChar

StartChar: e
Encoding: 101 101 73
Width: 1099
GlyphClass: 2
Flags: W
LayerCount: 2
Fore
SplineSet
601 -20 m 0,0,1
 370 -20 370 -20 226.5 125.5 c 128,-1,2
 83 271 83 271 83 513 c 2,3,-1
 83 543 l 2,4,5
 83 705 83 705 145.5 832.5 c 128,-1,6
 208 960 208 960 321 1031 c 128,-1,7
 434 1102 434 1102 573 1102 c 0,8,9
 794 1102 794 1102 914.5 961 c 128,-1,10
 1035 820 1035 820 1035 562 c 2,11,-1
 1035 464 l 1,12,-1
 328 464 l 1,13,14
 339 330 339 330 417.5 252 c 128,-1,15
 496 174 496 174 615 174 c 0,16,17
 782 174 782 174 887 309 c 1,18,-1
 1018 184 l 1,19,20
 953 87 953 87 844.5 33.5 c 128,-1,21
 736 -20 736 -20 601 -20 c 0,0,1
572 907 m 0,22,23
 472 907 472 907 410.5 837 c 128,-1,24
 349 767 349 767 332 642 c 1,25,-1
 795 642 l 1,26,-1
 795 660 l 1,27,28
 787 782 787 782 730 844.5 c 128,-1,29
 673 907 673 907 572 907 c 0,22,23
EndSplineSet
Substitution2: "'ss07' Style Set 7 lookup 17 subtable" e.ss07
Substitution2: "'smcp' Lowercase to Small Capitals lookup 1 subtable" E.c2sc
EndChar

StartChar: f
Encoding: 102 102 74
Width: 726
GlyphClass: 2
Flags: W
LayerCount: 2
Fore
SplineSet
210 0 m 1,0,-1
 210 902 l 1,1,-1
 45 902 l 1,2,-1
 45 1082 l 1,3,-1
 210 1082 l 1,4,-1
 210 1181 l 2,5,6
 210 1361 210 1361 310 1459 c 128,-1,7
 410 1557 410 1557 590 1557 c 0,8,9
 654 1557 654 1557 726 1539 c 1,10,-1
 720 1349 l 1,11,12
 680 1357 680 1357 627 1357 c 0,13,14
 453 1357 453 1357 453 1178 c 2,15,-1
 453 1082 l 1,16,-1
 673 1082 l 1,17,-1
 673 902 l 1,18,-1
 453 902 l 1,19,-1
 453 0 l 1,20,-1
 210 0 l 1,0,-1
EndSplineSet
Substitution2: "'smcp' Lowercase to Small Capitals lookup 1 subtable" F.c2sc
EndChar

StartChar: g
Encoding: 103 103 75
Width: 1161
GlyphClass: 2
Flags: W
LayerCount: 2
Fore
SplineSet
82 549 m 0,0,1
 82 801 82 801 200.5 951.5 c 128,-1,2
 319 1102 319 1102 515 1102 c 0,3,4
 700 1102 700 1102 806 973 c 1,5,-1
 817 1082 l 1,6,-1
 1036 1082 l 1,7,-1
 1036 33 l 2,8,9
 1036 -180 1036 -180 903.5 -303 c 128,-1,10
 771 -426 771 -426 546 -426 c 0,11,12
 427 -426 427 -426 313.5 -376.5 c 128,-1,13
 200 -327 200 -327 141 -247 c 1,14,-1
 256 -101 l 1,15,16
 368 -234 368 -234 532 -234 c 0,17,18
 653 -234 653 -234 723 -168.5 c 128,-1,19
 793 -103 793 -103 793 24 c 2,20,-1
 793 97 l 1,21,22
 688 -20 688 -20 513 -20 c 0,23,24
 323 -20 323 -20 202.5 131 c 128,-1,25
 82 282 82 282 82 549 c 0,0,1
324 528 m 0,26,27
 324 365 324 365 390.5 271.5 c 128,-1,28
 457 178 457 178 575 178 c 0,29,30
 722 178 722 178 793 304 c 1,31,-1
 793 780 l 1,32,33
 724 903 724 903 577 903 c 0,34,35
 457 903 457 903 390.5 808 c 128,-1,36
 324 713 324 713 324 528 c 0,26,27
EndSplineSet
Substitution2: "'ss07' Style Set 7 lookup 17 subtable" g.ss07
Substitution2: "'ss06' Style Set 6 lookup 16 subtable" g.ss06
Substitution2: "'ss01' Style Set 1 lookup 11 subtable" g.ss01
Substitution2: "'smcp' Lowercase to Small Capitals lookup 1 subtable" G.c2sc
EndChar

StartChar: h
Encoding: 104 104 76
Width: 1137
GlyphClass: 2
Flags: W
LayerCount: 2
Fore
SplineSet
364 964 m 1,0,1
 483 1102 483 1102 665 1102 c 0,2,3
 1011 1102 1011 1102 1016 707 c 1,4,-1
 1016 0 l 1,5,-1
 773 0 l 1,6,-1
 773 698 l 2,7,8
 773 810 773 810 724.5 856.5 c 128,-1,9
 676 903 676 903 582 903 c 0,10,11
 436 903 436 903 364 773 c 1,12,-1
 364 0 l 1,13,-1
 121 0 l 1,14,-1
 121 1536 l 1,15,-1
 364 1536 l 1,16,-1
 364 964 l 1,0,1
EndSplineSet
Substitution2: "'smcp' Lowercase to Small Capitals lookup 1 subtable" H.c2sc
EndChar

StartChar: i
Encoding: 105 105 77
Width: 523
GlyphClass: 2
Flags: W
LayerCount: 2
Fore
SplineSet
383 0 m 1,0,-1
 140 0 l 1,1,-1
 140 1082 l 1,2,-1
 383 1082 l 1,3,-1
 383 0 l 1,0,-1
125 1363 m 0,4,5
 125 1419 125 1419 160.5 1456 c 128,-1,6
 196 1493 196 1493 262 1493 c 128,-1,7
 328 1493 328 1493 364 1456 c 128,-1,8
 400 1419 400 1419 400 1363 c 0,9,10
 400 1308 400 1308 364 1271.5 c 128,-1,11
 328 1235 328 1235 262 1235 c 128,-1,12
 196 1235 196 1235 160.5 1271.5 c 128,-1,13
 125 1308 125 1308 125 1363 c 0,4,5
EndSplineSet
Substitution2: "Single Substitution lookup 3 subtable" glyph609
Substitution2: "'smcp' Lowercase to Small Capitals lookup 1 subtable" I.c2sc
EndChar

StartChar: j
Encoding: 106 106 78
Width: 513
GlyphClass: 2
Flags: W
LayerCount: 2
Fore
SplineSet
378 1082 m 1,0,-1
 378 -96 l 2,1,2
 378 -262 378 -262 295.5 -349.5 c 128,-1,3
 213 -437 213 -437 54 -437 c 0,4,5
 -13 -437 -13 -437 -75 -420 c 1,6,-1
 -75 -228 l 1,7,8
 -37 -237 -37 -237 11 -237 c 0,9,10
 132 -237 132 -237 135 -105 c 2,11,-1
 135 1082 l 1,12,-1
 378 1082 l 1,0,-1
114 1363 m 0,13,14
 114 1419 114 1419 149.5 1456 c 128,-1,15
 185 1493 185 1493 251 1493 c 128,-1,16
 317 1493 317 1493 353 1456 c 128,-1,17
 389 1419 389 1419 389 1363 c 0,18,19
 389 1308 389 1308 353 1271.5 c 128,-1,20
 317 1235 317 1235 251 1235 c 128,-1,21
 185 1235 185 1235 149.5 1271.5 c 128,-1,22
 114 1308 114 1308 114 1363 c 0,13,14
EndSplineSet
Substitution2: "Single Substitution lookup 3 subtable" glyph607
Substitution2: "'smcp' Lowercase to Small Capitals lookup 1 subtable" J.c2sc
EndChar

StartChar: k
Encoding: 107 107 79
Width: 1069
GlyphClass: 2
Flags: W
LayerCount: 2
Fore
SplineSet
476 464 m 1,0,-1
 368 353 l 1,1,-1
 368 0 l 1,2,-1
 125 0 l 1,3,-1
 125 1536 l 1,4,-1
 368 1536 l 1,5,-1
 368 650 l 1,6,-1
 444 745 l 1,7,-1
 743 1082 l 1,8,-1
 1035 1082 l 1,9,-1
 633 631 l 1,10,-1
 1078 0 l 1,11,-1
 797 0 l 1,12,-1
 476 464 l 1,0,-1
EndSplineSet
Substitution2: "'ss05' Style Set 5 lookup 15 subtable" k.ss05
Substitution2: "'ss04' Style Set 4 lookup 14 subtable" k.ss04
Substitution2: "'smcp' Lowercase to Small Capitals lookup 1 subtable" K.c2sc
EndChar

StartChar: l
Encoding: 108 108 80
Width: 523
GlyphClass: 2
Flags: W
LayerCount: 2
Fore
SplineSet
383 0 m 1,0,-1
 140 0 l 1,1,-1
 140 1536 l 1,2,-1
 383 1536 l 1,3,-1
 383 0 l 1,0,-1
EndSplineSet
Substitution2: "'smcp' Lowercase to Small Capitals lookup 1 subtable" L.c2sc
EndChar

StartChar: m
Encoding: 109 109 81
Width: 1782
GlyphClass: 2
Flags: W
LayerCount: 2
Fore
SplineSet
353 1082 m 1,0,-1
 360 969 l 1,1,2
 474 1102 474 1102 672 1102 c 0,3,4
 889 1102 889 1102 969 936 c 1,5,6
 1087 1102 1087 1102 1301 1102 c 0,7,8
 1480 1102 1480 1102 1567.5 1003 c 128,-1,9
 1655 904 1655 904 1657 711 c 2,10,-1
 1657 0 l 1,11,-1
 1414 0 l 1,12,-1
 1414 704 l 2,13,14
 1414 807 1414 807 1369 855 c 128,-1,15
 1324 903 1324 903 1220 903 c 0,16,17
 1137 903 1137 903 1084.5 858.5 c 128,-1,18
 1032 814 1032 814 1011 742 c 1,19,-1
 1012 0 l 1,20,-1
 769 0 l 1,21,-1
 769 712 l 1,22,23
 764 903 764 903 574 903 c 0,24,25
 428 903 428 903 367 784 c 1,26,-1
 367 0 l 1,27,-1
 124 0 l 1,28,-1
 124 1082 l 1,29,-1
 353 1082 l 1,0,-1
EndSplineSet
Substitution2: "'smcp' Lowercase to Small Capitals lookup 1 subtable" M.c2sc
EndChar

StartChar: n
Encoding: 110 110 82
Width: 1139
GlyphClass: 2
Flags: W
LayerCount: 2
Fore
SplineSet
350 1082 m 1,0,-1
 357 957 l 1,1,2
 477 1102 477 1102 672 1102 c 0,3,4
 1010 1102 1010 1102 1016 715 c 1,5,-1
 1016 0 l 1,6,-1
 773 0 l 1,7,-1
 773 701 l 2,8,9
 773 804 773 804 728.5 853.5 c 128,-1,10
 684 903 684 903 583 903 c 0,11,12
 436 903 436 903 364 770 c 1,13,-1
 364 0 l 1,14,-1
 121 0 l 1,15,-1
 121 1082 l 1,16,-1
 350 1082 l 1,0,-1
EndSplineSet
Substitution2: "'smcp' Lowercase to Small Capitals lookup 1 subtable" N.c2sc
EndChar

StartChar: o
Encoding: 111 111 83
Width: 1166
GlyphClass: 2
Flags: W
LayerCount: 2
Fore
SplineSet
79 551 m 2,0,1
 79 710 79 710 142 837.5 c 128,-1,2
 205 965 205 965 319 1033.5 c 128,-1,3
 433 1102 433 1102 581 1102 c 0,4,5
 800 1102 800 1102 936.5 961 c 128,-1,6
 1073 820 1073 820 1084 587 c 1,7,-1
 1085 530 l 2,8,9
 1085 370 1085 370 1023.5 244 c 128,-1,10
 962 118 962 118 847.5 49 c 128,-1,11
 733 -20 733 -20 583 -20 c 0,12,13
 354 -20 354 -20 216.5 132.5 c 128,-1,14
 79 285 79 285 79 539 c 2,15,-1
 79 551 l 2,0,1
322 530 m 0,16,17
 322 363 322 363 391 268.5 c 128,-1,18
 460 174 460 174 583 174 c 128,-1,19
 706 174 706 174 774.5 270 c 128,-1,20
 843 366 843 366 843 551 c 0,21,22
 843 715 843 715 772.5 811 c 128,-1,23
 702 907 702 907 581 907 c 0,24,25
 462 907 462 907 392 812.5 c 128,-1,26
 322 718 322 718 322 530 c 0,16,17
EndSplineSet
Substitution2: "'ss06' Style Set 6 lookup 16 subtable" o.ss06
Substitution2: "'smcp' Lowercase to Small Capitals lookup 1 subtable" O.c2sc
EndChar

StartChar: p
Encoding: 112 112 84
Width: 1153
GlyphClass: 2
Flags: W
LayerCount: 2
Fore
SplineSet
1072 530 m 2,0,1
 1072 279 1072 279 958 129.5 c 128,-1,2
 844 -20 844 -20 652 -20 c 0,3,4
 474 -20 474 -20 367 97 c 1,5,-1
 367 -416 l 1,6,-1
 124 -416 l 1,7,-1
 124 1082 l 1,8,-1
 348 1082 l 1,9,-1
 358 972 l 1,10,11
 465 1102 465 1102 649 1102 c 0,12,13
 847 1102 847 1102 959.5 954.5 c 128,-1,14
 1072 807 1072 807 1072 545 c 2,15,-1
 1072 530 l 2,0,1
830 551 m 0,16,17
 830 713 830 713 765.5 808 c 128,-1,18
 701 903 701 903 581 903 c 0,19,20
 432 903 432 903 367 780 c 1,21,-1
 367 300 l 1,22,23
 433 174 433 174 583 174 c 0,24,25
 699 174 699 174 764.5 267.5 c 128,-1,26
 830 361 830 361 830 551 c 0,16,17
EndSplineSet
Substitution2: "'ss06' Style Set 6 lookup 16 subtable" p.ss06
Substitution2: "'smcp' Lowercase to Small Capitals lookup 1 subtable" P.c2sc
EndChar

StartChar: q
Encoding: 113 113 85
Width: 1163
GlyphClass: 2
Flags: W
LayerCount: 2
Fore
SplineSet
79 550 m 0,0,1
 79 804 79 804 195 953 c 128,-1,2
 311 1102 311 1102 509 1102 c 0,3,4
 690 1102 690 1102 796 975 c 1,5,-1
 810 1082 l 1,6,-1
 1026 1082 l 1,7,-1
 1026 -416 l 1,8,-1
 783 -416 l 1,9,-1
 783 92 l 1,10,11
 677 -20 677 -20 507 -20 c 0,12,13
 313 -20 313 -20 196 131.5 c 128,-1,14
 79 283 79 283 79 550 c 0,0,1
322 529 m 0,15,16
 322 363 322 363 387.5 268.5 c 128,-1,17
 453 174 453 174 569 174 c 0,18,19
 713 174 713 174 783 297 c 1,20,-1
 783 789 l 1,21,22
 713 907 713 907 571 907 c 0,23,24
 455 907 455 907 388.5 814 c 128,-1,25
 322 721 322 721 322 529 c 0,15,16
EndSplineSet
Substitution2: "'ss06' Style Set 6 lookup 16 subtable" q.ss06
Substitution2: "'smcp' Lowercase to Small Capitals lookup 1 subtable" Q.c2sc
EndChar

StartChar: r
Encoding: 114 114 86
Width: 720
GlyphClass: 2
Flags: W
LayerCount: 2
Fore
SplineSet
691 860 m 1,0,1
 643 868 643 868 592 868 c 0,2,3
 425 868 425 868 367 740 c 1,4,-1
 367 0 l 1,5,-1
 124 0 l 1,6,-1
 124 1082 l 1,7,-1
 356 1082 l 1,8,-1
 362 961 l 1,9,10
 450 1102 450 1102 606 1102 c 0,11,12
 658 1102 658 1102 692 1088 c 1,13,-1
 691 860 l 1,0,1
EndSplineSet
Substitution2: "'smcp' Lowercase to Small Capitals lookup 1 subtable" R.c2sc
EndChar

StartChar: s
Encoding: 115 115 87
Width: 1057
GlyphClass: 2
Flags: W
LayerCount: 2
Fore
SplineSet
731 294 m 0,0,1
 731 359 731 359 677.5 393 c 128,-1,2
 624 427 624 427 500 453 c 128,-1,3
 376 479 376 479 293 519 c 0,4,5
 111 607 111 607 111 774 c 0,6,7
 111 914 111 914 229 1008 c 128,-1,8
 347 1102 347 1102 529 1102 c 0,9,10
 723 1102 723 1102 842.5 1006 c 128,-1,11
 962 910 962 910 962 757 c 1,12,-1
 719 757 l 1,13,14
 719 827 719 827 667 873.5 c 128,-1,15
 615 920 615 920 529 920 c 0,16,17
 449 920 449 920 398.5 883 c 128,-1,18
 348 846 348 846 348 784 c 0,19,20
 348 728 348 728 395 697 c 128,-1,21
 442 666 442 666 585 634.5 c 128,-1,22
 728 603 728 603 809.5 559.5 c 128,-1,23
 891 516 891 516 930.5 455 c 128,-1,24
 970 394 970 394 970 307 c 0,25,26
 970 161 970 161 849 70.5 c 128,-1,27
 728 -20 728 -20 532 -20 c 0,28,29
 399 -20 399 -20 295 28 c 128,-1,30
 191 76 191 76 133 160 c 128,-1,31
 75 244 75 244 75 341 c 1,32,-1
 311 341 l 1,33,34
 316 255 316 255 376 208.5 c 128,-1,35
 436 162 436 162 535 162 c 0,36,37
 631 162 631 162 681 198.5 c 128,-1,38
 731 235 731 235 731 294 c 0,0,1
EndSplineSet
Substitution2: "'smcp' Lowercase to Small Capitals lookup 1 subtable" S.c2sc
EndChar

StartChar: t
Encoding: 116 116 88
Width: 681
GlyphClass: 2
Flags: W
LayerCount: 2
Fore
SplineSet
429 1345 m 1,0,-1
 429 1082 l 1,1,-1
 620 1082 l 1,2,-1
 620 902 l 1,3,-1
 429 902 l 1,4,-1
 429 298 l 2,5,6
 429 236 429 236 453.5 208.5 c 128,-1,7
 478 181 478 181 541 181 c 0,8,9
 583 181 583 181 626 191 c 1,10,-1
 626 3 l 1,11,12
 543 -20 543 -20 466 -20 c 0,13,14
 186 -20 186 -20 186 289 c 2,15,-1
 186 902 l 1,16,-1
 8 902 l 1,17,-1
 8 1082 l 1,18,-1
 186 1082 l 1,19,-1
 186 1345 l 1,20,-1
 429 1345 l 1,0,-1
EndSplineSet
Substitution2: "'smcp' Lowercase to Small Capitals lookup 1 subtable" T.c2sc
EndChar

StartChar: u
Encoding: 117 117 89
Width: 1138
GlyphClass: 2
Flags: W
LayerCount: 2
Fore
SplineSet
780 106 m 1,0,1
 673 -20 673 -20 476 -20 c 0,2,3
 300 -20 300 -20 209.5 83 c 128,-1,4
 119 186 119 186 119 381 c 2,5,-1
 119 1082 l 1,6,-1
 362 1082 l 1,7,-1
 362 384 l 2,8,9
 362 178 362 178 533 178 c 0,10,11
 710 178 710 178 772 305 c 1,12,-1
 772 1082 l 1,13,-1
 1015 1082 l 1,14,-1
 1015 0 l 1,15,-1
 786 0 l 1,16,-1
 780 106 l 1,0,1
EndSplineSet
Substitution2: "'smcp' Lowercase to Small Capitals lookup 1 subtable" U.c2sc
EndChar

StartChar: v
Encoding: 118 118 90
Width: 1013
GlyphClass: 2
Flags: W
LayerCount: 2
Fore
SplineSet
506 308 m 1,0,-1
 735 1082 l 1,1,-1
 986 1082 l 1,2,-1
 611 0 l 1,3,-1
 400 0 l 1,4,-1
 22 1082 l 1,5,-1
 274 1082 l 1,6,-1
 506 308 l 1,0,-1
EndSplineSet
Substitution2: "'smcp' Lowercase to Small Capitals lookup 1 subtable" V.c2sc
EndChar

StartChar: w
Encoding: 119 119 91
Width: 1522
GlyphClass: 2
Flags: W
LayerCount: 2
Fore
SplineSet
1075 335 m 1,0,-1
 1247 1082 l 1,1,-1
 1484 1082 l 1,2,-1
 1189 0 l 1,3,-1
 989 0 l 1,4,-1
 757 743 l 1,5,-1
 529 0 l 1,6,-1
 329 0 l 1,7,-1
 33 1082 l 1,8,-1
 270 1082 l 1,9,-1
 445 343 l 1,10,-1
 667 1082 l 1,11,-1
 850 1082 l 1,12,-1
 1075 335 l 1,0,-1
EndSplineSet
Substitution2: "'smcp' Lowercase to Small Capitals lookup 1 subtable" W.c2sc
EndChar

StartChar: x
Encoding: 120 120 92
Width: 1030
GlyphClass: 2
Flags: W
LayerCount: 2
Fore
SplineSet
513 726 m 1,0,-1
 719 1082 l 1,1,-1
 989 1082 l 1,2,-1
 658 549 l 1,3,-1
 1000 0 l 1,4,-1
 732 0 l 1,5,-1
 516 370 l 1,6,-1
 301 0 l 1,7,-1
 31 0 l 1,8,-1
 373 549 l 1,9,-1
 43 1082 l 1,10,-1
 311 1082 l 1,11,-1
 513 726 l 1,0,-1
EndSplineSet
Substitution2: "'smcp' Lowercase to Small Capitals lookup 1 subtable" X.c2sc
EndChar

StartChar: y
Encoding: 121 121 93
Width: 997
GlyphClass: 2
Flags: W
LayerCount: 2
Fore
SplineSet
503 348 m 1,0,-1
 723 1082 l 1,1,-1
 982 1082 l 1,2,-1
 552 -164 l 1,3,4
 453 -437 453 -437 216 -437 c 0,5,6
 163 -437 163 -437 99 -419 c 1,7,-1
 99 -231 l 1,8,-1
 145 -234 l 1,9,10
 237 -234 237 -234 283.5 -200.5 c 128,-1,11
 330 -167 330 -167 357 -88 c 2,12,-1
 392 5 l 1,13,-1
 12 1082 l 1,14,-1
 274 1082 l 1,15,-1
 503 348 l 1,0,-1
EndSplineSet
Substitution2: "'smcp' Lowercase to Small Capitals lookup 1 subtable" Y.c2sc
EndChar

StartChar: z
Encoding: 122 122 94
Width: 1030
GlyphClass: 2
Flags: W
LayerCount: 2
Fore
SplineSet
384 194 m 1,0,-1
 960 194 l 1,1,-1
 960 0 l 1,2,-1
 82 0 l 1,3,-1
 82 159 l 1,4,-1
 631 886 l 1,5,-1
 92 886 l 1,6,-1
 92 1082 l 1,7,-1
 939 1082 l 1,8,-1
 939 928 l 1,9,-1
 384 194 l 1,0,-1
EndSplineSet
Substitution2: "'smcp' Lowercase to Small Capitals lookup 1 subtable" Z.c2sc
EndChar

StartChar: braceleft
Encoding: 123 123 95
Width: 1229
GlyphClass: 1
Flags: HW
LayerCount: 2
Fore
SplineSet
956 -363 m 1,0,-1
 984 -223 l 1,1,2
 929 -223 929 -223 894 -193.5 c 128,-1,3
 859 -164 859 -164 838 -117 c 256,4,5
 817 -70 817 -70 809.5 -12 c 128,-1,6
 802 46 802 46 802 103 c 2,7,-1
 802 269 l 2,8,9
 801 388 801 388 744.5 478.5 c 128,-1,10
 688 569 688 569 567 616 c 1,11,12
 687 664 687 664 744.5 755.5 c 128,-1,13
 802 847 802 847 802 966 c 2,14,-1
 802 1132 l 2,15,16
 802 1189 802 1189 805.5 1247 c 128,-1,17
 809 1305 809 1305 827 1352 c 256,18,19
 845 1399 845 1399 882 1428.5 c 128,-1,20
 919 1458 919 1458 984 1458 c 1,21,-1
 956 1597 l 1,22,23
 857 1596 857 1596 786.5 1557.5 c 128,-1,24
 716 1519 716 1519 673 1458 c 0,25,26
 623 1391 623 1391 600 1303 c 128,-1,27
 577 1215 577 1215 577 1132 c 2,28,-1
 577 966 l 2,29,30
 577 827 577 827 512.5 766 c 128,-1,31
 448 705 448 705 315 705 c 1,32,-1
 315 528 l 1,33,34
 448 528 448 528 512.5 467 c 128,-1,35
 577 406 577 406 577 269 c 2,36,-1
 577 103 l 2,37,38
 577 24 577 24 599 -58.5 c 128,-1,39
 621 -141 621 -141 668 -208 c 0,40,41
 714 -276 714 -276 786 -318.5 c 128,-1,42
 858 -361 858 -361 956 -363 c 1,0,-1
EndSplineSet
EndChar

StartChar: bar
Encoding: 124 124 96
Width: 1229
GlyphClass: 1
Flags: HW
LayerCount: 2
Fore
SplineSet
699 -405 m 1,0,-1
 699 1456 l 1,1,-1
 536 1456 l 1,2,-1
 536 -405 l 1,3,-1
 699 -405 l 1,0,-1
EndSplineSet
EndChar

StartChar: braceright
Encoding: 125 125 97
Width: 1229
GlyphClass: 1
Flags: HW
LayerCount: 2
Fore
SplineSet
328 -223 m 1,0,-1
 357 -363 l 1,1,2
 455 -362 455 -362 527 -319 c 128,-1,3
 599 -276 599 -276 645 -208 c 0,4,5
 690 -142 690 -142 713 -59 c 128,-1,6
 736 24 736 24 736 103 c 2,7,-1
 736 269 l 2,8,9
 736 325 736 325 747 368.5 c 128,-1,10
 758 412 758 412 780 442 c 0,11,12
 811 487 811 487 865 507.5 c 128,-1,13
 919 528 919 528 998 528 c 1,14,-1
 998 705 l 1,15,16
 920 705 920 705 865 725.5 c 128,-1,17
 810 746 810 746 780 789 c 0,18,19
 757 820 757 820 746.5 864 c 128,-1,20
 736 908 736 908 736 966 c 2,21,-1
 736 1132 l 2,22,23
 736 1211 736 1211 715.5 1294.5 c 128,-1,24
 695 1378 695 1378 648 1445 c 0,25,26
 603 1513 603 1513 531.5 1554.5 c 128,-1,27
 460 1596 460 1596 357 1597 c 1,28,-1
 329 1458 l 1,29,30
 394 1458 394 1458 431 1428.5 c 128,-1,31
 468 1399 468 1399 486 1352 c 0,32,33
 503 1305 503 1305 507.5 1247 c 128,-1,34
 512 1189 512 1189 512 1132 c 2,35,-1
 512 966 l 2,36,37
 512 893 512 893 532.5 829.5 c 128,-1,38
 553 766 553 766 596 716 c 0,39,40
 623 685 623 685 658.5 659.5 c 128,-1,41
 694 634 694 634 738 616 c 1,42,43
 688 595 688 595 649.5 565.5 c 128,-1,44
 611 536 611 536 584 499 c 0,45,46
 547 452 547 452 529.5 393.5 c 128,-1,47
 512 335 512 335 512 269 c 2,48,-1
 512 103 l 2,49,50
 512 46 512 46 503.5 -12 c 128,-1,51
 495 -70 495 -70 474 -117 c 256,52,53
 453 -164 453 -164 417.5 -193.5 c 128,-1,54
 382 -223 382 -223 328 -223 c 1,0,-1
EndSplineSet
EndChar

StartChar: asciitilde
Encoding: 126 126 98
Width: 1229
GlyphClass: 1
Flags: HW
LayerCount: 2
Fore
SplineSet
1159 747 m 1,0,-1
 994 766 l 1,1,2
 994 732 994 732 982 700 c 128,-1,3
 970 668 970 668 950 644 c 0,4,5
 930 619 930 619 903.5 604 c 128,-1,6
 877 589 877 589 847 589 c 0,7,8
 821 589 821 589 796.5 595 c 128,-1,9
 772 601 772 601 748 613 c 0,10,11
 725 625 725 625 701.5 641.5 c 128,-1,12
 678 658 678 658 652 679 c 0,13,14
 615 711 615 711 578.5 736.5 c 128,-1,15
 542 762 542 762 504 778 c 0,16,17
 466 796 466 796 425 805.5 c 128,-1,18
 384 815 384 815 339 815 c 0,19,20
 271 815 271 815 215 788 c 128,-1,21
 159 761 159 761 120 714 c 0,22,23
 79 667 79 667 57 602.5 c 128,-1,24
 35 538 35 538 35 464 c 1,25,-1
 196 444 l 1,26,27
 196 478 196 478 208 509 c 128,-1,28
 220 540 220 540 241 563 c 0,29,30
 261 586 261 586 288.5 600 c 128,-1,31
 316 614 316 614 346 614 c 0,32,33
 370 614 370 614 393 609 c 128,-1,34
 416 604 416 604 438 593 c 0,35,36
 464 582 464 582 490 564.5 c 128,-1,37
 516 547 516 547 543 525 c 0,38,39
 582 490 582 490 618.5 464.5 c 128,-1,40
 655 439 655 439 693 422 c 0,41,42
 730 405 730 405 769.5 396.5 c 128,-1,43
 809 388 809 388 854 388 c 0,44,45
 922 388 922 388 978 416 c 128,-1,46
 1034 444 1034 444 1075 493 c 0,47,48
 1115 541 1115 541 1137 606.5 c 128,-1,49
 1159 672 1159 672 1159 747 c 1,0,-1
EndSplineSet
EndChar

StartChar: exclamdown
Encoding: 161 161 99
Width: 542
GlyphClass: 1
Flags: W
LayerCount: 2
Fore
SplineSet
170 662 m 1,0,-1
 379 662 l 1,1,-1
 403 -364 l 1,2,-1
 146 -364 l 1,3,-1
 170 662 l 1,0,-1
409 971 m 0,4,5
 409 915 409 915 373 877.5 c 128,-1,6
 337 840 337 840 272 840 c 0,7,8
 206 840 206 840 170 877.5 c 128,-1,9
 134 915 134 915 134 971 c 0,10,11
 134 1026 134 1026 170 1063.5 c 128,-1,12
 206 1101 206 1101 272 1101 c 0,13,14
 337 1101 337 1101 373 1063.5 c 128,-1,15
 409 1026 409 1026 409 971 c 0,4,5
EndSplineSet
EndChar

StartChar: cent
Encoding: 162 162 100
Width: 1149
GlyphClass: 1
Flags: W
LayerCount: 2
Fore
SplineSet
591 174 m 0,0,1
 680 174 680 174 740 226 c 128,-1,2
 800 278 800 278 806 358 c 1,3,-1
 1034 358 l 1,4,5
 1030 222 1030 222 931.5 119.5 c 128,-1,6
 833 17 833 17 687 -11 c 1,7,-1
 687 -245 l 1,8,-1
 487 -245 l 1,9,-1
 487 -11 l 1,10,11
 304 23 304 23 202 166.5 c 128,-1,12
 100 310 100 310 100 530 c 2,13,-1
 100 558 l 2,14,15
 100 771 100 771 202 915 c 128,-1,16
 304 1059 304 1059 487 1093 c 1,17,-1
 487 1318 l 1,18,-1
 687 1318 l 1,19,-1
 687 1094 l 1,20,21
 845 1066 845 1066 937.5 958 c 128,-1,22
 1030 850 1030 850 1034 694 c 1,23,-1
 806 694 l 1,24,25
 799 790 799 790 740 848.5 c 128,-1,26
 681 907 681 907 590 907 c 0,27,28
 360 907 360 907 344 595 c 1,29,-1
 343 523 l 2,30,31
 343 347 343 347 406.5 260.5 c 128,-1,32
 470 174 470 174 591 174 c 0,0,1
EndSplineSet
EndChar

StartChar: sterling
Encoding: 163 163 101
Width: 1205
GlyphClass: 1
Flags: W
LayerCount: 2
Fore
SplineSet
509 598 m 1,0,-1
 516 422 l 1,1,2
 516 287 516 287 452 202 c 1,3,-1
 1148 202 l 1,4,-1
 1147 0 l 1,5,-1
 98 0 l 1,6,-1
 98 202 l 1,7,-1
 180 202 l 1,8,9
 219 211 219 211 240.5 266.5 c 128,-1,10
 262 322 262 322 262 413 c 2,11,-1
 255 598 l 1,12,-1
 94 598 l 1,13,-1
 94 797 l 1,14,-1
 249 797 l 1,15,-1
 241 1039 l 1,16,17
 241 1241 241 1241 366 1358 c 128,-1,18
 491 1475 491 1475 694 1475 c 128,-1,19
 897 1475 897 1475 1013 1366 c 128,-1,20
 1129 1257 1129 1257 1129 1073 c 1,21,-1
 884 1073 l 1,22,23
 884 1168 884 1168 831.5 1220.5 c 128,-1,24
 779 1273 779 1273 685 1273 c 0,25,26
 596 1273 596 1273 544.5 1208 c 128,-1,27
 493 1143 493 1143 493 1039 c 2,28,-1
 502 797 l 1,29,-1
 813 797 l 1,30,-1
 813 598 l 1,31,-1
 509 598 l 1,0,-1
EndSplineSet
Substitution2: "'c2sc' Capitals to Small Capitals lookup 0 subtable" sterling.c2sc
Position2: "'cpsp' Capital Spacing lookup 0 subtable" dx=36 dy=0 dh=72 dv=0
EndChar

StartChar: currency
Encoding: 164 164 102
Width: 1437
GlyphClass: 1
Flags: W
LayerCount: 2
Fore
SplineSet
1085 107 m 1,0,1
 926 -20 926 -20 723 -20 c 0,2,3
 521 -20 521 -20 363 106 c 1,4,-1
 234 -26 l 1,5,-1
 93 118 l 1,6,-1
 228 255 l 1,7,8
 128 411 128 411 128 608 c 0,9,10
 128 808 128 808 237 973 c 1,11,-1
 93 1120 l 1,12,-1
 234 1264 l 1,13,-1
 376 1119 l 1,14,15
 531 1234 531 1234 723 1234 c 0,16,17
 917 1234 917 1234 1072 1117 c 1,18,-1
 1217 1265 l 1,19,-1
 1359 1120 l 1,20,-1
 1211 969 l 1,21,22
 1318 810 1318 810 1318 608 c 0,23,24
 1318 415 1318 415 1220 259 c 1,25,-1
 1359 118 l 1,26,-1
 1217 -27 l 1,27,-1
 1085 107 l 1,0,1
313 608 m 0,28,29
 313 488 313 488 368 385 c 128,-1,30
 423 282 423 282 518 223.5 c 128,-1,31
 613 165 613 165 723 165 c 128,-1,32
 833 165 833 165 928 224 c 128,-1,33
 1023 283 1023 283 1077.5 386 c 128,-1,34
 1132 489 1132 489 1132 608 c 128,-1,35
 1132 727 1132 727 1077.5 829 c 128,-1,36
 1023 931 1023 931 928.5 989.5 c 128,-1,37
 834 1048 834 1048 723 1048 c 128,-1,38
 612 1048 612 1048 517 989.5 c 128,-1,39
 422 931 422 931 367.5 829 c 128,-1,40
 313 727 313 727 313 608 c 0,28,29
EndSplineSet
EndChar

StartChar: yen
Encoding: 165 165 103
Width: 1088
GlyphClass: 1
Flags: W
LayerCount: 2
Fore
SplineSet
545 847 m 1,0,-1
 807 1456 l 1,1,-1
 1076 1456 l 1,2,-1
 735 742 l 1,3,-1
 969 742 l 1,4,-1
 969 590 l 1,5,-1
 666 590 l 1,6,-1
 666 452 l 1,7,-1
 969 452 l 1,8,-1
 969 301 l 1,9,-1
 666 301 l 1,10,-1
 666 0 l 1,11,-1
 414 0 l 1,12,-1
 414 301 l 1,13,-1
 106 301 l 1,14,-1
 106 452 l 1,15,-1
 414 452 l 1,16,-1
 414 590 l 1,17,-1
 106 590 l 1,18,-1
 106 742 l 1,19,-1
 354 742 l 1,20,-1
 11 1456 l 1,21,-1
 284 1456 l 1,22,-1
 545 847 l 1,0,-1
EndSplineSet
Substitution2: "'c2sc' Capitals to Small Capitals lookup 0 subtable" yen.c2sc
Position2: "'cpsp' Capital Spacing lookup 0 subtable" dx=36 dy=0 dh=72 dv=0
EndChar

StartChar: brokenbar
Encoding: 166 166 104
Width: 508
GlyphClass: 1
Flags: W
LayerCount: 2
Fore
SplineSet
136 -270 m 1,0,-1
 136 525 l 1,1,-1
 365 525 l 1,2,-1
 365 -270 l 1,3,-1
 136 -270 l 1,0,-1
365 698 m 1,4,-1
 136 698 l 1,5,-1
 136 1456 l 1,6,-1
 365 1456 l 1,7,-1
 365 698 l 1,4,-1
EndSplineSet
EndChar

StartChar: section
Encoding: 167 167 105
Width: 1272
GlyphClass: 1
Flags: W
LayerCount: 2
Fore
SplineSet
1164 455 m 0,0,1
 1164 271 1164 271 993 182 c 1,2,3
 1128 82 1128 82 1128 -103 c 0,4,5
 1128 -276 1128 -276 993 -375 c 128,-1,6
 858 -474 858 -474 624 -474 c 0,7,8
 378 -474 378 -474 234 -365.5 c 128,-1,9
 90 -257 90 -257 90 -50 c 1,10,-1
 332 -49 l 1,11,12
 332 -159 332 -159 410 -219 c 128,-1,13
 488 -279 488 -279 624 -279 c 0,14,15
 745 -279 745 -279 815.5 -231.5 c 128,-1,16
 886 -184 886 -184 886 -105 c 0,17,18
 886 -28 886 -28 819 17.5 c 128,-1,19
 752 63 752 63 565 118 c 1,20,21
 377 169 377 169 282 224 c 128,-1,22
 187 279 187 279 140.5 356 c 128,-1,23
 94 433 94 433 94 542 c 0,24,25
 94 726 94 726 263 816 c 1,26,27
 198 866 198 866 164 934 c 128,-1,28
 130 1002 130 1002 130 1102 c 0,29,30
 130 1272 130 1272 267.5 1374 c 128,-1,31
 405 1476 405 1476 635 1476 c 0,32,33
 875 1476 875 1476 1009 1363.5 c 128,-1,34
 1143 1251 1143 1251 1143 1047 c 1,35,-1
 900 1047 l 1,36,37
 900 1153 900 1153 827.5 1217 c 128,-1,38
 755 1281 755 1281 635 1281 c 0,39,40
 512 1281 512 1281 442.5 1233.5 c 128,-1,41
 373 1186 373 1186 373 1104 c 0,42,43
 373 1020 373 1020 433 976.5 c 128,-1,44
 493 933 493 933 686.5 881 c 128,-1,45
 880 829 880 829 977 772.5 c 128,-1,46
 1074 716 1074 716 1119 639.5 c 128,-1,47
 1164 563 1164 563 1164 455 c 0,0,1
601 673 m 0,48,49
 520 694 520 694 444 722 c 1,50,51
 336 682 336 682 336 558 c 0,52,53
 336 477 336 477 385.5 434 c 128,-1,54
 435 391 435 391 584 344 c 2,55,-1
 763 291 l 1,56,-1
 809 275 l 1,57,58
 924 322 924 322 924 439 c 0,59,60
 924 520 924 520 856 568.5 c 128,-1,61
 788 617 788 617 601 673 c 0,48,49
EndSplineSet
EndChar

StartChar: dieresis
Encoding: 168 168 106
Width: 901
GlyphClass: 1
Flags: W
LayerCount: 2
Fore
SplineSet
93 1366 m 256,0,1
 93 1416 93 1416 126.5 1450 c 128,-1,2
 160 1484 160 1484 219 1484 c 128,-1,3
 278 1484 278 1484 312 1450 c 128,-1,4
 346 1416 346 1416 346 1366 c 128,-1,5
 346 1316 346 1316 312 1282 c 128,-1,6
 278 1248 278 1248 219 1248 c 128,-1,7
 160 1248 160 1248 126.5 1282 c 128,-1,8
 93 1316 93 1316 93 1366 c 256,0,1
550 1365 m 256,9,10
 550 1415 550 1415 583.5 1449 c 128,-1,11
 617 1483 617 1483 676 1483 c 128,-1,12
 735 1483 735 1483 769 1449 c 128,-1,13
 803 1415 803 1415 803 1365 c 128,-1,14
 803 1315 803 1315 769 1281 c 128,-1,15
 735 1247 735 1247 676 1247 c 128,-1,16
 617 1247 617 1247 583.5 1281 c 128,-1,17
 550 1315 550 1315 550 1365 c 256,9,10
EndSplineSet
EndChar

StartChar: copyright
Encoding: 169 169 107
Width: 1604
GlyphClass: 1
Flags: W
LayerCount: 2
Fore
SplineSet
1118 596 m 1,0,1
 1118 444 1118 444 1030.5 363 c 128,-1,2
 943 282 943 282 783 282 c 128,-1,3
 623 282 623 282 528.5 388.5 c 128,-1,4
 434 495 434 495 434 675 c 2,5,-1
 434 788 l 2,6,7
 434 962 434 962 529.5 1068.5 c 128,-1,8
 625 1175 625 1175 783 1175 c 0,9,10
 946 1175 946 1175 1032.5 1092.5 c 128,-1,11
 1119 1010 1119 1010 1119 861 c 1,12,-1
 963 861 l 1,13,14
 963 957 963 957 917 998.5 c 128,-1,15
 871 1040 871 1040 783 1040 c 0,16,17
 691 1040 691 1040 639.5 972 c 128,-1,18
 588 904 588 904 588 786 c 2,19,-1
 588 669 l 2,20,21
 588 551 588 551 640 484 c 128,-1,22
 692 417 692 417 783 417 c 0,23,24
 872 417 872 417 917 457.5 c 128,-1,25
 962 498 962 498 962 596 c 1,26,-1
 1118 596 l 1,0,1
1384 729 m 0,27,28
 1384 895 1384 895 1309 1037.5 c 128,-1,29
 1234 1180 1234 1180 1097 1265.5 c 128,-1,30
 960 1351 960 1351 797 1351 c 0,31,32
 638 1351 638 1351 501.5 1269 c 128,-1,33
 365 1187 365 1187 287 1043 c 128,-1,34
 209 899 209 899 209 729 c 128,-1,35
 209 559 209 559 286.5 415 c 128,-1,36
 364 271 364 271 500.5 187.5 c 128,-1,37
 637 104 637 104 797 104 c 128,-1,38
 957 104 957 104 1094.5 189 c 128,-1,39
 1232 274 1232 274 1308 418 c 128,-1,40
 1384 562 1384 562 1384 729 c 0,27,28
87 729 m 0,41,42
 87 931 87 931 180.5 1104 c 128,-1,43
 274 1277 274 1277 439.5 1376.5 c 128,-1,44
 605 1476 605 1476 797 1476 c 128,-1,45
 989 1476 989 1476 1154 1376.5 c 128,-1,46
 1319 1277 1319 1277 1412.5 1104 c 128,-1,47
 1506 931 1506 931 1506 729 c 128,-1,48
 1506 527 1506 527 1412.5 354 c 128,-1,49
 1319 181 1319 181 1155 80.5 c 128,-1,50
 991 -20 991 -20 797 -20 c 0,51,52
 604 -20 604 -20 439.5 80 c 128,-1,53
 275 180 275 180 181 353 c 128,-1,54
 87 526 87 526 87 729 c 0,41,42
EndSplineSet
EndChar

StartChar: ordfeminine
Encoding: 170 170 108
Width: 913
GlyphClass: 1
Flags: W
LayerCount: 2
Fore
SplineSet
608 705 m 1,0,-1
 591 773 l 1,1,2
 514 691 514 691 390 691 c 0,3,4
 272 691 272 691 206.5 752.5 c 128,-1,5
 141 814 141 814 141 919 c 0,6,7
 141 1029 141 1029 225 1089.5 c 128,-1,8
 309 1150 309 1150 482 1150 c 2,9,-1
 584 1150 l 1,10,-1
 584 1201 l 2,11,12
 584 1328 584 1328 468 1328 c 0,13,14
 403 1328 403 1328 366.5 1302.5 c 128,-1,15
 330 1277 330 1277 330 1229 c 1,16,-1
 157 1243 l 1,17,18
 157 1347 157 1347 244.5 1411.5 c 128,-1,19
 332 1476 332 1476 468 1476 c 0,20,21
 605 1476 605 1476 682 1403.5 c 128,-1,22
 759 1331 759 1331 759 1199 c 2,23,-1
 759 883 l 2,24,25
 759 786 759 786 785 705 c 1,26,-1
 608 705 l 1,0,-1
433 835 m 0,27,28
 473 835 473 835 515 853 c 128,-1,29
 557 871 557 871 584 896 c 1,30,-1
 584 1033 l 1,31,-1
 478 1033 l 2,32,33
 402 1032 402 1032 359 1002 c 128,-1,34
 316 972 316 972 316 923 c 0,35,36
 316 835 316 835 433 835 c 0,27,28
EndSplineSet
EndChar

StartChar: logicalnot
Encoding: 172 172 110
Width: 1133
GlyphClass: 1
Flags: W
LayerCount: 2
Fore
SplineSet
962 374 m 1,0,-1
 762 374 l 1,1,-1
 762 634 l 1,2,-1
 127 634 l 1,3,-1
 127 805 l 1,4,-1
 962 805 l 1,5,-1
 962 374 l 1,0,-1
EndSplineSet
EndChar

StartChar: registered
Encoding: 174 174 111
Width: 1604
GlyphClass: 1
Flags: W
LayerCount: 2
Fore
SplineSet
87 729 m 0,0,1
 87 931 87 931 180.5 1104 c 128,-1,2
 274 1277 274 1277 439.5 1376.5 c 128,-1,3
 605 1476 605 1476 797 1476 c 128,-1,4
 989 1476 989 1476 1154 1376.5 c 128,-1,5
 1319 1277 1319 1277 1412.5 1104 c 128,-1,6
 1506 931 1506 931 1506 729 c 128,-1,7
 1506 527 1506 527 1412.5 354 c 128,-1,8
 1319 181 1319 181 1155 80.5 c 128,-1,9
 991 -20 991 -20 797 -20 c 0,10,11
 604 -20 604 -20 439.5 80 c 128,-1,12
 275 180 275 180 181 353 c 128,-1,13
 87 526 87 526 87 729 c 0,0,1
1384 729 m 0,14,15
 1384 895 1384 895 1309 1037.5 c 128,-1,16
 1234 1180 1234 1180 1097 1265.5 c 128,-1,17
 960 1351 960 1351 797 1351 c 0,18,19
 638 1351 638 1351 501.5 1269 c 128,-1,20
 365 1187 365 1187 287 1043 c 128,-1,21
 209 899 209 899 209 729 c 128,-1,22
 209 559 209 559 286.5 415 c 128,-1,23
 364 271 364 271 500.5 187.5 c 128,-1,24
 637 104 637 104 797 104 c 128,-1,25
 957 104 957 104 1094.5 189 c 128,-1,26
 1232 274 1232 274 1308 418 c 128,-1,27
 1384 562 1384 562 1384 729 c 0,14,15
653 653 m 1,28,-1
 653 316 l 1,29,-1
 502 316 l 1,30,-1
 502 1166 l 1,31,-1
 783 1166 l 2,32,33
 936 1166 936 1166 1022 1098.5 c 128,-1,34
 1108 1031 1108 1031 1108 906 c 0,35,36
 1108 789 1108 789 988 726 c 1,37,38
 1053 697 1053 697 1079 641.5 c 128,-1,39
 1105 586 1105 586 1105 504.5 c 128,-1,40
 1105 423 1105 423 1108.5 389 c 128,-1,41
 1112 355 1112 355 1122 332 c 1,42,-1
 1122 316 l 1,43,-1
 967 316 l 1,44,45
 954 350 954 350 954 510 c 0,46,47
 954 586 954 586 921 619.5 c 128,-1,48
 888 653 888 653 811 653 c 2,49,-1
 653 653 l 1,28,-1
653 787 m 1,50,-1
 796 787 l 2,51,52
 865 787 865 787 911.5 818 c 128,-1,53
 958 849 958 849 958 903 c 0,54,55
 958 973 958 973 922.5 1002.5 c 128,-1,56
 887 1032 887 1032 794 1033 c 2,57,-1
 653 1033 l 1,58,-1
 653 787 l 1,50,-1
EndSplineSet
EndChar

StartChar: macron
Encoding: 175 175 112
Width: 987
GlyphClass: 1
Flags: W
LayerCount: 2
Fore
SplineSet
842 1292 m 1,0,-1
 155 1292 l 1,1,-1
 155 1450 l 1,2,-1
 842 1450 l 1,3,-1
 842 1292 l 1,0,-1
EndSplineSet
EndChar

StartChar: degree
Encoding: 176 176 113
Width: 778
GlyphClass: 1
Flags: W
LayerCount: 2
Fore
SplineSet
391 1476 m 0,0,1
 497 1476 497 1476 574 1397 c 128,-1,2
 651 1318 651 1318 651 1208 c 128,-1,3
 651 1098 651 1098 575 1020.5 c 128,-1,4
 499 943 499 943 391 943 c 0,5,6
 282 943 282 943 204.5 1020.5 c 128,-1,7
 127 1098 127 1098 127 1208 c 128,-1,8
 127 1318 127 1318 205.5 1397 c 128,-1,9
 284 1476 284 1476 391 1476 c 0,0,1
391 1084 m 0,10,11
 444 1084 444 1084 478.5 1119.5 c 128,-1,12
 513 1155 513 1155 513 1208 c 0,13,14
 513 1260 513 1260 478.5 1298 c 128,-1,15
 444 1336 444 1336 391 1336 c 128,-1,16
 338 1336 338 1336 302 1298 c 128,-1,17
 266 1260 266 1260 266 1208 c 128,-1,18
 266 1156 266 1156 302.5 1120 c 128,-1,19
 339 1084 339 1084 391 1084 c 0,10,11
EndSplineSet
EndChar

StartChar: plusminus
Encoding: 177 177 114
Width: 1098
GlyphClass: 1
Flags: W
LayerCount: 2
Fore
SplineSet
668 899 m 1,0,-1
 1011 899 l 1,1,-1
 1011 700 l 1,2,-1
 668 700 l 1,3,-1
 668 312 l 1,4,-1
 452 312 l 1,5,-1
 452 700 l 1,6,-1
 95 700 l 1,7,-1
 95 899 l 1,8,-1
 452 899 l 1,9,-1
 452 1276 l 1,10,-1
 668 1276 l 1,11,-1
 668 899 l 1,0,-1
974 1 m 1,12,-1
 125 1 l 1,13,-1
 125 197 l 1,14,-1
 974 197 l 1,15,-1
 974 1 l 1,12,-1
EndSplineSet
EndChar

StartChar: uni00B2
Encoding: 178 178 115
Width: 758
GlyphClass: 1
Flags: W
LayerCount: 2
Fore
SplineSet
690 667 m 1,0,-1
 78 667 l 1,1,-1
 78 792 l 1,2,-1
 363 1053 l 2,3,4
 476 1156 476 1156 476 1223 c 0,5,6
 476 1265 476 1265 449 1291.5 c 128,-1,7
 422 1318 422 1318 370 1318 c 0,8,9
 312 1318 312 1318 279 1285 c 128,-1,10
 246 1252 246 1252 246 1198 c 1,11,-1
 60 1198 l 1,12,13
 60 1314 60 1314 144.5 1390.5 c 128,-1,14
 229 1467 229 1467 364 1467 c 0,15,16
 507 1467 507 1467 585 1403 c 128,-1,17
 663 1339 663 1339 663 1224 c 0,18,19
 663 1117 663 1117 557 1015 c 1,20,-1
 459 928 l 1,21,-1
 319 815 l 1,22,-1
 690 815 l 1,23,-1
 690 667 l 1,0,-1
EndSplineSet
EndChar

StartChar: uni00B3
Encoding: 179 179 116
Width: 758
GlyphClass: 1
Flags: W
LayerCount: 2
Fore
SplineSet
268 1133 m 1,0,-1
 349 1133 l 2,1,2
 481 1133 481 1133 481 1230 c 0,3,4
 481 1265 481 1265 454 1291.5 c 128,-1,5
 427 1318 427 1318 365 1318 c 0,6,7
 317 1318 317 1318 284.5 1298.5 c 128,-1,8
 252 1279 252 1279 252 1244 c 1,9,-1
 66 1244 l 1,10,11
 66 1343 66 1343 148.5 1405 c 128,-1,12
 231 1467 231 1467 361 1467 c 0,13,14
 504 1467 504 1467 585.5 1406.5 c 128,-1,15
 667 1346 667 1346 667 1241 c 0,16,17
 667 1122 667 1122 532 1071 c 1,18,19
 681 1030 681 1030 681 888 c 0,20,21
 681 782 681 782 592.5 719 c 128,-1,22
 504 656 504 656 361 656 c 0,23,24
 226 656 226 656 140.5 719.5 c 128,-1,25
 55 783 55 783 55 896 c 1,26,-1
 241 896 l 1,27,28
 241 858 241 858 275.5 831.5 c 128,-1,29
 310 805 310 805 370 805 c 0,30,31
 433 805 433 805 463.5 832.5 c 128,-1,32
 494 860 494 860 494 902 c 0,33,34
 494 1003 494 1003 360 1004 c 2,35,-1
 268 1004 l 1,36,-1
 268 1133 l 1,0,-1
EndSplineSet
EndChar

StartChar: acute
Encoding: 180 180 117
Width: 667
GlyphClass: 1
Flags: W
LayerCount: 2
Fore
SplineSet
307 1536 m 1,0,-1
 584 1536 l 1,1,-1
 307 1233 l 1,2,-1
 112 1233 l 1,3,-1
 307 1536 l 1,0,-1
EndSplineSet
EndChar

StartChar: mu
Encoding: 181 181 118
Width: 1211
GlyphClass: 1
Flags: W
LayerCount: 2
Fore
SplineSet
388 1082 m 1,0,-1
 388 446 l 2,1,2
 390 305 390 305 434.5 240 c 128,-1,3
 479 175 479 175 585 175 c 0,4,5
 753 175 753 175 812 296 c 1,6,-1
 812 1082 l 1,7,-1
 1055 1082 l 1,8,-1
 1055 0 l 1,9,-1
 832 0 l 1,10,-1
 825 86 l 1,11,12
 733 -21 733 -21 586 -21 c 0,13,14
 465 -21 465 -21 388 34 c 1,15,-1
 388 -416 l 1,16,-1
 146 -416 l 1,17,-1
 146 1082 l 1,18,-1
 388 1082 l 1,0,-1
EndSplineSet
EndChar

StartChar: paragraph
Encoding: 182 182 119
Width: 1005
GlyphClass: 1
Flags: W
LayerCount: 2
Fore
SplineSet
644 0 m 1,0,-1
 644 520 l 1,1,-1
 564 520 l 2,2,3
 334 520 334 520 201.5 647 c 128,-1,4
 69 774 69 774 69 988 c 0,5,6
 69 1201 69 1201 202 1328.5 c 128,-1,7
 335 1456 335 1456 565 1456 c 2,8,-1
 854 1456 l 1,9,-1
 854 0 l 1,10,-1
 644 0 l 1,0,-1
EndSplineSet
EndChar

StartChar: periodcentered
Encoding: 183 183 120
Width: 578
GlyphClass: 1
Flags: W
LayerCount: 2
Fore
SplineSet
142 714 m 0,0,1
 142 772 142 772 179 811 c 128,-1,2
 216 850 216 850 283 850 c 128,-1,3
 350 850 350 850 387.5 811 c 128,-1,4
 425 772 425 772 425 714 c 0,5,6
 425 655 425 655 386 618 c 128,-1,7
 347 581 347 581 283 581 c 0,8,9
 218 581 218 581 180 618 c 128,-1,10
 142 655 142 655 142 714 c 0,0,1
EndSplineSet
EndChar

StartChar: cedilla
Encoding: 184 184 121
Width: 528
GlyphClass: 2
Flags: W
LayerCount: 2
Fore
SplineSet
318 3 m 1,0,-1
 307 -51 l 1,1,2
 457 -78 457 -78 457 -224 c 0,3,4
 457 -329 457 -329 371 -388 c 128,-1,5
 285 -447 285 -447 130 -447 c 1,6,-1
 123 -310 l 1,7,8
 189 -310 189 -310 224.5 -286.5 c 128,-1,9
 260 -263 260 -263 260 -221 c 0,10,11
 260 -176 260 -176 224.5 -158.5 c 128,-1,12
 189 -141 189 -141 109 -136 c 1,13,-1
 141 3 l 1,14,-1
 318 3 l 1,0,-1
EndSplineSet
EndChar

StartChar: uni00B9
Encoding: 185 185 122
Width: 758
GlyphClass: 1
Flags: W
LayerCount: 2
Fore
SplineSet
514 667 m 1,0,-1
 329 667 l 1,1,-1
 329 1237 l 1,2,-1
 128 1189 l 1,3,-1
 128 1335 l 1,4,-1
 495 1454 l 1,5,-1
 514 1454 l 1,6,-1
 514 667 l 1,0,-1
EndSplineSet
EndChar

StartChar: ordmasculine
Encoding: 186 186 123
Width: 935
GlyphClass: 1
Flags: W
LayerCount: 2
Fore
SplineSet
119 1121 m 2,0,1
 119 1281 119 1281 214.5 1378.5 c 128,-1,2
 310 1476 310 1476 465 1476 c 128,-1,3
 620 1476 620 1476 716 1379 c 128,-1,4
 812 1282 812 1282 812 1116 c 2,5,-1
 812 1044 l 2,6,7
 812 885 812 885 718 787.5 c 128,-1,8
 624 690 624 690 467 690 c 0,9,10
 309 690 309 690 214 788 c 128,-1,11
 119 886 119 886 119 1049 c 2,12,-1
 119 1121 l 2,0,1
294 1044 m 2,13,14
 294 946 294 946 340.5 891 c 128,-1,15
 387 836 387 836 467 836 c 0,16,17
 545 836 545 836 590.5 890 c 128,-1,18
 636 944 636 944 637 1041 c 2,19,-1
 637 1121 l 2,20,21
 637 1218 637 1218 590.5 1273 c 128,-1,22
 544 1328 544 1328 465 1328 c 0,23,24
 387 1328 387 1328 340.5 1273.5 c 128,-1,25
 294 1219 294 1219 294 1117 c 2,26,-1
 294 1044 l 2,13,14
EndSplineSet
EndChar

StartChar: questiondown
Encoding: 191 191 128
Width: 996
GlyphClass: 1
Flags: W
LayerCount: 2
Fore
SplineSet
630 661 m 1,0,1
 628 537 628 537 601.5 464.5 c 128,-1,2
 575 392 575 392 502 313 c 2,3,-1
 399 207 l 2,4,5
 309 110 309 110 309 4 c 0,6,7
 309 -90 309 -90 358 -136.5 c 128,-1,8
 407 -183 407 -183 496 -183 c 0,9,10
 584 -183 584 -183 637 -133 c 128,-1,11
 690 -83 690 -83 690 0 c 1,12,-1
 933 0 l 1,13,14
 931 -177 931 -177 811.5 -281 c 128,-1,15
 692 -385 692 -385 498 -385 c 0,16,17
 292 -385 292 -385 179 -284.5 c 128,-1,18
 66 -184 66 -184 66 0 c 0,19,20
 66 165 66 165 221 328 c 1,21,-1
 313 421 l 1,22,23
 391 493 391 493 401 608 c 1,24,-1
 403 661 l 1,25,-1
 630 661 l 1,0,1
650 972 m 0,26,27
 650 916 650 916 614.5 878.5 c 128,-1,28
 579 841 579 841 513 841 c 128,-1,29
 447 841 447 841 411 878.5 c 128,-1,30
 375 916 375 916 375 972 c 0,31,32
 375 1027 375 1027 411 1064.5 c 128,-1,33
 447 1102 447 1102 513 1102 c 128,-1,34
 579 1102 579 1102 614.5 1064.5 c 128,-1,35
 650 1027 650 1027 650 972 c 0,26,27
EndSplineSet
EndChar

StartChar: AE
Encoding: 198 198 129
Width: 1925
GlyphClass: 2
Flags: W
LayerCount: 2
Fore
SplineSet
1879 0 m 1,0,-1
 981 0 l 1,1,-1
 966 340 l 1,2,-1
 464 340 l 1,3,-1
 280 0 l 1,4,-1
 -10 0 l 1,5,-1
 825 1456 l 1,6,-1
 1817 1456 l 1,7,-1
 1817 1259 l 1,8,-1
 1171 1259 l 1,9,-1
 1188 851 l 1,10,-1
 1736 851 l 1,11,-1
 1736 654 l 1,12,-1
 1196 654 l 1,13,-1
 1216 196 l 1,14,-1
 1879 196 l 1,15,-1
 1879 0 l 1,0,-1
580 555 m 1,16,-1
 957 555 l 1,17,-1
 930 1203 l 1,18,-1
 580 555 l 1,16,-1
EndSplineSet
Substitution2: "'c2sc' Capitals to Small Capitals lookup 0 subtable" AE.c2sc
Position2: "'cpsp' Capital Spacing lookup 0 subtable" dx=36 dy=0 dh=72 dv=0
EndChar

StartChar: multiply
Encoding: 215 215 130
Width: 1092
GlyphClass: 1
Flags: W
LayerCount: 2
Fore
SplineSet
77 364 m 1,0,-1
 393 686 l 1,1,-1
 77 1008 l 1,2,-1
 225 1158 l 1,3,-1
 540 836 l 1,4,-1
 856 1158 l 1,5,-1
 1004 1008 l 1,6,-1
 688 686 l 1,7,-1
 1004 364 l 1,8,-1
 856 214 l 1,9,-1
 540 535 l 1,10,-1
 225 214 l 1,11,-1
 77 364 l 1,0,-1
EndSplineSet
EndChar

StartChar: Oslash
Encoding: 216 216 131
Width: 1412
GlyphClass: 2
Flags: W
LayerCount: 2
Fore
SplineSet
1314 690 m 2,0,1
 1314 476 1314 476 1240 314.5 c 128,-1,2
 1166 153 1166 153 1028.5 66.5 c 128,-1,3
 891 -20 891 -20 711 -20 c 0,4,5
 547 -20 547 -20 415 55 c 1,6,-1
 324 -95 l 1,7,-1
 155 -95 l 1,8,-1
 300 143 l 1,9,10
 105 338 105 338 105 697 c 2,11,-1
 105 764 l 2,12,13
 105 977 105 977 180 1139 c 128,-1,14
 255 1301 255 1301 393 1388.5 c 128,-1,15
 531 1476 531 1476 709 1476 c 0,16,17
 906 1476 906 1476 1049 1375 c 1,18,-1
 1136 1518 l 1,19,-1
 1303 1518 l 1,20,-1
 1156 1275 l 1,21,22
 1313 1082 1313 1082 1314 765 c 2,23,-1
 1314 690 l 2,0,1
358 690 m 2,24,25
 358 483 358 483 429 355 c 1,26,-1
 931 1181 l 1,27,28
 844 1266 844 1266 709 1266 c 0,29,30
 545 1266 545 1266 452.5 1137.5 c 128,-1,31
 360 1009 360 1009 358 774 c 2,32,-1
 358 690 l 2,24,25
1061 766 m 2,33,34
 1061 932 1061 932 1017 1046 c 1,35,-1
 528 242 l 1,36,37
 606 188 606 188 711 188 c 0,38,39
 880 188 880 188 970.5 316 c 128,-1,40
 1061 444 1061 444 1061 690 c 2,41,-1
 1061 766 l 2,33,34
EndSplineSet
Substitution2: "'c2sc' Capitals to Small Capitals lookup 0 subtable" Oslash.c2sc
Position2: "'cpsp' Capital Spacing lookup 0 subtable" dx=36 dy=0 dh=72 dv=0
EndChar

StartChar: Thorn
Encoding: 222 222 132
Width: 1226
GlyphClass: 1
Flags: W
LayerCount: 2
Fore
SplineSet
391 1456 m 1,0,-1
 391 1176 l 1,1,-1
 632 1176 l 2,2,3
 876 1176 876 1176 1013 1057 c 128,-1,4
 1150 938 1150 938 1150 738 c 0,5,6
 1150 539 1150 539 1013 419.5 c 128,-1,7
 876 300 876 300 633 300 c 2,8,-1
 391 300 l 1,9,-1
 391 0 l 1,10,-1
 148 0 l 1,11,-1
 148 1456 l 1,12,-1
 391 1456 l 1,0,-1
391 981 m 1,13,-1
 391 495 l 1,14,-1
 637 495 l 2,15,16
 762 495 762 495 834.5 560 c 128,-1,17
 907 625 907 625 907 736 c 128,-1,18
 907 847 907 847 837 913 c 128,-1,19
 767 979 767 979 645 981 c 2,20,-1
 391 981 l 1,13,-1
EndSplineSet
Substitution2: "'c2sc' Capitals to Small Capitals lookup 0 subtable" Thorn.c2sc
Position2: "'cpsp' Capital Spacing lookup 0 subtable" dx=36 dy=0 dh=72 dv=0
EndChar

StartChar: germandbls
Encoding: 223 223 133
Width: 1255
GlyphClass: 1
Flags: W
LayerCount: 2
Fore
SplineSet
378 0 m 1,0,-1
 136 0 l 1,1,-1
 136 1105 l 2,2,3
 136 1319 136 1319 250.5 1438 c 128,-1,4
 365 1557 365 1557 571 1557 c 0,5,6
 758 1557 758 1557 865.5 1463.5 c 128,-1,7
 973 1370 973 1370 973 1201 c 0,8,9
 973 1139 973 1139 959.5 1090 c 128,-1,10
 946 1041 946 1041 911.5 984.5 c 128,-1,11
 877 928 877 928 866 895.5 c 128,-1,12
 855 863 855 863 855 824 c 0,13,14
 855 780 855 780 887.5 738 c 128,-1,15
 920 696 920 696 1009 622 c 128,-1,16
 1098 548 1098 548 1138.5 479.5 c 128,-1,17
 1179 411 1179 411 1179 336 c 0,18,19
 1179 165 1179 165 1070.5 72.5 c 128,-1,20
 962 -20 962 -20 764 -20 c 0,21,22
 684 -20 684 -20 598.5 -0.5 c 128,-1,23
 513 19 513 19 475 44 c 1,24,-1
 524 239 l 1,25,26
 569 211 569 211 632.5 192.5 c 128,-1,27
 696 174 696 174 750 174 c 0,28,29
 847 174 847 174 892 217 c 128,-1,30
 937 260 937 260 937 327 c 0,31,32
 937 376 937 376 902 421.5 c 128,-1,33
 867 467 867 467 780 535 c 128,-1,34
 693 603 693 603 652.5 671 c 128,-1,35
 612 739 612 739 612 819 c 0,36,37
 612 907 612 907 675 1007.5 c 128,-1,38
 738 1108 738 1108 738 1185 c 0,39,40
 738 1266 738 1266 692 1314.5 c 128,-1,41
 646 1363 646 1363 566 1363 c 0,42,43
 382 1363 382 1363 378 1116 c 1,44,-1
 378 0 l 1,0,-1
EndSplineSet
Substitution2: "'smcp' Lowercase to Small Capitals lookup 1 subtable" germandbls.sc
EndChar

StartChar: ae
Encoding: 230 230 134
Width: 1729
GlyphClass: 2
Flags: W
LayerCount: 2
Fore
SplineSet
1254 -20 m 0,0,1
 1001 -20 1001 -20 861 141 c 1,2,3
 796 64 796 64 689 22 c 128,-1,4
 582 -20 582 -20 448 -20 c 0,5,6
 272 -20 272 -20 172 68 c 128,-1,7
 72 156 72 156 72 312 c 0,8,9
 72 470 72 470 191 556 c 128,-1,10
 310 642 310 642 543 642 c 2,11,-1
 734 642 l 1,12,-1
 734 713 l 2,13,14
 734 804 734 804 686.5 855.5 c 128,-1,15
 639 907 639 907 551 907 c 0,16,17
 460 907 460 907 402.5 862.5 c 128,-1,18
 345 818 345 818 345 752 c 1,19,-1
 103 771 l 1,20,21
 103 917 103 917 229.5 1009.5 c 128,-1,22
 356 1102 356 1102 553 1102 c 0,23,24
 776 1102 776 1102 887 969 c 1,25,26
 1018 1104 1018 1104 1218 1102 c 0,27,28
 1430 1102 1430 1102 1549 972.5 c 128,-1,29
 1668 843 1668 843 1668 608 c 2,30,-1
 1668 471 l 1,31,-1
 973 471 l 1,32,33
 982 332 982 332 1058 253 c 128,-1,34
 1134 174 1134 174 1268 174 c 0,35,36
 1405 174 1405 174 1512 232 c 2,37,-1
 1573 266 l 1,38,-1
 1646 100 l 1,39,40
 1576 44 1576 44 1471.5 12 c 128,-1,41
 1367 -20 1367 -20 1254 -20 c 0,0,1
495 164 m 0,42,43
 553 164 553 164 621 193.5 c 128,-1,44
 689 223 689 223 734 266 c 1,45,-1
 734 475 l 1,46,-1
 538 475 l 2,47,48
 434 473 434 473 374 425.5 c 128,-1,49
 314 378 314 378 314 308 c 0,50,51
 314 243 314 243 360.5 203.5 c 128,-1,52
 407 164 407 164 495 164 c 0,42,43
1218 907 m 0,53,54
 1119 907 1119 907 1055.5 838 c 128,-1,55
 992 769 992 769 976 642 c 1,56,-1
 1428 642 l 1,57,-1
 1428 672 l 2,58,59
 1428 785 1428 785 1373.5 846 c 128,-1,60
 1319 907 1319 907 1218 907 c 0,53,54
EndSplineSet
Substitution2: "'smcp' Lowercase to Small Capitals lookup 1 subtable" AE.c2sc
EndChar

StartChar: eth
Encoding: 240 240 135
Width: 1191
GlyphClass: 1
Flags: W
LayerCount: 2
Fore
SplineSet
834 1303 m 1,0,1
 1088 1038 1088 1038 1088 637 c 2,2,-1
 1088 555 l 2,3,4
 1088 389 1088 389 1025 257.5 c 128,-1,5
 962 126 962 126 847.5 53 c 128,-1,6
 733 -20 733 -20 593 -20 c 0,7,8
 455 -20 455 -20 342 43 c 128,-1,9
 229 106 229 106 166 219 c 128,-1,10
 103 332 103 332 103 468 c 0,11,12
 103 617 103 617 159.5 732.5 c 128,-1,13
 216 848 216 848 319 910.5 c 128,-1,14
 422 973 422 973 554 973 c 0,15,16
 700 973 700 973 813 882 c 1,17,18
 764 1051 764 1051 638 1173 c 1,19,-1
 434 1038 l 1,20,-1
 356 1147 l 1,21,-1
 528 1261 l 1,22,23
 402 1343 402 1343 240 1385 c 1,24,-1
 315 1580 l 1,25,26
 553 1530 553 1530 730 1395 c 1,27,-1
 910 1515 l 1,28,-1
 988 1406 l 1,29,-1
 834 1303 l 1,0,1
845 663 m 1,30,-1
 844 681 l 1,31,32
 812 729 812 729 750.5 757 c 128,-1,33
 689 785 689 785 611 785 c 0,34,35
 485 785 485 785 415.5 701 c 128,-1,36
 346 617 346 617 346 468 c 0,37,38
 346 342 346 342 416.5 258 c 128,-1,39
 487 174 487 174 597 174 c 0,40,41
 708 174 708 174 776.5 274 c 128,-1,42
 845 374 845 374 845 547 c 2,43,-1
 845 663 l 1,30,-1
EndSplineSet
Substitution2: "'smcp' Lowercase to Small Capitals lookup 1 subtable" Eth.c2sc
EndChar

StartChar: divide
Encoding: 247 247 136
Width: 1169
GlyphClass: 1
Flags: W
LayerCount: 2
Fore
SplineSet
1079 582 m 1,0,-1
 67 582 l 1,1,-1
 67 794 l 1,2,-1
 1079 794 l 1,3,-1
 1079 582 l 1,0,-1
576 1228 m 0,4,5
 644 1228 644 1228 681 1190 c 128,-1,6
 718 1152 718 1152 718 1095 c 128,-1,7
 718 1038 718 1038 681 1000.5 c 128,-1,8
 644 963 644 963 576 963 c 0,9,10
 509 963 509 963 472 1000.5 c 128,-1,11
 435 1038 435 1038 435 1095 c 128,-1,12
 435 1152 435 1152 472 1190 c 128,-1,13
 509 1228 509 1228 576 1228 c 0,4,5
435 278 m 0,14,15
 435 336 435 336 472 374 c 128,-1,16
 509 412 509 412 576 412 c 0,17,18
 644 412 644 412 681 374 c 128,-1,19
 718 336 718 336 718 278 c 0,20,21
 718 221 718 221 681 184 c 128,-1,22
 644 147 644 147 576 147 c 0,23,24
 509 147 509 147 472 184 c 128,-1,25
 435 221 435 221 435 278 c 0,14,15
EndSplineSet
EndChar

StartChar: oslash
Encoding: 248 248 137
Width: 1160
GlyphClass: 2
Flags: W
LayerCount: 2
Fore
SplineSet
79 551 m 0,0,1
 79 710 79 710 142 837.5 c 128,-1,2
 205 965 205 965 319 1033.5 c 128,-1,3
 433 1102 433 1102 581 1102 c 0,4,5
 687 1102 687 1102 775 1068 c 1,6,-1
 846 1211 l 1,7,-1
 991 1211 l 1,8,-1
 889 1003 l 1,9,10
 1085 850 1085 850 1085 530 c 0,11,12
 1085 370 1085 370 1023.5 244 c 128,-1,13
 962 118 962 118 847.5 49 c 128,-1,14
 733 -20 733 -20 583 -20 c 0,15,16
 490 -20 490 -20 400 10 c 1,17,-1
 328 -137 l 1,18,-1
 183 -137 l 1,19,-1
 285 70 l 1,20,21
 79 220 79 220 79 551 c 0,0,1
322 530 m 0,22,23
 322 374 322 374 386 276 c 1,24,-1
 685 885 l 1,25,26
 638 907 638 907 581 907 c 0,27,28
 462 907 462 907 392 812.5 c 128,-1,29
 322 718 322 718 322 530 c 0,22,23
843 551 m 0,30,31
 843 699 843 699 785 792 c 1,32,-1
 489 191 l 1,33,34
 532 174 532 174 583 174 c 0,35,36
 706 174 706 174 774.5 270 c 128,-1,37
 843 366 843 366 843 551 c 0,30,31
EndSplineSet
Substitution2: "'smcp' Lowercase to Small Capitals lookup 1 subtable" Oslash.c2sc
EndChar

StartChar: thorn
Encoding: 254 254 138
Width: 1175
GlyphClass: 1
Flags: W
LayerCount: 2
Fore
SplineSet
1079 530 m 2,0,1
 1079 283 1079 283 965.5 131.5 c 128,-1,2
 852 -20 852 -20 658 -20 c 0,3,4
 480 -20 480 -20 373 97 c 1,5,-1
 373 -416 l 1,6,-1
 130 -416 l 1,7,-1
 130 1536 l 1,8,-1
 373 1536 l 1,9,-1
 373 983 l 1,10,11
 479 1102 479 1102 655 1102 c 0,12,13
 852 1102 852 1102 965.5 955 c 128,-1,14
 1079 808 1079 808 1079 546 c 2,15,-1
 1079 530 l 2,0,1
836 551 m 0,16,17
 836 717 836 717 770.5 810 c 128,-1,18
 705 903 705 903 587 903 c 0,19,20
 438 903 438 903 373 780 c 1,21,-1
 373 300 l 1,22,23
 439 174 439 174 589 174 c 0,24,25
 705 174 705 174 770.5 267.5 c 128,-1,26
 836 361 836 361 836 551 c 0,16,17
EndSplineSet
Substitution2: "'smcp' Lowercase to Small Capitals lookup 1 subtable" Thorn.c2sc
EndChar

StartChar: dcroat
Encoding: 273 273 139
Width: 1261
GlyphClass: 2
Flags: W
LayerCount: 2
Fore
SplineSet
1202 1224 m 1,0,-1
 1027 1224 l 1,1,-1
 1027 0 l 1,2,-1
 807 0 l 1,3,-1
 795 112 l 1,4,5
 686 -20 686 -20 504 -20 c 0,6,7
 314 -20 314 -20 196.5 133 c 128,-1,8
 79 286 79 286 79 549 c 0,9,10
 79 799 79 799 195 950.5 c 128,-1,11
 311 1102 311 1102 506 1102 c 0,12,13
 678 1102 678 1102 784 982 c 1,14,-1
 784 1224 l 1,15,-1
 533 1224 l 1,16,-1
 533 1394 l 1,17,-1
 784 1394 l 1,18,-1
 784 1536 l 1,19,-1
 1027 1536 l 1,20,-1
 1027 1394 l 1,21,-1
 1202 1394 l 1,22,-1
 1202 1224 l 1,0,-1
322 528 m 0,23,24
 322 363 322 363 385.5 270.5 c 128,-1,25
 449 178 449 178 566 178 c 0,26,27
 715 178 715 178 784 311 c 1,28,-1
 784 773 l 1,29,30
 717 903 717 903 568 903 c 0,31,32
 450 903 450 903 386 809.5 c 128,-1,33
 322 716 322 716 322 528 c 0,23,24
EndSplineSet
Substitution2: "'smcp' Lowercase to Small Capitals lookup 1 subtable" Dcroat.c2sc
EndChar

StartChar: Hbar
Encoding: 294 294 140
Width: 1456
GlyphClass: 2
Flags: W
LayerCount: 2
Fore
SplineSet
1310 1198 m 1,0,-1
 1437 1198 l 1,1,-1
 1437 1036 l 1,2,-1
 1310 1036 l 1,3,-1
 1310 0 l 1,4,-1
 1058 0 l 1,5,-1
 1058 647 l 1,6,-1
 407 647 l 1,7,-1
 407 0 l 1,8,-1
 155 0 l 1,9,-1
 155 1036 l 1,10,-1
 31 1036 l 1,11,-1
 31 1198 l 1,12,-1
 155 1198 l 1,13,-1
 155 1456 l 1,14,-1
 407 1456 l 1,15,-1
 407 1198 l 1,16,-1
 1058 1198 l 1,17,-1
 1058 1456 l 1,18,-1
 1310 1456 l 1,19,-1
 1310 1198 l 1,0,-1
407 850 m 1,20,-1
 1058 850 l 1,21,-1
 1058 1036 l 1,22,-1
 407 1036 l 1,23,-1
 407 850 l 1,20,-1
EndSplineSet
Substitution2: "'c2sc' Capitals to Small Capitals lookup 0 subtable" Hbar.c2sc
Position2: "'cpsp' Capital Spacing lookup 0 subtable" dx=36 dy=0 dh=72 dv=0
EndChar

StartChar: dotlessi
Encoding: 305 305 141
Width: 538
GlyphClass: 2
Flags: W
LayerCount: 2
Fore
SplineSet
386 0 m 1,0,-1
 143 0 l 1,1,-1
 143 1082 l 1,2,-1
 386 1082 l 1,3,-1
 386 0 l 1,0,-1
EndSplineSet
Substitution2: "'smcp' Lowercase to Small Capitals lookup 1 subtable" I.c2sc
EndChar

StartChar: kgreenlandic
Encoding: 312 312 142
Width: 1176
GlyphClass: 2
Flags: W
LayerCount: 2
Fore
SplineSet
495 428 m 1,0,-1
 384 428 l 1,1,-1
 384 0 l 1,2,-1
 142 0 l 1,3,-1
 142 1082 l 1,4,-1
 384 1082 l 1,5,-1
 384 650 l 1,6,-1
 469 650 l 1,7,-1
 805 1082 l 1,8,-1
 1105 1082 l 1,9,-1
 690 557 l 1,10,-1
 1131 0 l 1,11,-1
 822 0 l 1,12,-1
 495 428 l 1,0,-1
EndSplineSet
EndChar

StartChar: Lslash
Encoding: 321 321 143
Width: 1124
GlyphClass: 2
Flags: W
LayerCount: 2
Fore
SplineSet
417 871 m 1,0,-1
 651 942 l 1,1,-1
 651 795 l 1,2,-1
 417 724 l 1,3,-1
 417 202 l 1,4,-1
 1078 202 l 1,5,-1
 1078 0 l 1,6,-1
 164 0 l 1,7,-1
 164 647 l 1,8,-1
 34 608 l 1,9,-1
 34 755 l 1,10,-1
 164 794 l 1,11,-1
 164 1456 l 1,12,-1
 417 1456 l 1,13,-1
 417 871 l 1,0,-1
EndSplineSet
Substitution2: "'c2sc' Capitals to Small Capitals lookup 0 subtable" Lslash.c2sc
Position2: "'cpsp' Capital Spacing lookup 0 subtable" dx=36 dy=0 dh=72 dv=0
EndChar

StartChar: lslash
Encoding: 322 322 144
Width: 591
GlyphClass: 2
Flags: W
LayerCount: 2
Fore
SplineSet
410 889 m 1,0,-1
 558 942 l 1,1,-1
 558 796 l 1,2,-1
 410 743 l 1,3,-1
 410 0 l 1,4,-1
 167 0 l 1,5,-1
 167 656 l 1,6,-1
 33 609 l 1,7,-1
 33 755 l 1,8,-1
 167 802 l 1,9,-1
 167 1536 l 1,10,-1
 410 1536 l 1,11,-1
 410 889 l 1,0,-1
EndSplineSet
Substitution2: "'smcp' Lowercase to Small Capitals lookup 1 subtable" Lslash.c2sc
EndChar

StartChar: Eng
Encoding: 330 330 145
Width: 1427
GlyphClass: 2
Flags: W
LayerCount: 2
Fore
SplineSet
1289 1456 m 1,0,-1
 1289 -56 l 2,1,2
 1289 -239 1289 -239 1194 -338 c 128,-1,3
 1099 -437 1099 -437 930 -437 c 0,4,5
 860 -437 860 -437 800 -420 c 1,6,-1
 814 -221 l 1,7,8
 854 -233 854 -233 912 -233 c 0,9,10
 1035 -233 1035 -233 1035 -49 c 2,11,-1
 1035 0 l 1,12,-1
 396 1045 l 1,13,-1
 396 0 l 1,14,-1
 144 0 l 1,15,-1
 144 1456 l 1,16,-1
 396 1456 l 1,17,-1
 1035 412 l 1,18,-1
 1035 1456 l 1,19,-1
 1289 1456 l 1,0,-1
EndSplineSet
Substitution2: "'c2sc' Capitals to Small Capitals lookup 0 subtable" Eng.c2sc
Position2: "'cpsp' Capital Spacing lookup 0 subtable" dx=36 dy=0 dh=72 dv=0
EndChar

StartChar: eng
Encoding: 331 331 146
Width: 1160
GlyphClass: 2
Flags: W
LayerCount: 2
Fore
SplineSet
348 1082 m 1,0,-1
 361 932 l 1,1,2
 476 1102 476 1102 672 1102 c 0,3,4
 848 1102 848 1102 938.5 995 c 128,-1,5
 1029 888 1029 888 1030 678 c 2,6,-1
 1030 -63 l 2,7,8
 1030 -243 1030 -243 936.5 -340 c 128,-1,9
 843 -437 843 -437 677 -437 c 0,10,11
 608 -437 608 -437 550 -420 c 1,12,-1
 564 -222 l 1,13,14
 604 -234 604 -234 663 -234 c 0,15,16
 787 -234 787 -234 787 -58 c 2,17,-1
 787 671 l 2,18,19
 787 791 787 791 740.5 847 c 128,-1,20
 694 903 694 903 589 903 c 0,21,22
 444 903 444 903 369 800 c 1,23,-1
 369 0 l 1,24,-1
 126 0 l 1,25,-1
 126 1082 l 1,26,-1
 348 1082 l 1,0,-1
EndSplineSet
Substitution2: "'smcp' Lowercase to Small Capitals lookup 1 subtable" Eng.c2sc
EndChar

StartChar: OE
Encoding: 338 338 147
Width: 1972
GlyphClass: 2
Flags: W
LayerCount: 2
Fore
SplineSet
1837 0 m 1,0,-1
 970 0 l 1,1,2
 803 -20 803 -20 682 -20 c 0,3,4
 515 -20 515 -20 382.5 53.5 c 128,-1,5
 250 127 250 127 176 261.5 c 128,-1,6
 102 396 102 396 100 566 c 2,7,-1
 100 880 l 2,8,9
 100 1052 100 1052 172.5 1189 c 128,-1,10
 245 1326 245 1326 378.5 1401 c 128,-1,11
 512 1476 512 1476 680 1476 c 0,12,13
 803 1476 803 1476 970 1456 c 1,14,-1
 1830 1456 l 1,15,-1
 1830 1252 l 1,16,-1
 1138 1252 l 1,17,-1
 1138 850 l 1,18,-1
 1736 850 l 1,19,-1
 1736 650 l 1,20,-1
 1138 650 l 1,21,-1
 1138 202 l 1,22,-1
 1837 202 l 1,23,-1
 1837 0 l 1,0,-1
682 174 m 0,24,25
 781 174 781 174 885 187 c 1,26,-1
 885 1267 l 1,27,28
 771 1281 771 1281 680 1281 c 0,29,30
 519 1281 519 1281 431.5 1177.5 c 128,-1,31
 344 1074 344 1074 343 886 c 2,32,-1
 343 576 l 2,33,34
 343 383 343 383 432 278.5 c 128,-1,35
 521 174 521 174 682 174 c 0,24,25
EndSplineSet
Substitution2: "'c2sc' Capitals to Small Capitals lookup 0 subtable" OE.c2sc
Position2: "'cpsp' Capital Spacing lookup 0 subtable" dx=36 dy=0 dh=72 dv=0
EndChar

StartChar: oe
Encoding: 339 339 148
Width: 1850
GlyphClass: 2
Flags: W
LayerCount: 2
Fore
SplineSet
91 551 m 2,0,1
 91 799 91 799 226.5 950.5 c 128,-1,2
 362 1102 362 1102 586 1102 c 0,3,4
 835 1102 835 1102 969 925 c 1,5,6
 1034 1009 1034 1009 1125.5 1056 c 128,-1,7
 1217 1103 1217 1103 1326 1102 c 0,8,9
 1540 1102 1540 1102 1659 972.5 c 128,-1,10
 1778 843 1778 843 1778 607 c 2,11,-1
 1778 471 l 1,12,-1
 1096 471 l 1,13,14
 1107 332 1107 332 1179.5 253 c 128,-1,15
 1252 174 1252 174 1369 174 c 0,16,17
 1458 174 1458 174 1529.5 195 c 128,-1,18
 1601 216 1601 216 1672 266 c 1,19,-1
 1751 108 l 1,20,21
 1680 45 1680 45 1577.5 12.5 c 128,-1,22
 1475 -20 1475 -20 1355 -20 c 0,23,24
 1108 -20 1108 -20 968 154 c 1,25,26
 834 -20 834 -20 588 -20 c 0,27,28
 361 -20 361 -20 226 130.5 c 128,-1,29
 91 281 91 281 91 539 c 2,30,-1
 91 551 l 2,0,1
333 530 m 0,31,32
 333 360 333 360 400 267 c 128,-1,33
 467 174 467 174 588 174 c 0,34,35
 707 174 707 174 774 266.5 c 128,-1,36
 841 359 841 359 841 551 c 0,37,38
 841 717 841 717 773.5 812 c 128,-1,39
 706 907 706 907 586 907 c 0,40,41
 469 907 469 907 401 814 c 128,-1,42
 333 721 333 721 333 530 c 0,31,32
1326 907 m 0,43,44
 1241 907 1241 907 1181 838.5 c 128,-1,45
 1121 770 1121 770 1101 649 c 1,46,-1
 1538 649 l 1,47,-1
 1538 674 l 2,48,49
 1538 785 1538 785 1481.5 846 c 128,-1,50
 1425 907 1425 907 1326 907 c 0,43,44
EndSplineSet
Substitution2: "'smcp' Lowercase to Small Capitals lookup 1 subtable" OE.c2sc
EndChar

StartChar: longs
Encoding: 383 383 149
Width: 524
GlyphClass: 2
Flags: W
LayerCount: 2
Fore
SplineSet
139 0 m 1,0,-1
 139 1180 l 2,1,2
 139 1362 139 1362 236 1459.5 c 128,-1,3
 333 1557 333 1557 509 1557 c 0,4,5
 572 1557 572 1557 661 1536 c 1,6,-1
 636 1351 l 1,7,8
 594 1362 594 1362 544 1362 c 0,9,10
 381 1362 381 1362 381 1176 c 2,11,-1
 381 0 l 1,12,-1
 139 0 l 1,0,-1
EndSplineSet
EndChar

StartChar: uni018F
Encoding: 399 399 150
Width: 1416
GlyphClass: 2
Flags: W
LayerCount: 2
Fore
SplineSet
696 -20 m 0,0,1
 404 -20 404 -20 242.5 156 c 128,-1,2
 81 332 81 332 81 661 c 2,3,-1
 81 798 l 1,4,-1
 1057 798 l 1,5,6
 1052 1022 1052 1022 940.5 1142 c 128,-1,7
 829 1262 829 1262 625 1262 c 0,8,9
 458 1262 458 1262 307 1210 c 2,10,-1
 255 1191 l 1,11,-1
 206 1389 l 1,12,-1
 239 1404 l 1,13,14
 415 1476 415 1476 633 1476 c 0,15,16
 947 1476 947 1476 1128.5 1289.5 c 128,-1,17
 1310 1103 1310 1103 1310 774 c 2,18,-1
 1310 667 l 2,19,20
 1310 472 1310 472 1229 313.5 c 128,-1,21
 1148 155 1148 155 1006.5 67.5 c 128,-1,22
 865 -20 865 -20 696 -20 c 0,0,1
696 192 m 0,23,24
 846 192 846 192 941 301 c 128,-1,25
 1036 410 1036 410 1054 599 c 1,26,-1
 333 599 l 1,27,-1
 333 568 l 2,28,29
 333 383 333 383 426 287.5 c 128,-1,30
 519 192 519 192 696 192 c 0,23,24
EndSplineSet
EndChar

StartChar: florin
Encoding: 402 402 151
Width: 720
GlyphClass: 1
Flags: W
LayerCount: 2
Fore
SplineSet
644 902 m 1,0,-1
 443 902 l 1,1,-1
 443 -69 l 2,2,3
 443 -245 443 -245 352.5 -341 c 128,-1,4
 262 -437 262 -437 98 -437 c 0,5,6
 26 -437 26 -437 -28 -420 c 1,7,-1
 -13 -229 l 1,8,9
 -6 -232 -6 -232 28 -237 c 128,-1,10
 62 -242 62 -242 80 -242 c 0,11,12
 200 -242 200 -242 200 -68 c 2,13,-1
 200 902 l 1,14,-1
 35 902 l 1,15,-1
 35 1082 l 1,16,-1
 200 1082 l 1,17,-1
 200 1180 l 2,18,19
 200 1362 200 1362 297 1459.5 c 128,-1,20
 394 1557 394 1557 571 1557 c 0,21,22
 632 1557 632 1557 723 1536 c 1,23,-1
 698 1348 l 1,24,25
 660 1358 660 1358 601 1358 c 0,26,27
 444 1358 444 1358 443 1185 c 2,28,-1
 443 1082 l 1,29,-1
 644 1082 l 1,30,-1
 644 902 l 1,0,-1
EndSplineSet
EndChar

StartChar: Ohorn
Encoding: 416 416 152
Width: 1418
GlyphClass: 2
Flags: W
LayerCount: 2
Fore
SplineSet
1296 690 m 2,0,1
 1296 476 1296 476 1222 314.5 c 128,-1,2
 1148 153 1148 153 1010.5 66.5 c 128,-1,3
 873 -20 873 -20 693 -20 c 0,4,5
 517 -20 517 -20 378.5 66.5 c 128,-1,6
 240 153 240 153 164.5 313 c 128,-1,7
 89 473 89 473 88 682 c 2,8,-1
 88 764 l 2,9,10
 88 977 88 977 163.5 1140 c 128,-1,11
 239 1303 239 1303 376.5 1389.5 c 128,-1,12
 514 1476 514 1476 691 1476 c 0,13,14
 946 1476 946 1476 1108 1308 c 1,15,16
 1187 1321 1187 1321 1225 1386.5 c 128,-1,17
 1263 1452 1263 1452 1263 1582 c 1,18,-1
 1450 1582 l 1,19,20
 1450 1418 1450 1418 1389.5 1313.5 c 128,-1,21
 1329 1209 1329 1209 1205 1174 c 1,22,23
 1292 1007 1292 1007 1296 784 c 1,24,-1
 1296 690 l 2,0,1
1043 766 m 2,25,26
 1043 1012 1043 1012 951 1139 c 128,-1,27
 859 1266 859 1266 691 1266 c 0,28,29
 527 1266 527 1266 434.5 1137.5 c 128,-1,30
 342 1009 342 1009 340 774 c 2,31,-1
 340 690 l 2,32,33
 340 454 340 454 432.5 321 c 128,-1,34
 525 188 525 188 693 188 c 0,35,36
 862 188 862 188 952.5 316 c 128,-1,37
 1043 444 1043 444 1043 690 c 2,38,-1
 1043 766 l 2,25,26
EndSplineSet
EndChar

StartChar: ohorn
Encoding: 417 417 153
Width: 1182
GlyphClass: 2
Flags: W
LayerCount: 2
Fore
SplineSet
79 551 m 2,0,1
 79 712 79 712 141.5 838.5 c 128,-1,2
 204 965 204 965 318 1033.5 c 128,-1,3
 432 1102 432 1102 580 1102 c 0,4,5
 805 1102 805 1102 943 953 c 1,6,7
 996 972 996 972 1020 1025 c 128,-1,8
 1044 1078 1044 1078 1044 1192 c 1,9,-1
 1211 1192 l 1,10,11
 1211 1058 1211 1058 1167 968.5 c 128,-1,12
 1123 879 1123 879 1020 842 c 1,13,14
 1083 717 1083 717 1085 559 c 2,15,-1
 1085 530 l 2,16,17
 1085 370 1085 370 1023.5 244 c 128,-1,18
 962 118 962 118 846.5 49 c 128,-1,19
 731 -20 731 -20 582 -20 c 0,20,21
 355 -20 355 -20 217 131 c 128,-1,22
 79 282 79 282 79 539 c 2,23,-1
 79 551 l 2,0,1
321 530 m 0,24,25
 321 363 321 363 390 268.5 c 128,-1,26
 459 174 459 174 582 174 c 128,-1,27
 705 174 705 174 773.5 270 c 128,-1,28
 842 366 842 366 842 551 c 0,29,30
 842 718 842 718 771.5 812.5 c 128,-1,31
 701 907 701 907 580 907 c 0,32,33
 461 907 461 907 391 812.5 c 128,-1,34
 321 718 321 718 321 530 c 0,24,25
EndSplineSet
EndChar

StartChar: Uhorn
Encoding: 431 431 154
Width: 1444
GlyphClass: 2
Flags: W
LayerCount: 2
Fore
SplineSet
1213 1456 m 1,0,-1
 1213 1236 l 1,1,2
 1322 1246 1322 1246 1369 1311 c 128,-1,3
 1416 1376 1416 1376 1416 1537 c 1,4,-1
 1597 1537 l 1,5,6
 1597 1309 1597 1309 1503.5 1202 c 128,-1,7
 1410 1095 1410 1095 1213 1086 c 1,8,-1
 1213 483 l 2,9,10
 1213 251 1213 251 1064.5 115.5 c 128,-1,11
 916 -20 916 -20 669 -20 c 0,12,13
 419 -20 419 -20 272 113.5 c 128,-1,14
 125 247 125 247 125 484 c 2,15,-1
 125 1456 l 1,16,-1
 377 1456 l 1,17,-1
 377 482 l 2,18,19
 377 336 377 336 451 259 c 128,-1,20
 525 182 525 182 669 182 c 0,21,22
 961 182 961 182 961 490 c 2,23,-1
 961 1456 l 1,24,-1
 1213 1456 l 1,0,-1
EndSplineSet
EndChar

StartChar: uhorn
Encoding: 432 432 155
Width: 1266
GlyphClass: 2
Flags: W
LayerCount: 2
Fore
SplineSet
1320 1171 m 1,0,1
 1320 993 1320 993 1248.5 910.5 c 128,-1,2
 1177 828 1177 828 1015 817 c 1,3,-1
 1015 0 l 1,4,-1
 786 0 l 1,5,-1
 780 106 l 1,6,7
 673 -20 673 -20 476 -20 c 0,8,9
 300 -20 300 -20 209.5 83 c 128,-1,10
 119 186 119 186 119 381 c 2,11,-1
 119 1082 l 1,12,-1
 362 1082 l 1,13,-1
 362 384 l 2,14,15
 362 178 362 178 533 178 c 0,16,17
 710 178 710 178 772 305 c 1,18,-1
 772 1082 l 1,19,-1
 1015 1082 l 1,20,-1
 1015 946 l 1,21,22
 1087 953 1087 953 1119.5 986 c 128,-1,23
 1152 1019 1152 1019 1157 1095 c 2,24,-1
 1159 1171 l 1,25,-1
 1320 1171 l 1,0,1
EndSplineSet
EndChar

StartChar: uni0237
Encoding: 567 567 156
Width: 550
GlyphClass: 2
Flags: W
LayerCount: 2
Fore
SplineSet
403 1082 m 1,0,-1
 403 -65 l 2,1,2
 402 -243 402 -243 310 -340 c 128,-1,3
 218 -437 218 -437 51 -437 c 0,4,5
 -19 -437 -19 -437 -75 -420 c 1,6,-1
 -60 -229 l 1,7,8
 -21 -242 -21 -242 37 -242 c 0,9,10
 161 -242 161 -242 161 -50 c 2,11,-1
 161 1082 l 1,12,-1
 403 1082 l 1,0,-1
EndSplineSet
EndChar

StartChar: uni0259
Encoding: 601 601 157
Width: 1084
GlyphClass: 2
Flags: W
LayerCount: 2
Fore
SplineSet
512 1103 m 0,0,1
 740 1103 740 1103 878 953 c 128,-1,2
 1016 803 1016 803 1016 557 c 2,3,-1
 1016 526 l 2,4,5
 1016 372 1016 372 954.5 246.5 c 128,-1,6
 893 121 893 121 784 50.5 c 128,-1,7
 675 -20 675 -20 541 -19 c 0,8,9
 328 -19 328 -19 208.5 109.5 c 128,-1,10
 89 238 89 238 89 475 c 2,11,-1
 89 611 l 1,12,-1
 771 611 l 1,13,14
 760 747 760 747 688.5 827.5 c 128,-1,15
 617 908 617 908 498 908 c 0,16,17
 412 908 412 908 342.5 888.5 c 128,-1,18
 273 869 273 869 195 816 c 1,19,-1
 116 974 l 1,20,21
 186 1036 186 1036 291 1069.5 c 128,-1,22
 396 1103 396 1103 512 1103 c 0,0,1
541 175 m 0,23,24
 627 175 627 175 687 246 c 128,-1,25
 747 317 747 317 766 433 c 1,26,-1
 329 433 l 1,27,-1
 329 408 l 2,28,29
 329 297 329 297 385.5 236 c 128,-1,30
 442 175 442 175 541 175 c 0,23,24
EndSplineSet
EndChar

StartChar: circumflex
Encoding: 710 710 158
Width: 998
GlyphClass: 1
Flags: W
LayerCount: 2
Fore
SplineSet
835 1259 m 1,0,-1
 835 1248 l 1,1,-1
 640 1248 l 1,2,-1
 490 1404 l 1,3,-1
 341 1248 l 1,4,-1
 148 1248 l 1,5,-1
 148 1261 l 1,6,-1
 419 1537 l 1,7,-1
 562 1537 l 1,8,-1
 835 1259 l 1,0,-1
EndSplineSet
EndChar

StartChar: caron
Encoding: 711 711 159
Width: 944
GlyphClass: 1
Flags: W
LayerCount: 2
Fore
SplineSet
466 1382 m 1,0,-1
 612 1537 l 1,1,-1
 820 1537 l 1,2,-1
 820 1527 l 1,3,-1
 541 1248 l 1,4,-1
 391 1248 l 1,5,-1
 114 1528 l 1,6,-1
 114 1537 l 1,7,-1
 320 1537 l 1,8,-1
 466 1382 l 1,0,-1
EndSplineSet
EndChar

StartChar: breve
Encoding: 728 728 161
Width: 892
GlyphClass: 1
Flags: W
LayerCount: 2
Fore
SplineSet
763 1510 m 1,0,1
 763 1384 763 1384 675 1306 c 128,-1,2
 587 1228 587 1228 440 1228 c 128,-1,3
 293 1228 293 1228 205 1306 c 128,-1,4
 117 1384 117 1384 117 1510 c 1,5,-1
 299 1510 l 1,6,7
 299 1444 299 1444 336.5 1407.5 c 128,-1,8
 374 1371 374 1371 440 1371 c 128,-1,9
 506 1371 506 1371 543 1407.5 c 128,-1,10
 580 1444 580 1444 580 1510 c 1,11,-1
 763 1510 l 1,0,1
EndSplineSet
EndChar

StartChar: dotaccent
Encoding: 729 729 162
Width: 523
GlyphClass: 1
Flags: W
LayerCount: 2
Fore
SplineSet
129 1369 m 0,0,1
 129 1422 129 1422 163 1457.5 c 128,-1,2
 197 1493 197 1493 260 1493 c 128,-1,3
 323 1493 323 1493 357 1457.5 c 128,-1,4
 391 1422 391 1422 391 1369 c 0,5,6
 391 1317 391 1317 357 1282 c 128,-1,7
 323 1247 323 1247 260 1247 c 128,-1,8
 197 1247 197 1247 163 1282 c 128,-1,9
 129 1317 129 1317 129 1369 c 0,0,1
EndSplineSet
EndChar

StartChar: ring
Encoding: 730 730 163
Width: 690
GlyphClass: 1
Flags: W
LayerCount: 2
Fore
SplineSet
342 1578 m 0,0,1
 435 1578 435 1578 499 1516.5 c 128,-1,2
 563 1455 563 1455 563 1370 c 128,-1,3
 563 1285 563 1285 500.5 1225 c 128,-1,4
 438 1165 438 1165 342 1165 c 0,5,6
 245 1165 245 1165 182.5 1225 c 128,-1,7
 120 1285 120 1285 120 1370 c 128,-1,8
 120 1455 120 1455 183.5 1516.5 c 128,-1,9
 247 1578 247 1578 342 1578 c 0,0,1
230 1370 m 0,10,11
 230 1323 230 1323 263 1290.5 c 128,-1,12
 296 1258 296 1258 342 1258 c 0,13,14
 389 1258 389 1258 421.5 1290 c 128,-1,15
 454 1322 454 1322 454 1370 c 0,16,17
 454 1416 454 1416 422.5 1449.5 c 128,-1,18
 391 1483 391 1483 342 1483 c 128,-1,19
 293 1483 293 1483 261.5 1449.5 c 128,-1,20
 230 1416 230 1416 230 1370 c 0,10,11
EndSplineSet
EndChar

StartChar: ogonek
Encoding: 731 731 164
Width: 589
GlyphClass: 2
Flags: W
LayerCount: 2
Fore
SplineSet
396 0 m 1,0,1
 309 -56 309 -56 272 -103 c 128,-1,2
 235 -150 235 -150 235 -199 c 0,3,4
 235 -267 235 -267 306 -267 c 0,5,6
 350 -267 350 -267 396 -244 c 1,7,-1
 417 -386 l 1,8,9
 344 -430 344 -430 252 -430 c 0,10,11
 157 -430 157 -430 99 -375 c 128,-1,12
 41 -320 41 -320 41 -229 c 0,13,14
 41 -48 41 -48 285 60 c 1,15,-1
 396 0 l 1,0,1
EndSplineSet
EndChar

StartChar: tilde
Encoding: 732 732 165
Width: 984
GlyphClass: 1
Flags: W
LayerCount: 2
Fore
SplineSet
855 1513 m 1,0,1
 855 1403 855 1403 791.5 1330 c 128,-1,2
 728 1257 728 1257 632 1257 c 0,3,4
 593 1257 593 1257 564.5 1265.5 c 128,-1,5
 536 1274 536 1274 483.5 1304 c 128,-1,6
 431 1334 431 1334 409.5 1340 c 128,-1,7
 388 1346 388 1346 362 1346 c 0,8,9
 324 1346 324 1346 297.5 1317.5 c 128,-1,10
 271 1289 271 1289 271 1243 c 1,11,-1
 122 1251 l 1,12,13
 122 1361 122 1361 185.5 1436 c 128,-1,14
 249 1511 249 1511 344 1511 c 0,15,16
 401 1511 401 1511 481.5 1466 c 128,-1,17
 562 1421 562 1421 614 1421 c 0,18,19
 652 1421 652 1421 679 1449.5 c 128,-1,20
 706 1478 706 1478 706 1525 c 1,21,-1
 855 1513 l 1,0,1
EndSplineSet
EndChar

StartChar: hungarumlaut
Encoding: 733 733 166
Width: 799
GlyphClass: 1
Flags: W
LayerCount: 2
Fore
SplineSet
616 1535 m 1,0,-1
 854 1535 l 1,1,-1
 588 1233 l 1,2,-1
 391 1233 l 1,3,-1
 616 1535 l 1,0,-1
247 1535 m 1,4,-1
 480 1535 l 1,5,-1
 258 1233 l 1,6,-1
 73 1233 l 1,7,-1
 247 1535 l 1,4,-1
EndSplineSet
EndChar

StartChar: uni02F3
Encoding: 755 755 167
Width: 620
GlyphClass: 1
Flags: W
LayerCount: 2
Fore
SplineSet
130 -238 m 0,0,1
 130 -165 130 -165 182.5 -115.5 c 128,-1,2
 235 -66 235 -66 313 -66 c 0,3,4
 386 -66 386 -66 439 -114.5 c 128,-1,5
 492 -163 492 -163 492 -238 c 0,6,7
 492 -312 492 -312 439 -359 c 128,-1,8
 386 -406 386 -406 313 -406 c 0,9,10
 235 -406 235 -406 182.5 -358 c 128,-1,11
 130 -310 130 -310 130 -238 c 0,0,1
231 -238 m 0,12,13
 231 -271 231 -271 255 -294 c 128,-1,14
 279 -317 279 -317 313 -317 c 0,15,16
 346 -317 346 -317 368.5 -294.5 c 128,-1,17
 391 -272 391 -272 391 -238 c 0,18,19
 391 -202 391 -202 368.5 -178 c 128,-1,20
 346 -154 346 -154 313 -154 c 0,21,22
 279 -154 279 -154 255 -178 c 128,-1,23
 231 -202 231 -202 231 -238 c 0,12,13
EndSplineSet
EndChar

StartChar: gravecomb
Encoding: 768 768 168
Width: 0
GlyphClass: 4
Flags: W
LayerCount: 2
Fore
SplineSet
-410 1233 m 1,0,-1
 -612 1233 l 1,1,-1
 -882 1536 l 1,2,-1
 -605 1536 l 1,3,-1
 -410 1233 l 1,0,-1
EndSplineSet
EndChar

StartChar: acutecomb
Encoding: 769 769 169
Width: 0
GlyphClass: 4
Flags: W
LayerCount: 2
Fore
SplineSet
-479 1536 m 1,0,-1
 -202 1536 l 1,1,-1
 -479 1233 l 1,2,-1
 -674 1233 l 1,3,-1
 -479 1536 l 1,0,-1
EndSplineSet
EndChar

StartChar: hookabovecomb
Encoding: 777 777 171
Width: 0
GlyphClass: 4
Flags: W
LayerCount: 2
Fore
SplineSet
-687 1254 m 1,0,-1
 -694 1400 l 1,1,2
 -621 1405 -621 1405 -588.5 1419 c 128,-1,3
 -556 1433 -556 1433 -556 1468 c 0,4,5
 -556 1540 -556 1540 -706 1540 c 1,6,-1
 -699 1663 l 1,7,8
 -530 1663 -530 1663 -444.5 1611 c 128,-1,9
 -359 1559 -359 1559 -359 1471 c 0,10,11
 -359 1411 -359 1411 -398 1372 c 128,-1,12
 -437 1333 -437 1333 -509 1323 c 1,13,-1
 -509 1254 l 1,14,-1
 -687 1254 l 1,0,-1
EndSplineSet
EndChar

StartChar: uni030F
Encoding: 783 783 172
Width: 0
GlyphClass: 4
Flags: W
LayerCount: 2
Fore
SplineSet
-505 1252 m 1,0,-1
 -713 1252 l 1,1,-1
 -1012 1518 l 1,2,-1
 -750 1518 l 1,3,-1
 -505 1252 l 1,0,-1
-204 1252 m 1,4,-1
 -399 1252 l 1,5,-1
 -644 1518 l 1,6,-1
 -394 1518 l 1,7,-1
 -204 1252 l 1,4,-1
EndSplineSet
EndChar

StartChar: dotbelowcomb
Encoding: 803 803 173
Width: 0
GlyphClass: 4
Flags: W
LayerCount: 2
Fore
SplineSet
-740 -241 m 256,0,1
 -740 -188 -740 -188 -704.5 -152.5 c 128,-1,2
 -669 -117 -669 -117 -603 -117 c 128,-1,3
 -537 -117 -537 -117 -501 -152.5 c 128,-1,4
 -465 -188 -465 -188 -465 -241 c 128,-1,5
 -465 -294 -465 -294 -501 -329 c 128,-1,6
 -537 -364 -537 -364 -603 -364 c 128,-1,7
 -669 -364 -669 -364 -704.5 -329 c 128,-1,8
 -740 -294 -740 -294 -740 -241 c 256,0,1
EndSplineSet
EndChar

StartChar: tonos
Encoding: 900 900 174
Width: 605
GlyphClass: 1
Flags: W
LayerCount: 2
Fore
SplineSet
259 1601 m 1,0,-1
 482 1601 l 1,1,-1
 342 1257 l 1,2,-1
 198 1257 l 1,3,-1
 259 1601 l 1,0,-1
EndSplineSet
EndChar

StartChar: dieresistonos
Encoding: 901 901 175
Width: 1084
GlyphClass: 1
Flags: W
LayerCount: 2
Fore
SplineSet
494 1711 m 1,0,-1
 723 1711 l 1,1,-1
 593 1413 l 1,2,-1
 447 1413 l 1,3,-1
 494 1711 l 1,0,-1
103 1366 m 256,4,5
 103 1416 103 1416 137 1450 c 128,-1,6
 171 1484 171 1484 230 1484 c 128,-1,7
 289 1484 289 1484 322.5 1450 c 128,-1,8
 356 1416 356 1416 356 1366 c 128,-1,9
 356 1316 356 1316 322.5 1282 c 128,-1,10
 289 1248 289 1248 230 1248 c 128,-1,11
 171 1248 171 1248 137 1282 c 128,-1,12
 103 1316 103 1316 103 1366 c 256,4,5
701 1365 m 256,13,14
 701 1415 701 1415 734.5 1449 c 128,-1,15
 768 1483 768 1483 827 1483 c 128,-1,16
 886 1483 886 1483 920 1449 c 128,-1,17
 954 1415 954 1415 954 1365 c 128,-1,18
 954 1315 954 1315 920 1281 c 128,-1,19
 886 1247 886 1247 827 1247 c 128,-1,20
 768 1247 768 1247 734.5 1281 c 128,-1,21
 701 1315 701 1315 701 1365 c 256,13,14
EndSplineSet
EndChar

StartChar: Gamma
Encoding: 915 915 177
Width: 1141
GlyphClass: 2
Flags: W
LayerCount: 2
Fore
SplineSet
1079 1252 m 1,0,-1
 407 1252 l 1,1,-1
 407 0 l 1,2,-1
 155 0 l 1,3,-1
 155 1456 l 1,4,-1
 1079 1456 l 1,5,-1
 1079 1252 l 1,0,-1
EndSplineSet
Substitution2: "'c2sc' Capitals to Small Capitals lookup 0 subtable" Gamma.c2sc
Position2: "'cpsp' Capital Spacing lookup 0 subtable" dx=36 dy=0 dh=72 dv=0
EndChar

StartChar: uni0394
Encoding: 916 916 178
AltUni2: 002206.ffffffff.0 002206.ffffffff.0
Width: 1471
GlyphClass: 1
Flags: W
LayerCount: 2
Fore
SplineSet
623 1456 m 1,0,-1
 866 1456 l 1,1,-1
 1440 0 l 1,2,-1
 25 0 l 1,3,-1
 623 1456 l 1,0,-1
366 202 m 1,4,-1
 1102 202 l 1,5,-1
 742 1157 l 1,6,-1
 366 202 l 1,4,-1
EndSplineSet
Substitution2: "'c2sc' Capitals to Small Capitals lookup 0 subtable" uni0394.c2sc
Position2: "'cpsp' Capital Spacing lookup 0 subtable" dx=36 dy=0 dh=72 dv=0
EndChar

StartChar: Theta
Encoding: 920 920 179
Width: 1402
GlyphClass: 1
Flags: W
LayerCount: 2
Fore
SplineSet
931 633 m 1,0,-1
 483 633 l 1,1,-1
 483 827 l 1,2,-1
 931 827 l 1,3,-1
 931 633 l 1,0,-1
1299 690 m 2,4,5
 1299 476 1299 476 1225 314.5 c 128,-1,6
 1151 153 1151 153 1013.5 66.5 c 128,-1,7
 876 -20 876 -20 697 -20 c 0,8,9
 521 -20 521 -20 384 65 c 128,-1,10
 247 150 247 150 170.5 308 c 128,-1,11
 94 466 94 466 91 671 c 2,12,-1
 91 764 l 2,13,14
 91 977 91 977 166 1139 c 128,-1,15
 241 1301 241 1301 379 1388.5 c 128,-1,16
 517 1476 517 1476 695 1476 c 128,-1,17
 873 1476 873 1476 1010.5 1390.5 c 128,-1,18
 1148 1305 1148 1305 1223 1144.5 c 128,-1,19
 1298 984 1298 984 1299 771 c 2,20,-1
 1299 690 l 2,4,5
1047 766 m 2,21,22
 1047 1005 1047 1005 955.5 1135.5 c 128,-1,23
 864 1266 864 1266 695 1266 c 0,24,25
 531 1266 531 1266 438.5 1137.5 c 128,-1,26
 346 1009 346 1009 344 774 c 2,27,-1
 344 690 l 2,28,29
 344 450 344 450 437.5 319 c 128,-1,30
 531 188 531 188 697 188 c 0,31,32
 866 188 866 188 956.5 316 c 128,-1,33
 1047 444 1047 444 1047 690 c 2,34,-1
 1047 766 l 2,21,22
EndSplineSet
Substitution2: "'c2sc' Capitals to Small Capitals lookup 0 subtable" Theta.c2sc
Position2: "'cpsp' Capital Spacing lookup 0 subtable" dx=36 dy=0 dh=72 dv=0
EndChar

StartChar: Lambda
Encoding: 923 923 180
Width: 1336
GlyphClass: 1
Flags: W
LayerCount: 2
Fore
SplineSet
664 1092 m 1,0,-1
 303 0 l 1,1,-1
 32 0 l 1,2,-1
 542 1456 l 1,3,-1
 787 1456 l 1,4,-1
 1298 0 l 1,5,-1
 1026 0 l 1,6,-1
 664 1092 l 1,0,-1
EndSplineSet
Substitution2: "'c2sc' Capitals to Small Capitals lookup 0 subtable" Lambda.c2sc
Position2: "'cpsp' Capital Spacing lookup 0 subtable" dx=36 dy=0 dh=72 dv=0
EndChar

StartChar: Xi
Encoding: 926 926 181
Width: 1168
GlyphClass: 1
Flags: W
LayerCount: 2
Fore
SplineSet
108 202 m 1,0,-1
 1070 202 l 1,1,-1
 1070 0 l 1,2,-1
 108 0 l 1,3,-1
 108 202 l 1,0,-1
208 845 m 1,4,-1
 966 845 l 1,5,-1
 966 647 l 1,6,-1
 208 647 l 1,7,-1
 208 845 l 1,4,-1
121 1456 m 1,8,-1
 1042 1456 l 1,9,-1
 1042 1252 l 1,10,-1
 121 1252 l 1,11,-1
 121 1456 l 1,8,-1
EndSplineSet
Substitution2: "'c2sc' Capitals to Small Capitals lookup 0 subtable" Xi.c2sc
Position2: "'cpsp' Capital Spacing lookup 0 subtable" dx=36 dy=0 dh=72 dv=0
EndChar

StartChar: Pi
Encoding: 928 928 182
Width: 1457
GlyphClass: 1
Flags: W
LayerCount: 2
Fore
SplineSet
1300 0 m 1,0,-1
 1048 0 l 1,1,-1
 1048 1252 l 1,2,-1
 407 1252 l 1,3,-1
 407 0 l 1,4,-1
 155 0 l 1,5,-1
 155 1456 l 1,6,-1
 1300 1456 l 1,7,-1
 1300 0 l 1,0,-1
EndSplineSet
Substitution2: "'c2sc' Capitals to Small Capitals lookup 0 subtable" Pi.c2sc
Position2: "'cpsp' Capital Spacing lookup 0 subtable" dx=36 dy=0 dh=72 dv=0
EndChar

StartChar: Sigma
Encoding: 931 931 183
Width: 1168
GlyphClass: 1
Flags: W
LayerCount: 2
Fore
SplineSet
796 720 m 1,0,-1
 401 202 l 1,1,-1
 1101 202 l 1,2,-1
 1101 0 l 1,3,-1
 71 0 l 1,4,-1
 71 151 l 1,5,-1
 528 729 l 1,6,-1
 71 1304 l 1,7,-1
 71 1456 l 1,8,-1
 1065 1456 l 1,9,-1
 1065 1252 l 1,10,-1
 404 1252 l 1,11,-1
 796 739 l 1,12,-1
 796 720 l 1,0,-1
EndSplineSet
Substitution2: "'c2sc' Capitals to Small Capitals lookup 0 subtable" Sigma.c2sc
Position2: "'cpsp' Capital Spacing lookup 0 subtable" dx=36 dy=0 dh=72 dv=0
EndChar

StartChar: Phi
Encoding: 934 934 184
Width: 1519
GlyphClass: 1
Flags: W
LayerCount: 2
Fore
SplineSet
892 1278 m 1,0,1
 1055 1274 1055 1274 1185 1202.5 c 128,-1,2
 1315 1131 1315 1131 1384.5 1005.5 c 128,-1,3
 1454 880 1454 880 1454 721 c 128,-1,4
 1454 562 1454 562 1384 438.5 c 128,-1,5
 1314 315 1314 315 1185 244.5 c 128,-1,6
 1056 174 1056 174 892 169 c 1,7,-1
 892 0 l 1,8,-1
 639 0 l 1,9,-1
 639 169 l 1,10,11
 471 173 471 173 342 243 c 128,-1,12
 213 313 213 313 143.5 436.5 c 128,-1,13
 74 560 74 560 74 719 c 0,14,15
 74 879 74 879 145 1006 c 128,-1,16
 216 1133 216 1133 345 1203.5 c 128,-1,17
 474 1274 474 1274 639 1278 c 1,18,-1
 639 1456 l 1,19,-1
 892 1456 l 1,20,-1
 892 1278 l 1,0,1
322 719 m 0,21,22
 322 563 322 563 402 475 c 128,-1,23
 482 387 482 387 639 381 c 1,24,-1
 639 1067 l 1,25,26
 484 1062 484 1062 403 971 c 128,-1,27
 322 880 322 880 322 719 c 0,21,22
1206 721 m 0,28,29
 1206 879 1206 879 1125.5 969.5 c 128,-1,30
 1045 1060 1045 1060 892 1066 c 1,31,-1
 892 381 l 1,32,33
 1048 388 1048 388 1127 476.5 c 128,-1,34
 1206 565 1206 565 1206 721 c 0,28,29
EndSplineSet
Substitution2: "'c2sc' Capitals to Small Capitals lookup 0 subtable" Phi.c2sc
Position2: "'cpsp' Capital Spacing lookup 0 subtable" dx=36 dy=0 dh=72 dv=0
EndChar

StartChar: Psi
Encoding: 936 936 185
Width: 1450
GlyphClass: 1
Flags: W
LayerCount: 2
Fore
SplineSet
844 579 m 1,0,1
 975 602 975 602 1047 697 c 128,-1,2
 1119 792 1119 792 1119 959 c 2,3,-1
 1119 1456 l 1,4,-1
 1372 1456 l 1,5,-1
 1372 950 l 2,6,7
 1369 704 1369 704 1229.5 551.5 c 128,-1,8
 1090 399 1090 399 844 374 c 1,9,-1
 844 0 l 1,10,-1
 592 0 l 1,11,-1
 592 373 l 1,12,13
 352 396 352 396 212 548 c 128,-1,14
 72 700 72 700 68 945 c 1,15,-1
 68 1456 l 1,16,-1
 320 1456 l 1,17,-1
 320 955 l 2,18,19
 321 798 321 798 392.5 701 c 128,-1,20
 464 604 464 604 592 580 c 1,21,-1
 592 1456 l 1,22,-1
 844 1456 l 1,23,-1
 844 579 l 1,0,1
EndSplineSet
Substitution2: "'c2sc' Capitals to Small Capitals lookup 0 subtable" Psi.c2sc
Position2: "'cpsp' Capital Spacing lookup 0 subtable" dx=36 dy=0 dh=72 dv=0
EndChar

StartChar: uni03A9
Encoding: 937 937 186
AltUni2: 002126.ffffffff.0 002126.ffffffff.0
Width: 1371
GlyphClass: 2
Flags: W
LayerCount: 2
Fore
SplineSet
735 207 m 1,0,1
 851 239 851 239 912.5 375 c 128,-1,2
 974 511 974 511 975 742 c 2,3,-1
 975 851 l 2,4,5
 975 1053 975 1053 896.5 1162 c 128,-1,6
 818 1271 818 1271 674 1271 c 0,7,8
 532 1271 532 1271 454.5 1162.5 c 128,-1,9
 377 1054 377 1054 377 849 c 2,10,-1
 377 749 l 2,11,12
 377 514 377 514 440.5 375.5 c 128,-1,13
 504 237 504 237 623 207 c 1,14,-1
 623 0 l 1,15,-1
 118 0 l 1,16,-1
 118 203 l 1,17,-1
 334 203 l 1,18,19
 227 306 227 306 167 449.5 c 128,-1,20
 107 593 107 593 107 751 c 2,21,-1
 107 849 l 2,22,23
 107 1031 107 1031 178 1173.5 c 128,-1,24
 249 1316 249 1316 379.5 1395.5 c 128,-1,25
 510 1475 510 1475 674 1475 c 0,26,27
 839 1475 839 1475 970 1396 c 128,-1,28
 1101 1317 1101 1317 1173 1174 c 128,-1,29
 1245 1031 1245 1031 1245 850 c 2,30,-1
 1245 749 l 2,31,32
 1245 598 1245 598 1185.5 452 c 128,-1,33
 1126 306 1126 306 1019 203 c 1,34,-1
 1231 203 l 1,35,-1
 1231 0 l 1,36,-1
 735 0 l 1,37,-1
 735 207 l 1,0,1
EndSplineSet
Substitution2: "'c2sc' Capitals to Small Capitals lookup 0 subtable" uni03A9.c2sc
Position2: "'cpsp' Capital Spacing lookup 0 subtable" dx=36 dy=0 dh=72 dv=0
EndChar

StartChar: alpha
Encoding: 945 945 187
Width: 1156
GlyphClass: 2
Flags: W
LayerCount: 2
Fore
SplineSet
1021 1082 m 1,0,-1
 1021 308 l 2,1,2
 1024 185 1024 185 1094 185 c 0,3,4
 1111 185 1111 185 1121 189 c 1,5,-1
 1145 9 l 1,6,7
 1094 -21 1094 -21 1018 -21 c 0,8,9
 856 -21 856 -21 803 142 c 1,10,11
 701 -20 701 -20 508 -20 c 0,12,13
 313 -20 313 -20 199.5 122.5 c 128,-1,14
 86 265 86 265 86 513 c 2,15,-1
 86 526 l 2,16,17
 86 792 86 792 200 947 c 128,-1,18
 314 1102 314 1102 510 1102 c 0,19,20
 691 1102 691 1102 794 951 c 1,21,-1
 813 1082 l 1,22,-1
 1021 1082 l 1,0,-1
329 505 m 0,23,24
 329 347 329 347 390 260.5 c 128,-1,25
 451 174 451 174 569 174 c 0,26,27
 709 174 709 174 779 310 c 1,28,-1
 779 765 l 1,29,30
 709 907 709 907 571 907 c 0,31,32
 456 907 456 907 392.5 808.5 c 128,-1,33
 329 710 329 710 329 505 c 0,23,24
EndSplineSet
Substitution2: "'ss02' Style Set 2 lookup 12 subtable" alpha.ss02
Substitution2: "'smcp' Lowercase to Small Capitals lookup 1 subtable" Alpha.c2sc
EndChar

StartChar: beta
Encoding: 946 946 188
Width: 1222
GlyphClass: 1
Flags: W
LayerCount: 2
Fore
SplineSet
617 1476 m 0,0,1
 824 1476 824 1476 945 1368 c 128,-1,2
 1066 1260 1066 1260 1066 1082 c 0,3,4
 1066 987 1066 987 1016.5 909.5 c 128,-1,5
 967 832 967 832 879 784 c 1,6,7
 1000 740 1000 740 1065 645.5 c 128,-1,8
 1130 551 1130 551 1130 421 c 0,9,10
 1130 216 1130 216 1009 98 c 128,-1,11
 888 -20 888 -20 679 -20 c 0,12,13
 514 -20 514 -20 392 63 c 1,14,-1
 392 -393 l 1,15,-1
 150 -393 l 1,16,-1
 150 1056 l 2,17,18
 150 1171 150 1171 212 1267.5 c 128,-1,19
 274 1364 274 1364 382.5 1420 c 128,-1,20
 491 1476 491 1476 617 1476 c 0,0,1
823 1073 m 0,21,22
 823 1163 823 1163 766.5 1222 c 128,-1,23
 710 1281 710 1281 617 1281 c 0,24,25
 521 1281 521 1281 456.5 1218 c 128,-1,26
 392 1155 392 1155 392 1051 c 2,27,-1
 392 256 l 1,28,29
 480 174 480 174 637 174 c 0,30,31
 750 174 750 174 818.5 242.5 c 128,-1,32
 887 311 887 311 887 421 c 0,33,34
 887 530 887 530 826 602.5 c 128,-1,35
 765 675 765 675 662 676 c 2,36,-1
 539 676 l 1,37,-1
 539 861 l 1,38,-1
 611 861 l 2,39,40
 823 861 823 861 823 1073 c 0,21,22
EndSplineSet
Substitution2: "'smcp' Lowercase to Small Capitals lookup 1 subtable" Beta.c2sc
EndChar

StartChar: gamma
Encoding: 947 947 189
Width: 1038
GlyphClass: 1
Flags: W
LayerCount: 2
Fore
SplineSet
526 315 m 1,0,-1
 762 1082 l 1,1,-1
 1013 1082 l 1,2,-1
 644 42 l 1,3,-1
 644 -417 l 1,4,-1
 401 -417 l 1,5,-1
 401 47 l 1,6,-1
 32 1082 l 1,7,-1
 283 1082 l 1,8,-1
 526 315 l 1,0,-1
EndSplineSet
Substitution2: "'smcp' Lowercase to Small Capitals lookup 1 subtable" Gamma.c2sc
EndChar

StartChar: delta
Encoding: 948 948 190
Width: 1160
GlyphClass: 1
Flags: W
LayerCount: 2
Fore
SplineSet
208 1258 m 0,0,1
 208 1403 208 1403 314 1485.5 c 128,-1,2
 420 1568 420 1568 603 1568 c 0,3,4
 676 1568 676 1568 732.5 1557 c 128,-1,5
 789 1546 789 1546 868 1519 c 1,6,-1
 868 1324 l 1,7,8
 717 1377 717 1377 612 1377 c 0,9,10
 534 1377 534 1377 489 1346.5 c 128,-1,11
 444 1316 444 1316 444 1264 c 0,12,13
 444 1171 444 1171 632 1105 c 0,14,15
 856 1026 856 1026 967 887 c 128,-1,16
 1078 748 1078 748 1080 544 c 2,17,-1
 1080 516 l 2,18,19
 1080 361 1080 361 1019 238 c 128,-1,20
 958 115 958 115 845.5 47.5 c 128,-1,21
 733 -20 733 -20 584 -20 c 0,22,23
 358 -20 358 -20 221 125.5 c 128,-1,24
 84 271 84 271 84 530 c 0,25,26
 84 695 84 695 176 822.5 c 128,-1,27
 268 950 268 950 405 984 c 1,28,-1
 403 989 l 1,29,30
 312 1029 312 1029 260 1097.5 c 128,-1,31
 208 1166 208 1166 208 1258 c 0,0,1
326 523 m 0,32,33
 326 361 326 361 394.5 267 c 128,-1,34
 463 173 463 173 584 173 c 0,35,36
 703 173 703 173 770.5 267 c 128,-1,37
 838 361 838 361 838 543 c 0,38,39
 838 663 838 663 765.5 764.5 c 128,-1,40
 693 866 693 866 584 889 c 1,41,42
 463 889 463 889 394.5 794 c 128,-1,43
 326 699 326 699 326 523 c 0,32,33
EndSplineSet
Substitution2: "'smcp' Lowercase to Small Capitals lookup 1 subtable" uni0394.c2sc
EndChar

StartChar: epsilon
Encoding: 949 949 191
Width: 1120
GlyphClass: 2
Flags: W
LayerCount: 2
Fore
SplineSet
96 306 m 0,0,1
 96 398 96 398 148.5 461.5 c 128,-1,2
 201 525 201 525 299 557 c 1,3,4
 212 593 212 593 163.5 653.5 c 128,-1,5
 115 714 115 714 115 786 c 0,6,7
 115 936 115 936 239 1018.5 c 128,-1,8
 363 1101 363 1101 573 1101 c 0,9,10
 764 1101 764 1101 891.5 1010.5 c 128,-1,11
 1019 920 1019 920 1019 775 c 1,12,-1
 777 775 l 1,13,14
 777 835 777 835 716 874.5 c 128,-1,15
 655 914 655 914 566 914 c 0,16,17
 472 914 472 914 415 875.5 c 128,-1,18
 358 837 358 837 358 774 c 0,19,20
 358 714 358 714 406 676.5 c 128,-1,21
 454 639 454 639 559 639 c 2,22,-1
 758 639 l 1,23,-1
 758 466 l 1,24,-1
 549 466 l 2,25,26
 339 463 339 463 339 316 c 0,27,28
 339 253 339 253 401.5 209.5 c 128,-1,29
 464 166 464 166 566 166 c 0,30,31
 664 166 664 166 729 210.5 c 128,-1,32
 794 255 794 255 794 321 c 1,33,-1
 1036 321 l 1,34,35
 1036 166 1036 166 906 73 c 128,-1,36
 776 -20 776 -20 573 -20 c 0,37,38
 360 -20 360 -20 228 69 c 128,-1,39
 96 158 96 158 96 306 c 0,0,1
EndSplineSet
Substitution2: "'smcp' Lowercase to Small Capitals lookup 1 subtable" Epsilon.c2sc
EndChar

StartChar: zeta
Encoding: 950 950 192
Width: 1050
GlyphClass: 1
Flags: W
LayerCount: 2
Fore
SplineSet
970 1456 m 1,0,-1
 970 1311 l 1,1,-1
 554 809 l 2,2,3
 468 700 468 700 433 607 c 128,-1,4
 398 514 398 514 398 407 c 0,5,6
 398 323 398 323 428.5 278 c 128,-1,7
 459 233 459 233 534 209 c 2,8,-1
 755 143 l 2,9,10
 852 112 852 112 891.5 63 c 128,-1,11
 931 14 931 14 931 -67 c 0,12,13
 931 -138 931 -138 870 -231 c 128,-1,14
 809 -324 809 -324 727 -386 c 1,15,-1
 602 -285 l 1,16,17
 695 -182 695 -182 695 -112 c 0,18,19
 697 -51 697 -51 587 -18 c 1,20,-1
 483 9 l 2,21,22
 287 59 287 59 213 164 c 0,23,24
 156 244 156 244 156 383 c 0,25,26
 156 671 156 671 449 1008 c 2,27,-1
 669 1261 l 1,28,-1
 97 1261 l 1,29,-1
 97 1456 l 1,30,-1
 970 1456 l 1,0,-1
EndSplineSet
Substitution2: "'smcp' Lowercase to Small Capitals lookup 1 subtable" Zeta.c2sc
EndChar

StartChar: eta
Encoding: 951 951 193
Width: 1160
GlyphClass: 2
Flags: W
LayerCount: 2
Fore
SplineSet
348 1082 m 1,0,-1
 360 951 l 1,1,2
 479 1102 479 1102 672 1102 c 0,3,4
 854 1102 854 1102 940.5 1004 c 128,-1,5
 1027 906 1027 906 1030 709 c 2,6,-1
 1030 -415 l 1,7,-1
 787 -415 l 1,8,-1
 787 692 l 2,9,10
 787 802 787 802 740 854.5 c 128,-1,11
 693 907 693 907 589 907 c 0,12,13
 439 907 439 907 369 785 c 1,14,-1
 369 0 l 1,15,-1
 126 0 l 1,16,-1
 126 1082 l 1,17,-1
 348 1082 l 1,0,-1
EndSplineSet
Substitution2: "'smcp' Lowercase to Small Capitals lookup 1 subtable" Eta.c2sc
EndChar

StartChar: theta
Encoding: 952 952 194
Width: 1185
GlyphClass: 1
Flags: W
LayerCount: 2
Fore
SplineSet
1068 626 m 2,0,1
 1068 310 1068 310 944 145 c 128,-1,2
 820 -20 820 -20 593 -20 c 0,3,4
 370 -20 370 -20 245 140.5 c 128,-1,5
 120 301 120 301 115 602 c 1,6,-1
 115 835 l 2,7,8
 115 1144 115 1144 238 1310 c 128,-1,9
 361 1476 361 1476 591 1476 c 0,10,11
 817 1476 817 1476 940 1318 c 128,-1,12
 1063 1160 1063 1160 1068 859 c 1,13,-1
 1068 626 l 2,0,1
358 824 m 1,14,-1
 826 824 l 1,15,-1
 826 872 l 2,16,17
 826 1078 826 1078 765 1179.5 c 128,-1,18
 704 1281 704 1281 591 1281 c 0,19,20
 480 1281 480 1281 419 1179.5 c 128,-1,21
 358 1078 358 1078 358 872 c 2,22,-1
 358 824 l 1,14,-1
826 633 m 1,23,-1
 358 633 l 1,24,-1
 358 591 l 2,25,26
 358 383 358 383 419.5 278.5 c 128,-1,27
 481 174 481 174 593 174 c 128,-1,28
 705 174 705 174 764.5 275 c 128,-1,29
 824 376 824 376 826 578 c 2,30,-1
 826 633 l 1,23,-1
EndSplineSet
Substitution2: "'smcp' Lowercase to Small Capitals lookup 1 subtable" Theta.c2sc
EndChar

StartChar: iota
Encoding: 953 953 195
Width: 682
GlyphClass: 2
Flags: W
LayerCount: 2
Fore
SplineSet
412 1082 m 1,0,-1
 412 304 l 2,1,2
 412 243 412 243 437 216 c 128,-1,3
 462 189 462 189 524 189 c 0,4,5
 566 189 566 189 609 199 c 1,6,-1
 609 11 l 1,7,8
 535 -12 535 -12 449 -12 c 0,9,10
 169 -12 169 -12 169 297 c 2,11,-1
 169 1082 l 1,12,-1
 412 1082 l 1,0,-1
EndSplineSet
Substitution2: "'smcp' Lowercase to Small Capitals lookup 1 subtable" Iota.c2sc
EndChar

StartChar: lambda
Encoding: 955 955 196
Width: 1130
GlyphClass: 1
Flags: W
LayerCount: 2
Fore
SplineSet
274 1531 m 0,0,1
 382 1531 382 1531 442 1488.5 c 128,-1,2
 502 1446 502 1446 533 1366 c 2,3,-1
 960 277 l 2,4,5
 996 191 996 191 1045 184 c 1,6,-1
 1077 183 l 1,7,-1
 1094 184 l 1,8,-1
 1098 -8 l 1,9,10
 1056 -18 1056 -18 1004 -18 c 0,11,12
 895 -18 895 -18 836.5 26 c 128,-1,13
 778 70 778 70 735 181 c 2,14,-1
 533 713 l 1,15,-1
 287 0 l 1,16,-1
 22 0 l 1,17,-1
 407 1039 l 1,18,-1
 316 1257 l 2,19,20
 282 1332 282 1332 209 1335 c 2,21,-1
 175 1335 l 1,22,-1
 148 1333 l 1,23,-1
 145 1515 l 1,24,25
 204 1531 204 1531 274 1531 c 0,0,1
EndSplineSet
Substitution2: "'smcp' Lowercase to Small Capitals lookup 1 subtable" Lambda.c2sc
EndChar

StartChar: xi
Encoding: 958 958 197
Width: 1043
GlyphClass: 1
Flags: W
LayerCount: 2
Fore
SplineSet
899 1242 m 1,0,1
 761 1278 761 1278 674 1278 c 0,2,3
 552 1278 552 1278 484 1235 c 128,-1,4
 416 1192 416 1192 416 1117 c 0,5,6
 416 933 416 933 700 933 c 2,7,-1
 837 933 l 1,8,-1
 837 735 l 1,9,-1
 697 735 l 2,10,11
 343 735 343 735 343 450 c 0,12,13
 343 352 343 352 407.5 284 c 128,-1,14
 472 216 472 216 612.5 183 c 128,-1,15
 753 150 753 150 808.5 131.5 c 128,-1,16
 864 113 864 113 899 89 c 0,17,18
 980 33 980 33 980 -76 c 0,19,20
 978 -148 978 -148 916.5 -241.5 c 128,-1,21
 855 -335 855 -335 775 -394 c 1,22,-1
 644 -294 l 1,23,24
 697 -237 697 -237 720 -197 c 128,-1,25
 743 -157 743 -157 743 -116 c 0,26,27
 743 -81 743 -81 711.5 -58.5 c 128,-1,28
 680 -36 680 -36 550.5 -2 c 128,-1,29
 421 32 421 32 345 64 c 0,30,31
 218 117 218 117 159 208.5 c 128,-1,32
 100 300 100 300 100 448 c 0,33,34
 100 593 100 593 181.5 691 c 128,-1,35
 263 789 263 789 407 834 c 1,36,37
 297 874 297 874 235 945 c 128,-1,38
 173 1016 173 1016 173 1113 c 0,39,40
 173 1279 173 1279 302 1377.5 c 128,-1,41
 431 1476 431 1476 658 1476 c 0,42,43
 811 1476 811 1476 936 1432 c 1,44,-1
 899 1242 l 1,0,1
EndSplineSet
Substitution2: "'smcp' Lowercase to Small Capitals lookup 1 subtable" Xi.c2sc
EndChar

StartChar: pi
Encoding: 960 960 198
Width: 1267
GlyphClass: 1
Flags: W
LayerCount: 2
Fore
SplineSet
1193 892 m 1,0,-1
 1034 892 l 1,1,-1
 1034 306 l 2,2,3
 1034 244 1034 244 1058.5 216.5 c 128,-1,4
 1083 189 1083 189 1146 189 c 0,5,6
 1184 189 1184 189 1231 199 c 1,7,-1
 1231 11 l 1,8,9
 1157 -12 1157 -12 1071 -12 c 0,10,11
 791 -12 791 -12 791 297 c 2,12,-1
 791 892 l 1,13,-1
 459 892 l 1,14,-1
 459 0 l 1,15,-1
 216 0 l 1,16,-1
 216 892 l 1,17,-1
 45 892 l 1,18,-1
 45 1082 l 1,19,-1
 1193 1082 l 1,20,-1
 1193 892 l 1,0,-1
EndSplineSet
Substitution2: "'smcp' Lowercase to Small Capitals lookup 1 subtable" Pi.c2sc
EndChar

StartChar: rho
Encoding: 961 961 199
Width: 1160
GlyphClass: 2
Flags: W
LayerCount: 2
Fore
SplineSet
598 1102 m 0,0,1
 822 1102 822 1102 947.5 947.5 c 128,-1,2
 1073 793 1073 793 1073 520 c 2,3,-1
 1073 505 l 2,4,5
 1073 263 1073 263 961 121.5 c 128,-1,6
 849 -20 849 -20 656 -20 c 0,7,8
 477 -20 477 -20 371 99 c 1,9,-1
 371 -416 l 1,10,-1
 128 -416 l 1,11,-1
 128 571 l 2,12,13
 128 813 128 813 257.5 957.5 c 128,-1,14
 387 1102 387 1102 598 1102 c 0,0,1
371 291 m 1,15,16
 438 174 438 174 587 174 c 0,17,18
 705 174 705 174 767.5 260.5 c 128,-1,19
 830 347 830 347 830 526 c 0,20,21
 830 710 830 710 768 808.5 c 128,-1,22
 706 907 706 907 592 907 c 0,23,24
 490 907 490 907 430.5 810.5 c 128,-1,25
 371 714 371 714 371 554 c 2,26,-1
 371 291 l 1,15,16
EndSplineSet
Substitution2: "'smcp' Lowercase to Small Capitals lookup 1 subtable" Rho.c2sc
EndChar

StartChar: sigma1
Encoding: 962 962 200
Width: 1079
GlyphClass: 1
Flags: W
LayerCount: 2
Fore
SplineSet
568 1102 m 0,0,1
 764 1102 764 1102 882.5 991.5 c 128,-1,2
 1001 881 1001 881 1001 694 c 1,3,-1
 773 694 l 1,4,5
 773 791 773 791 718.5 849 c 128,-1,6
 664 907 664 907 568 907 c 0,7,8
 455 907 455 907 389.5 813 c 128,-1,9
 324 719 324 719 324 549 c 2,10,-1
 324 523 l 2,11,12
 324 392 324 392 398 314.5 c 128,-1,13
 472 237 472 237 623 194 c 128,-1,14
 774 151 774 151 822 122.5 c 128,-1,15
 870 94 870 94 894.5 52.5 c 128,-1,16
 919 11 919 11 920 -55 c 0,17,18
 920 -127 920 -127 856.5 -222.5 c 128,-1,19
 793 -318 793 -318 717 -374 c 1,20,-1
 590 -273 l 1,21,22
 641 -218 641 -218 662 -179 c 128,-1,23
 683 -140 683 -140 683 -96 c 0,24,25
 683 -56 683 -56 653 -35 c 128,-1,26
 623 -14 623 -14 558 1 c 0,27,28
 320 56 320 56 201.5 183 c 128,-1,29
 83 310 83 310 82 519 c 2,30,-1
 82 558 l 2,31,32
 82 715 82 715 142 840 c 128,-1,33
 202 965 202 965 312 1033.5 c 128,-1,34
 422 1102 422 1102 568 1102 c 0,0,1
EndSplineSet
Substitution2: "'smcp' Lowercase to Small Capitals lookup 1 subtable" Sigma.c2sc
EndChar

StartChar: sigma
Encoding: 963 963 201
Width: 1168
GlyphClass: 1
Flags: W
LayerCount: 2
Fore
SplineSet
1150 886 m 1,0,-1
 883 886 l 1,1,2
 1069 740 1069 740 1069 489 c 0,3,4
 1069 347 1069 347 1008 229 c 128,-1,5
 947 111 947 111 836 45.5 c 128,-1,6
 725 -20 725 -20 580 -20 c 0,7,8
 354 -20 354 -20 218 130 c 128,-1,9
 82 280 82 280 82 539 c 2,10,-1
 82 551 l 2,11,12
 82 789 82 789 216 934.5 c 128,-1,13
 350 1080 350 1080 573 1082 c 2,14,-1
 1150 1082 l 1,15,-1
 1150 886 l 1,0,-1
325 530 m 0,16,17
 325 361 325 361 391.5 267.5 c 128,-1,18
 458 174 458 174 580 174 c 0,19,20
 697 174 697 174 761.5 268 c 128,-1,21
 826 362 826 362 826 551 c 0,22,23
 826 707 826 707 760.5 796.5 c 128,-1,24
 695 886 695 886 578 886 c 0,25,26
 460 886 460 886 392.5 798 c 128,-1,27
 325 710 325 710 325 530 c 0,16,17
EndSplineSet
Substitution2: "'smcp' Lowercase to Small Capitals lookup 1 subtable" Sigma.c2sc
EndChar

StartChar: tau
Encoding: 964 964 202
Width: 1069
GlyphClass: 1
Flags: W
LayerCount: 2
Fore
SplineSet
1004 889 m 1,0,-1
 644 889 l 1,1,-1
 644 297 l 2,2,3
 644 238 644 238 665.5 208.5 c 128,-1,4
 687 179 687 179 738 179 c 0,5,6
 777 179 777 179 832 201 c 1,7,-1
 870 24 l 1,8,9
 790 -20 790 -20 682 -20 c 0,10,11
 406 -20 406 -20 401 293 c 1,12,-1
 401 889 l 1,13,-1
 63 889 l 1,14,-1
 63 1082 l 1,15,-1
 1004 1082 l 1,16,-1
 1004 889 l 1,0,-1
EndSplineSet
Substitution2: "'smcp' Lowercase to Small Capitals lookup 1 subtable" Tau.c2sc
EndChar

StartChar: upsilon
Encoding: 965 965 203
Width: 1120
GlyphClass: 2
Flags: W
LayerCount: 2
Fore
SplineSet
370 1082 m 1,0,-1
 370 432 l 2,1,2
 370 173 370 173 531 173 c 0,3,4
 644 173 644 173 716.5 289.5 c 128,-1,5
 789 406 789 406 789 566 c 0,6,7
 786 797 786 797 676 1082 c 1,8,-1
 917 1082 l 1,9,10
 1032 852 1032 852 1032 566 c 0,11,12
 1032 298 1032 298 902 138.5 c 128,-1,13
 772 -21 772 -21 541 -21 c 0,14,15
 338 -21 338 -21 233.5 92 c 128,-1,16
 129 205 129 205 128 421 c 2,17,-1
 128 1082 l 1,18,-1
 370 1082 l 1,0,-1
EndSplineSet
Substitution2: "'smcp' Lowercase to Small Capitals lookup 1 subtable" Upsilon.c2sc
EndChar

StartChar: phi
Encoding: 966 966 204
Width: 1488
GlyphClass: 1
Flags: W
LayerCount: 2
Fore
SplineSet
613 -14 m 1,0,1
 353 14 353 14 210.5 169.5 c 128,-1,2
 68 325 68 325 68 580 c 0,3,4
 68 744 68 744 131 874.5 c 128,-1,5
 194 1005 194 1005 309 1088 c 1,6,-1
 461 942 l 1,7,8
 389 872 389 872 351 778 c 128,-1,9
 313 684 313 684 311 580 c 0,10,11
 311 419 311 419 388 316.5 c 128,-1,12
 465 214 465 214 613 184 c 1,13,-1
 613 824 l 2,14,15
 613 943 613 943 692 1016 c 128,-1,16
 771 1089 771 1089 895 1089 c 0,17,18
 1042 1089 1042 1089 1160 1018.5 c 128,-1,19
 1278 948 1278 948 1345.5 822.5 c 128,-1,20
 1413 697 1413 697 1413 551 c 0,21,22
 1413 308 1413 308 1268 159.5 c 128,-1,23
 1123 11 1123 11 856 -15 c 1,24,-1
 856 -478 l 1,25,-1
 613 -478 l 1,26,-1
 613 -14 l 1,0,1
856 182 m 1,27,28
 1005 207 1005 207 1087.5 303.5 c 128,-1,29
 1170 400 1170 400 1170 551 c 0,30,31
 1168 702 1168 702 1097.5 797.5 c 128,-1,32
 1027 893 1027 893 911 893 c 0,33,34
 856 893 856 893 856 831 c 2,35,-1
 856 182 l 1,27,28
EndSplineSet
Substitution2: "'smcp' Lowercase to Small Capitals lookup 1 subtable" Phi.c2sc
EndChar

StartChar: psi
Encoding: 968 968 205
Width: 1481
GlyphClass: 2
Flags: W
LayerCount: 2
Fore
SplineSet
850 1082 m 1,0,-1
 850 183 l 1,1,2
 997 210 997 210 1080.5 313 c 128,-1,3
 1164 416 1164 416 1164 580 c 0,4,5
 1159 806 1159 806 1047 1082 c 1,6,-1
 1285 1082 l 1,7,8
 1406 855 1406 855 1406 580 c 0,9,10
 1406 320 1406 320 1262.5 165 c 128,-1,11
 1119 10 1119 10 850 -16 c 1,12,-1
 850 -478 l 1,13,-1
 607 -478 l 1,14,-1
 607 -14 l 1,15,16
 347 16 347 16 213.5 169.5 c 128,-1,17
 80 323 80 323 79 589 c 2,18,-1
 79 1082 l 1,19,-1
 322 1082 l 1,20,-1
 322 594 l 2,21,22
 322 244 322 244 607 184 c 1,23,-1
 607 1082 l 1,24,-1
 850 1082 l 1,0,-1
EndSplineSet
Substitution2: "'smcp' Lowercase to Small Capitals lookup 1 subtable" Psi.c2sc
EndChar

StartChar: omega
Encoding: 969 969 206
Width: 1684
GlyphClass: 2
Flags: W
LayerCount: 2
Fore
SplineSet
485 1082 m 1,0,1
 351 803 351 803 344 566 c 1,2,3
 344 377 344 377 392.5 275.5 c 128,-1,4
 441 174 441 174 529 174 c 0,5,6
 620 174 620 174 668 252.5 c 128,-1,7
 716 331 716 331 716 479 c 2,8,-1
 716 805 l 1,9,-1
 967 805 l 1,10,-1
 967 468 l 2,11,12
 969 326 969 326 1016.5 250 c 128,-1,13
 1064 174 1064 174 1154 174 c 0,14,15
 1242 174 1242 174 1290.5 275.5 c 128,-1,16
 1339 377 1339 377 1339 566 c 1,17,18
 1332 805 1332 805 1199 1082 c 1,19,-1
 1440 1082 l 1,20,21
 1581 850 1581 850 1581 566 c 128,-1,22
 1581 282 1581 282 1474.5 131 c 128,-1,23
 1368 -20 1368 -20 1165 -20 c 0,24,25
 933 -20 933 -20 841 202 c 1,26,27
 749 -20 749 -20 519 -20 c 0,28,29
 316 -20 316 -20 209 131 c 128,-1,30
 102 282 102 282 102 566 c 128,-1,31
 102 850 102 850 243 1082 c 1,32,-1
 485 1082 l 1,0,1
EndSplineSet
Substitution2: "'smcp' Lowercase to Small Capitals lookup 1 subtable" uni03A9.c2sc
EndChar

StartChar: theta1
Encoding: 977 977 207
Width: 1203
GlyphClass: 1
Flags: W
LayerCount: 2
Fore
SplineSet
1176 599 m 1,0,1
 1118 579 1118 579 1050 568 c 1,2,-1
 1050 451 l 2,3,4
 1050 233 1050 233 925 106.5 c 128,-1,5
 800 -20 800 -20 587 -20 c 0,6,7
 376 -20 376 -20 247 110.5 c 128,-1,8
 118 241 118 241 118 453 c 2,9,-1
 118 738 l 1,10,-1
 354 740 l 1,11,-1
 354 450 l 2,12,13
 354 325 354 325 419 253.5 c 128,-1,14
 484 182 484 182 594 182 c 0,15,16
 692 182 692 182 746.5 249 c 128,-1,17
 801 316 801 316 801 447 c 2,18,-1
 801 571 l 1,19,20
 592 609 592 609 464 746.5 c 128,-1,21
 336 884 336 884 333 1076 c 2,22,-1
 333 1103 l 2,23,24
 333 1272 333 1272 431.5 1374 c 128,-1,25
 530 1476 530 1476 695 1476 c 0,26,27
 862 1476 862 1476 956 1372 c 128,-1,28
 1050 1268 1050 1268 1050 1081 c 2,29,-1
 1050 775 l 1,30,31
 1125 787 1125 787 1167 798 c 1,32,-1
 1176 599 l 1,0,1
569 1089 m 0,33,34
 569 981 569 981 631.5 900 c 128,-1,35
 694 819 694 819 801 787 c 1,36,-1
 801 1112 l 1,37,38
 797 1266 797 1266 688 1266 c 0,39,40
 636 1266 636 1266 602.5 1229.5 c 128,-1,41
 569 1193 569 1193 569 1089 c 0,33,34
EndSplineSet
EndChar

StartChar: Upsilon1
Encoding: 978 978 208
Width: 1147
GlyphClass: 2
Flags: W
LayerCount: 2
Fore
SplineSet
575 775 m 1,0,-1
 785 1279 l 2,1,2
 828 1379 828 1379 889 1427 c 128,-1,3
 950 1475 950 1475 1046 1475 c 0,4,5
 1116 1475 1116 1475 1182 1449 c 1,6,-1
 1144 1255 l 1,7,8
 1131 1260 1131 1260 1091 1260 c 0,9,10
 1026 1260 1026 1260 995 1191 c 2,11,-1
 700 530 l 1,12,-1
 700 0 l 1,13,-1
 448 0 l 1,14,-1
 448 528 l 1,15,-1
 155 1191 l 2,16,17
 122 1260 122 1260 58 1260 c 0,18,19
 15 1260 15 1260 5 1255 c 1,20,-1
 -31 1448 l 1,21,22
 29 1475 29 1475 103 1475 c 0,23,24
 206 1475 206 1475 268.5 1425 c 128,-1,25
 331 1375 331 1375 375 1267 c 2,26,-1
 575 775 l 1,0,-1
EndSplineSet
EndChar

StartChar: omega1
Encoding: 982 982 209
Width: 1649
GlyphClass: 2
Flags: W
LayerCount: 2
Fore
SplineSet
1620 899 m 1,0,-1
 1492 899 l 1,1,2
 1547 741 1547 741 1547 566 c 0,3,4
 1547 280 1547 280 1446 130 c 128,-1,5
 1345 -20 1345 -20 1157 -20 c 0,6,7
 919 -20 919 -20 827 206 c 1,8,9
 735 -20 735 -20 497 -20 c 0,10,11
 308 -20 308 -20 208 131 c 128,-1,12
 108 282 108 282 108 566 c 0,13,14
 108 743 108 743 162 899 c 1,15,-1
 51 899 l 1,16,-1
 51 1082 l 1,17,-1
 1620 1082 l 1,18,-1
 1620 899 l 1,0,-1
1305 566 m 1,19,20
 1301 726 1301 726 1240 899 c 1,21,-1
 414 899 l 1,22,23
 354 722 354 722 350 566 c 1,24,25
 350 376 350 376 391.5 275 c 128,-1,26
 433 174 433 174 508 174 c 0,27,28
 600 174 600 174 651 249.5 c 128,-1,29
 702 325 702 325 703 474 c 2,30,-1
 703 706 l 1,31,-1
 953 706 l 1,32,-1
 953 468 l 2,33,34
 955 325 955 325 1004.5 249.5 c 128,-1,35
 1054 174 1054 174 1147 174 c 0,36,37
 1222 174 1222 174 1263.5 275 c 128,-1,38
 1305 376 1305 376 1305 566 c 1,19,20
EndSplineSet
EndChar

StartChar: uni0402
Encoding: 1026 1026 210
Width: 1534
GlyphClass: 1
Flags: W
LayerCount: 2
Fore
SplineSet
1168 1252 m 1,0,-1
 675 1252 l 1,1,-1
 675 856 l 1,2,3
 823 894 823 894 937 894 c 0,4,5
 1188 894 1188 894 1328 774 c 128,-1,6
 1468 654 1468 654 1468 438 c 128,-1,7
 1468 222 1468 222 1331 104 c 128,-1,8
 1194 -14 1194 -14 940 -14 c 1,9,-1
 939 177 l 1,10,11
 1076 177 1076 177 1146 237.5 c 128,-1,12
 1216 298 1216 298 1216 430 c 0,13,14
 1215 549 1215 549 1143.5 616.5 c 128,-1,15
 1072 684 1072 684 929 684 c 0,16,17
 795 684 795 684 675 652 c 1,18,-1
 675 0 l 1,19,-1
 422 0 l 1,20,-1
 422 1252 l 1,21,-1
 34 1252 l 1,22,-1
 34 1456 l 1,23,-1
 1168 1456 l 1,24,-1
 1168 1252 l 1,0,-1
EndSplineSet
Substitution2: "'c2sc' Capitals to Small Capitals lookup 0 subtable" uni0402.c2sc
Position2: "'cpsp' Capital Spacing lookup 0 subtable" dx=36 dy=0 dh=72 dv=0
EndChar

StartChar: uni0404
Encoding: 1028 1028 211
Width: 1369
GlyphClass: 2
Flags: W
LayerCount: 2
Fore
SplineSet
1262 473 m 1,0,1
 1240 241 1240 241 1090 110.5 c 128,-1,2
 940 -20 940 -20 692 -20 c 0,3,4
 517 -20 517 -20 383.5 62.5 c 128,-1,5
 250 145 250 145 177.5 300 c 128,-1,6
 105 455 105 455 104 662 c 2,7,-1
 104 785 l 2,8,9
 104 992 104 992 177 1149 c 128,-1,10
 250 1306 250 1306 386.5 1391 c 128,-1,11
 523 1476 523 1476 703 1476 c 0,12,13
 946 1476 946 1476 1092.5 1343 c 128,-1,14
 1239 1210 1239 1210 1263 974 c 1,15,-1
 1011 974 l 1,16,17
 993 1130 993 1130 919 1201 c 128,-1,18
 845 1272 845 1272 703 1272 c 0,19,20
 542 1272 542 1272 454 1157.5 c 128,-1,21
 366 1043 366 1043 358 833 c 1,22,-1
 865 833 l 1,23,-1
 865 631 l 1,24,-1
 357 631 l 1,25,26
 364 410 364 410 449.5 295.5 c 128,-1,27
 535 181 535 181 692 181 c 0,28,29
 839 181 839 181 914 248.5 c 128,-1,30
 989 316 989 316 1009 473 c 1,31,-1
 1262 473 l 1,0,1
EndSplineSet
Substitution2: "'c2sc' Capitals to Small Capitals lookup 0 subtable" uni0404.c2sc
Position2: "'cpsp' Capital Spacing lookup 0 subtable" dx=36 dy=0 dh=72 dv=0
EndChar

StartChar: uni0409
Encoding: 1033 1033 212
Width: 2184
GlyphClass: 1
Flags: W
LayerCount: 2
Fore
SplineSet
1293 929 m 1,0,-1
 1598 929 l 2,1,2
 1751 928 1751 928 1868.5 869.5 c 128,-1,3
 1986 811 1986 811 2049.5 705 c 128,-1,4
 2113 599 2113 599 2113 464 c 0,5,6
 2113 258 2113 258 1974.5 131.5 c 128,-1,7
 1836 5 1836 5 1607 0 c 1,8,-1
 1041 0 l 1,9,-1
 1041 1252 l 1,10,-1
 595 1252 l 1,11,-1
 569 689 l 2,12,13
 554 425 554 425 504.5 279.5 c 128,-1,14
 455 134 455 134 361 67 c 128,-1,15
 267 0 267 0 109 0 c 2,16,-1
 45 0 l 1,17,-1
 45 202 l 1,18,-1
 85 205 l 2,19,20
 172 213 172 213 219.5 266 c 128,-1,21
 267 319 267 319 291.5 426.5 c 128,-1,22
 316 534 316 534 326 743 c 2,23,-1
 354 1456 l 1,24,-1
 1293 1456 l 1,25,-1
 1293 929 l 1,0,-1
1293 726 m 1,26,-1
 1293 202 l 1,27,-1
 1590 202 l 2,28,29
 1716 202 1716 202 1788.5 275.5 c 128,-1,30
 1861 349 1861 349 1861 466 c 0,31,32
 1861 581 1861 581 1789.5 652.5 c 128,-1,33
 1718 724 1718 724 1596 726 c 2,34,-1
 1293 726 l 1,26,-1
EndSplineSet
Substitution2: "'c2sc' Capitals to Small Capitals lookup 0 subtable" uni0409.c2sc
Position2: "'cpsp' Capital Spacing lookup 0 subtable" dx=36 dy=0 dh=72 dv=0
EndChar

StartChar: uni040A
Encoding: 1034 1034 213
Width: 2191
GlyphClass: 1
Flags: W
LayerCount: 2
Fore
SplineSet
407 837 m 1,0,-1
 1047 837 l 1,1,-1
 1047 1456 l 1,2,-1
 1299 1456 l 1,3,-1
 1299 898 l 1,4,-1
 1598 898 l 2,5,6
 1754 898 1754 898 1873 843 c 128,-1,7
 1992 788 1992 788 2055.5 686.5 c 128,-1,8
 2119 585 2119 585 2119 452 c 0,9,10
 2119 247 2119 247 1976.5 123.5 c 128,-1,11
 1834 0 1834 0 1591 0 c 2,12,-1
 1047 0 l 1,13,-1
 1047 634 l 1,14,-1
 407 634 l 1,15,-1
 407 0 l 1,16,-1
 155 0 l 1,17,-1
 155 1456 l 1,18,-1
 407 1456 l 1,19,-1
 407 837 l 1,0,-1
1299 696 m 1,20,-1
 1299 208 l 1,21,-1
 1596 208 l 2,22,23
 1722 208 1722 208 1795 275 c 128,-1,24
 1868 342 1868 342 1868 454 c 0,25,26
 1868 565 1868 565 1794 630.5 c 128,-1,27
 1720 696 1720 696 1596 696 c 2,28,-1
 1299 696 l 1,20,-1
EndSplineSet
Substitution2: "'c2sc' Capitals to Small Capitals lookup 0 subtable" uni040A.c2sc
Position2: "'cpsp' Capital Spacing lookup 0 subtable" dx=36 dy=0 dh=72 dv=0
EndChar

StartChar: uni040B
Encoding: 1035 1035 214
Width: 1627
GlyphClass: 1
Flags: W
LayerCount: 2
Fore
SplineSet
1170 1252 m 1,0,-1
 675 1252 l 1,1,-1
 675 895 l 1,2,3
 806 922 806 922 949 922 c 0,4,5
 1217 922 1217 922 1348.5 804 c 128,-1,6
 1480 686 1480 686 1480 457 c 2,7,-1
 1480 0 l 1,8,-1
 1228 0 l 1,9,-1
 1228 458 l 2,10,11
 1228 597 1228 597 1165.5 658 c 128,-1,12
 1103 719 1103 719 949 719 c 0,13,14
 809 719 809 719 675 691 c 1,15,-1
 675 0 l 1,16,-1
 423 0 l 1,17,-1
 423 1252 l 1,18,-1
 49 1252 l 1,19,-1
 49 1456 l 1,20,-1
 1170 1456 l 1,21,-1
 1170 1252 l 1,0,-1
EndSplineSet
Substitution2: "'c2sc' Capitals to Small Capitals lookup 0 subtable" uni040B.c2sc
Position2: "'cpsp' Capital Spacing lookup 0 subtable" dx=36 dy=0 dh=72 dv=0
EndChar

StartChar: uni040F
Encoding: 1039 1039 215
Width: 1450
GlyphClass: 1
Flags: W
LayerCount: 2
Fore
SplineSet
146 1456 m 1,0,-1
 399 1456 l 1,1,-1
 399 202 l 1,2,-1
 1040 202 l 1,3,-1
 1040 1456 l 1,4,-1
 1293 1456 l 1,5,-1
 1293 0 l 1,6,-1
 856 0 l 1,7,-1
 856 -360 l 1,8,-1
 603 -360 l 1,9,-1
 603 0 l 1,10,-1
 146 0 l 1,11,-1
 146 1456 l 1,0,-1
EndSplineSet
Substitution2: "'c2sc' Capitals to Small Capitals lookup 0 subtable" uni040F.c2sc
Position2: "'cpsp' Capital Spacing lookup 0 subtable" dx=36 dy=0 dh=72 dv=0
EndChar

StartChar: uni0411
Encoding: 1041 1041 216
Width: 1288
GlyphClass: 1
Flags: W
LayerCount: 2
Fore
SplineSet
1068 1252 m 1,0,-1
 397 1252 l 1,1,-1
 397 899 l 1,2,-1
 695 899 l 2,3,4
 855 899 855 899 974 844 c 128,-1,5
 1093 789 1093 789 1155 688 c 128,-1,6
 1217 587 1217 587 1217 454 c 0,7,8
 1217 250 1217 250 1078.5 126 c 128,-1,9
 940 2 940 2 701 0 c 2,10,-1
 144 0 l 1,11,-1
 144 1456 l 1,12,-1
 1068 1456 l 1,13,-1
 1068 1252 l 1,0,-1
397 696 m 1,14,-1
 397 202 l 1,15,-1
 694 202 l 2,16,17
 822 202 822 202 893.5 271.5 c 128,-1,18
 965 341 965 341 965 456 c 0,19,20
 965 566 965 566 895 630 c 128,-1,21
 825 694 825 694 701 696 c 2,22,-1
 397 696 l 1,14,-1
EndSplineSet
Substitution2: "'c2sc' Capitals to Small Capitals lookup 0 subtable" uni0411.c2sc
Position2: "'cpsp' Capital Spacing lookup 0 subtable" dx=36 dy=0 dh=72 dv=0
EndChar

StartChar: uni0414
Encoding: 1044 1044 217
Width: 1542
GlyphClass: 1
Flags: W
LayerCount: 2
Fore
SplineSet
1487 -358 m 1,0,-1
 1247 -358 l 1,1,-1
 1247 0 l 1,2,-1
 288 0 l 1,3,-1
 288 -358 l 1,4,-1
 44 -358 l 1,5,-1
 36 202 l 1,6,-1
 153 202 l 1,7,8
 240 286 240 286 292 446.5 c 128,-1,9
 344 607 344 607 359 810 c 2,10,-1
 397 1456 l 1,11,-1
 1315 1456 l 1,12,-1
 1315 202 l 1,13,-1
 1500 202 l 1,14,-1
 1487 -358 l 1,0,-1
439 202 m 1,15,-1
 1063 202 l 1,16,-1
 1063 1252 l 1,17,-1
 638 1252 l 1,18,-1
 614 842 l 2,19,20
 587 431 587 431 439 202 c 1,15,-1
EndSplineSet
Substitution2: "'c2sc' Capitals to Small Capitals lookup 0 subtable" uni0414.c2sc
Position2: "'cpsp' Capital Spacing lookup 0 subtable" dx=36 dy=0 dh=72 dv=0
EndChar

StartChar: uni0416
Encoding: 1046 1046 218
Width: 1954
GlyphClass: 2
Flags: W
LayerCount: 2
Fore
SplineSet
1279 628 m 1,0,-1
 1116 628 l 1,1,-1
 1116 0 l 1,2,-1
 864 0 l 1,3,-1
 864 628 l 1,4,-1
 694 628 l 1,5,-1
 337 0 l 1,6,-1
 22 0 l 1,7,-1
 491 775 l 1,8,-1
 53 1456 l 1,9,-1
 359 1456 l 1,10,-1
 707 848 l 1,11,-1
 864 848 l 1,12,-1
 864 1456 l 1,13,-1
 1116 1456 l 1,14,-1
 1116 848 l 1,15,-1
 1266 848 l 1,16,-1
 1611 1456 l 1,17,-1
 1916 1456 l 1,18,-1
 1482 777 l 1,19,-1
 1947 0 l 1,20,-1
 1633 0 l 1,21,-1
 1279 628 l 1,0,-1
EndSplineSet
Substitution2: "'c2sc' Capitals to Small Capitals lookup 0 subtable" uni0416.c2sc
Position2: "'cpsp' Capital Spacing lookup 0 subtable" dx=36 dy=0 dh=72 dv=0
EndChar

StartChar: uni0417
Encoding: 1047 1047 219
Width: 1238
GlyphClass: 2
Flags: W
LayerCount: 2
Fore
SplineSet
876 1059 m 0,0,1
 876 1157 876 1157 802 1215 c 128,-1,2
 728 1273 728 1273 601 1273 c 0,3,4
 492 1273 492 1273 419 1215.5 c 128,-1,5
 346 1158 346 1158 346 1067 c 1,6,-1
 94 1067 l 1,7,8
 94 1186 94 1186 160 1279 c 128,-1,9
 226 1372 226 1372 343 1423.5 c 128,-1,10
 460 1475 460 1475 601 1475 c 0,11,12
 851 1475 851 1475 989.5 1366 c 128,-1,13
 1128 1257 1128 1257 1128 1061 c 0,14,15
 1128 962 1128 962 1068 879 c 128,-1,16
 1008 796 1008 796 900 748 c 1,17,18
 1022 706 1022 706 1086.5 620.5 c 128,-1,19
 1151 535 1151 535 1151 408 c 0,20,21
 1151 212 1151 212 1001 96.5 c 128,-1,22
 851 -19 851 -19 601 -19 c 0,23,24
 447 -19 447 -19 322.5 36 c 128,-1,25
 198 91 198 91 135.5 186 c 128,-1,26
 73 281 73 281 73 404 c 1,27,-1
 325 404 l 1,28,29
 325 310 325 310 403 245.5 c 128,-1,30
 481 181 481 181 601 181 c 0,31,32
 735 181 735 181 816.5 244 c 128,-1,33
 898 307 898 307 898 408 c 0,34,35
 898 531 898 531 826.5 586.5 c 128,-1,36
 755 642 755 642 617 642 c 2,37,-1
 446 642 l 1,38,-1
 446 842 l 1,39,-1
 608 842 l 2,40,41
 876 842 876 842 876 1059 c 0,0,1
EndSplineSet
Substitution2: "'c2sc' Capitals to Small Capitals lookup 0 subtable" uni0417.c2sc
Position2: "'cpsp' Capital Spacing lookup 0 subtable" dx=36 dy=0 dh=72 dv=0
EndChar

StartChar: uni0418
Encoding: 1048 1048 220
Width: 1448
GlyphClass: 2
Flags: W
LayerCount: 2
Fore
SplineSet
1040 1456 m 1,0,-1
 1293 1456 l 1,1,-1
 1293 0 l 1,2,-1
 1040 0 l 1,3,-1
 1040 1037 l 1,4,-1
 401 0 l 1,5,-1
 148 0 l 1,6,-1
 148 1456 l 1,7,-1
 401 1456 l 1,8,-1
 401 418 l 1,9,-1
 1040 1456 l 1,0,-1
EndSplineSet
Substitution2: "'c2sc' Capitals to Small Capitals lookup 0 subtable" uni0418.c2sc
Position2: "'cpsp' Capital Spacing lookup 0 subtable" dx=36 dy=0 dh=72 dv=0
EndChar

StartChar: uni041B
Encoding: 1051 1051 221
Width: 1449
GlyphClass: 2
Flags: W
LayerCount: 2
Fore
SplineSet
1293 1456 m 1,0,-1
 1293 0 l 1,1,-1
 1041 0 l 1,2,-1
 1041 1252 l 1,3,-1
 595 1252 l 1,4,-1
 569 689 l 2,5,6
 554 425 554 425 504.5 279.5 c 128,-1,7
 455 134 455 134 361 67 c 128,-1,8
 267 0 267 0 109 0 c 2,9,-1
 45 0 l 1,10,-1
 45 202 l 1,11,-1
 85 205 l 2,12,13
 172 213 172 213 219.5 266 c 128,-1,14
 267 319 267 319 291.5 426.5 c 128,-1,15
 316 534 316 534 326 743 c 2,16,-1
 354 1456 l 1,17,-1
 1293 1456 l 1,0,-1
EndSplineSet
Substitution2: "'c2sc' Capitals to Small Capitals lookup 0 subtable" uni041B.c2sc
Position2: "'cpsp' Capital Spacing lookup 0 subtable" dx=36 dy=0 dh=72 dv=0
EndChar

StartChar: uni0423
Encoding: 1059 1059 222
Width: 1290
GlyphClass: 2
Flags: W
LayerCount: 2
Fore
SplineSet
672 695 m 1,0,-1
 964 1456 l 1,1,-1
 1245 1456 l 1,2,-1
 738 248 l 1,3,-1
 692 157 l 1,4,5
 592 -21 592 -21 368 -21 c 1,6,-1
 264 -15 l 1,7,-1
 266 185 l 1,8,9
 290 181 290 181 351 181 c 0,10,11
 459 181 459 181 503 273 c 1,12,-1
 555 396 l 1,13,-1
 57 1456 l 1,14,-1
 333 1456 l 1,15,-1
 672 695 l 1,0,-1
EndSplineSet
Substitution2: "'c2sc' Capitals to Small Capitals lookup 0 subtable" uni0423.c2sc
Position2: "'cpsp' Capital Spacing lookup 0 subtable" dx=36 dy=0 dh=72 dv=0
EndChar

StartChar: uni0424
Encoding: 1060 1060 223
Width: 1631
GlyphClass: 1
Flags: W
LayerCount: 2
Fore
SplineSet
942 1318 m 1,0,-1
 964 1318 l 2,1,2
 1132 1318 1132 1318 1269.5 1242.5 c 128,-1,3
 1407 1167 1407 1167 1483.5 1030 c 128,-1,4
 1560 893 1560 893 1560 722 c 0,5,6
 1560 552 1560 552 1483.5 416.5 c 128,-1,7
 1407 281 1407 281 1271.5 206 c 128,-1,8
 1136 131 1136 131 968 130 c 2,9,-1
 942 130 l 1,10,-1
 942 -60 l 1,11,-1
 699 -60 l 1,12,-1
 699 130 l 1,13,-1
 675 130 l 2,14,15
 506 130 506 130 368 205.5 c 128,-1,16
 230 281 230 281 154.5 416 c 128,-1,17
 79 551 79 551 79 720 c 0,18,19
 79 891 79 891 155 1028 c 128,-1,20
 231 1165 231 1165 368 1241.5 c 128,-1,21
 505 1318 505 1318 675 1318 c 2,22,-1
 699 1318 l 1,23,-1
 699 1516 l 1,24,-1
 942 1516 l 1,25,-1
 942 1318 l 1,0,-1
675 1115 m 2,26,27
 507 1115 507 1115 412.5 1010 c 128,-1,28
 318 905 318 905 318 720 c 0,29,30
 318 540 318 540 412 436.5 c 128,-1,31
 506 333 506 333 678 333 c 2,32,-1
 699 333 l 1,33,-1
 699 1115 l 1,34,-1
 675 1115 l 2,26,27
942 1115 m 1,35,-1
 942 333 l 1,36,-1
 966 333 l 2,37,38
 1134 333 1134 333 1227.5 438 c 128,-1,39
 1321 543 1321 543 1321 722 c 0,40,41
 1321 905 1321 905 1227.5 1010 c 128,-1,42
 1134 1115 1134 1115 963 1115 c 2,43,-1
 942 1115 l 1,35,-1
EndSplineSet
Substitution2: "'c2sc' Capitals to Small Capitals lookup 0 subtable" uni0424.c2sc
Position2: "'cpsp' Capital Spacing lookup 0 subtable" dx=36 dy=0 dh=72 dv=0
EndChar

StartChar: uni0426
Encoding: 1062 1062 224
Width: 1529
GlyphClass: 1
Flags: W
LayerCount: 2
Fore
SplineSet
146 1456 m 1,0,-1
 399 1456 l 1,1,-1
 399 202 l 1,2,-1
 1040 202 l 1,3,-1
 1040 1456 l 1,4,-1
 1293 1456 l 1,5,-1
 1293 204 l 1,6,-1
 1469 204 l 1,7,-1
 1449 -351 l 1,8,-1
 1217 -351 l 1,9,-1
 1217 0 l 1,10,-1
 146 0 l 1,11,-1
 146 1456 l 1,0,-1
EndSplineSet
Substitution2: "'c2sc' Capitals to Small Capitals lookup 0 subtable" uni0426.c2sc
Position2: "'cpsp' Capital Spacing lookup 0 subtable" dx=36 dy=0 dh=72 dv=0
EndChar

StartChar: uni0427
Encoding: 1063 1063 225
Width: 1417
GlyphClass: 2
Flags: W
LayerCount: 2
Fore
SplineSet
1262 1456 m 1,0,-1
 1262 0 l 1,1,-1
 1010 0 l 1,2,-1
 1010 573 l 1,3,4
 848 532 848 532 672 532 c 0,5,6
 411 532 411 532 277 647 c 128,-1,7
 143 762 143 762 142 994 c 2,8,-1
 142 1456 l 1,9,-1
 394 1456 l 1,10,-1
 394 992 l 2,11,12
 395 853 395 853 458 794 c 128,-1,13
 521 735 521 735 672 735 c 0,14,15
 846 735 846 735 1010 777 c 1,16,-1
 1010 1456 l 1,17,-1
 1262 1456 l 1,0,-1
EndSplineSet
Substitution2: "'c2sc' Capitals to Small Capitals lookup 0 subtable" uni0427.c2sc
Position2: "'cpsp' Capital Spacing lookup 0 subtable" dx=36 dy=0 dh=72 dv=0
EndChar

StartChar: uni0428
Encoding: 1064 1064 226
Width: 1947
GlyphClass: 1
Flags: W
LayerCount: 2
Fore
SplineSet
406 1456 m 1,0,-1
 406 202 l 1,1,-1
 850 202 l 1,2,-1
 850 1456 l 1,3,-1
 1102 1456 l 1,4,-1
 1102 202 l 1,5,-1
 1543 202 l 1,6,-1
 1543 1456 l 1,7,-1
 1795 1456 l 1,8,-1
 1795 0 l 1,9,-1
 152 0 l 1,10,-1
 152 1456 l 1,11,-1
 406 1456 l 1,0,-1
EndSplineSet
Substitution2: "'c2sc' Capitals to Small Capitals lookup 0 subtable" uni0428.c2sc
Position2: "'cpsp' Capital Spacing lookup 0 subtable" dx=36 dy=0 dh=72 dv=0
EndChar

StartChar: uni0429
Encoding: 1065 1065 227
Width: 2041
GlyphClass: 1
Flags: W
LayerCount: 2
Fore
SplineSet
406 1456 m 1,0,-1
 406 202 l 1,1,-1
 850 202 l 1,2,-1
 850 1456 l 1,3,-1
 1102 1456 l 1,4,-1
 1102 202 l 1,5,-1
 1543 202 l 1,6,-1
 1543 1456 l 1,7,-1
 1795 1456 l 1,8,-1
 1795 194 l 1,9,-1
 1965 194 l 1,10,-1
 1945 -350 l 1,11,-1
 1723 -350 l 1,12,-1
 1723 0 l 1,13,-1
 152 0 l 1,14,-1
 152 1456 l 1,15,-1
 406 1456 l 1,0,-1
EndSplineSet
Substitution2: "'c2sc' Capitals to Small Capitals lookup 0 subtable" uni0429.c2sc
Position2: "'cpsp' Capital Spacing lookup 0 subtable" dx=36 dy=0 dh=72 dv=0
EndChar

StartChar: uni042A
Encoding: 1066 1066 228
Width: 1562
GlyphClass: 1
Flags: W
LayerCount: 2
Fore
SplineSet
24 1456 m 1,0,-1
 671 1456 l 1,1,-1
 671 899 l 1,2,-1
 969 899 l 2,3,4
 1129 899 1129 899 1248 844 c 128,-1,5
 1367 789 1367 789 1429.5 688.5 c 128,-1,6
 1492 588 1492 588 1492 454 c 0,7,8
 1492 249 1492 249 1352.5 125.5 c 128,-1,9
 1213 2 1213 2 975 0 c 2,10,-1
 419 0 l 1,11,-1
 419 1261 l 1,12,-1
 24 1261 l 1,13,-1
 24 1456 l 1,0,-1
671 696 m 1,14,-1
 671 202 l 1,15,-1
 968 202 l 2,16,17
 1096 202 1096 202 1167.5 271.5 c 128,-1,18
 1239 341 1239 341 1239 456 c 0,19,20
 1239 566 1239 566 1169 630 c 128,-1,21
 1099 694 1099 694 975 696 c 2,22,-1
 671 696 l 1,14,-1
EndSplineSet
Substitution2: "'c2sc' Capitals to Small Capitals lookup 0 subtable" uni042A.c2sc
Position2: "'cpsp' Capital Spacing lookup 0 subtable" dx=36 dy=0 dh=72 dv=0
EndChar

StartChar: uni042B
Encoding: 1067 1067 229
Width: 1785
GlyphClass: 2
Flags: W
LayerCount: 2
Fore
SplineSet
408 899 m 1,0,-1
 706 899 l 2,1,2
 866 899 866 899 985 844 c 128,-1,3
 1104 789 1104 789 1166 688 c 128,-1,4
 1228 587 1228 587 1228 454 c 0,5,6
 1228 250 1228 250 1089.5 126 c 128,-1,7
 951 2 951 2 712 0 c 2,8,-1
 155 0 l 1,9,-1
 155 1456 l 1,10,-1
 408 1456 l 1,11,-1
 408 899 l 1,0,-1
1624 0 m 1,12,-1
 1372 0 l 1,13,-1
 1372 1456 l 1,14,-1
 1624 1456 l 1,15,-1
 1624 0 l 1,12,-1
408 696 m 1,16,-1
 408 202 l 1,17,-1
 705 202 l 2,18,19
 833 202 833 202 904.5 271.5 c 128,-1,20
 976 341 976 341 976 456 c 0,21,22
 976 566 976 566 906 630 c 128,-1,23
 836 694 836 694 712 696 c 2,24,-1
 408 696 l 1,16,-1
EndSplineSet
Substitution2: "'c2sc' Capitals to Small Capitals lookup 0 subtable" uni042B.c2sc
Position2: "'cpsp' Capital Spacing lookup 0 subtable" dx=36 dy=0 dh=72 dv=0
EndChar

StartChar: uni042C
Encoding: 1068 1068 230
Width: 1287
GlyphClass: 1
Flags: W
LayerCount: 2
Fore
SplineSet
397 899 m 1,0,-1
 695 899 l 2,1,2
 855 899 855 899 974 844 c 128,-1,3
 1093 789 1093 789 1155 688 c 128,-1,4
 1217 587 1217 587 1217 454 c 0,5,6
 1217 250 1217 250 1078.5 126 c 128,-1,7
 940 2 940 2 701 0 c 2,8,-1
 144 0 l 1,9,-1
 144 1456 l 1,10,-1
 397 1456 l 1,11,-1
 397 899 l 1,0,-1
397 696 m 1,12,-1
 397 202 l 1,13,-1
 694 202 l 2,14,15
 822 202 822 202 893.5 271.5 c 128,-1,16
 965 341 965 341 965 456 c 0,17,18
 965 566 965 566 895 630 c 128,-1,19
 825 694 825 694 701 696 c 2,20,-1
 397 696 l 1,12,-1
EndSplineSet
Substitution2: "'c2sc' Capitals to Small Capitals lookup 0 subtable" uni042C.c2sc
Position2: "'cpsp' Capital Spacing lookup 0 subtable" dx=36 dy=0 dh=72 dv=0
EndChar

StartChar: uni042D
Encoding: 1069 1069 231
Width: 1360
GlyphClass: 2
Flags: W
LayerCount: 2
Fore
SplineSet
360 473 m 1,0,1
 380 315 380 315 455.5 248 c 128,-1,2
 531 181 531 181 678 181 c 0,3,4
 834 181 834 181 919.5 295 c 128,-1,5
 1005 409 1005 409 1011 624 c 1,6,-1
 497 624 l 1,7,-1
 497 828 l 1,8,-1
 1011 828 l 1,9,10
 1003 1044 1003 1044 914.5 1158 c 128,-1,11
 826 1272 826 1272 666 1272 c 0,12,13
 526 1272 526 1272 451.5 1202 c 128,-1,14
 377 1132 377 1132 359 974 c 1,15,-1
 107 974 l 1,16,17
 131 1212 131 1212 277.5 1344 c 128,-1,18
 424 1476 424 1476 666 1476 c 0,19,20
 845 1476 845 1476 981 1392 c 128,-1,21
 1117 1308 1117 1308 1190.5 1152 c 128,-1,22
 1264 996 1264 996 1265 791 c 2,23,-1
 1265 668 l 2,24,25
 1265 461 1265 461 1193.5 304.5 c 128,-1,26
 1122 148 1122 148 988 64 c 128,-1,27
 854 -20 854 -20 678 -20 c 0,28,29
 430 -20 430 -20 280 110.5 c 128,-1,30
 130 241 130 241 108 473 c 1,31,-1
 360 473 l 1,0,1
EndSplineSet
Substitution2: "'c2sc' Capitals to Small Capitals lookup 0 subtable" uni042D.c2sc
Position2: "'cpsp' Capital Spacing lookup 0 subtable" dx=36 dy=0 dh=72 dv=0
EndChar

StartChar: uni042E
Encoding: 1070 1070 232
Width: 1876
GlyphClass: 2
Flags: W
LayerCount: 2
Fore
SplineSet
1799 690 m 2,0,1
 1799 476 1799 476 1725 314.5 c 128,-1,2
 1651 153 1651 153 1513.5 66.5 c 128,-1,3
 1376 -20 1376 -20 1197 -20 c 0,4,5
 1030 -20 1030 -20 898 56 c 128,-1,6
 766 132 766 132 687 274 c 128,-1,7
 608 416 608 416 594 605 c 1,8,-1
 412 605 l 1,9,-1
 412 0 l 1,10,-1
 160 0 l 1,11,-1
 160 1456 l 1,12,-1
 412 1456 l 1,13,-1
 412 801 l 1,14,-1
 591 801 l 1,15,16
 597 1002 597 1002 674 1156.5 c 128,-1,17
 751 1311 751 1311 886.5 1393.5 c 128,-1,18
 1022 1476 1022 1476 1195 1476 c 0,19,20
 1373 1476 1373 1476 1510.5 1390.5 c 128,-1,21
 1648 1305 1648 1305 1723 1144.5 c 128,-1,22
 1798 984 1798 984 1799 771 c 2,23,-1
 1799 690 l 2,0,1
1546 766 m 2,24,25
 1546 1008 1546 1008 1454.5 1137 c 128,-1,26
 1363 1266 1363 1266 1195 1266 c 0,27,28
 1031 1266 1031 1266 938.5 1137.5 c 128,-1,29
 846 1009 846 1009 844 774 c 2,30,-1
 844 690 l 2,31,32
 844 450 844 450 937.5 319 c 128,-1,33
 1031 188 1031 188 1197 188 c 0,34,35
 1365 188 1365 188 1455.5 316 c 128,-1,36
 1546 444 1546 444 1546 690 c 2,37,-1
 1546 766 l 2,24,25
EndSplineSet
Substitution2: "'c2sc' Capitals to Small Capitals lookup 0 subtable" uni042E.c2sc
Position2: "'cpsp' Capital Spacing lookup 0 subtable" dx=36 dy=0 dh=72 dv=0
EndChar

StartChar: uni042F
Encoding: 1071 1071 233
Width: 1271
GlyphClass: 2
Flags: W
LayerCount: 2
Fore
SplineSet
866 0 m 1,0,-1
 866 544 l 1,1,-1
 584 544 l 1,2,-1
 303 0 l 1,3,-1
 32 0 l 1,4,-1
 357 619 l 1,5,6
 103 739 103 739 103 1012 c 0,7,8
 103 1221 103 1221 240.5 1337.5 c 128,-1,9
 378 1454 378 1454 624 1456 c 2,10,-1
 1119 1456 l 1,11,-1
 1119 0 l 1,12,-1
 866 0 l 1,0,-1
355 1001 m 0,13,14
 355 878 355 878 424 809 c 128,-1,15
 493 740 493 740 631 740 c 2,16,-1
 866 740 l 1,17,-1
 866 1252 l 1,18,-1
 631 1252 l 2,19,20
 491 1252 491 1252 423 1185 c 128,-1,21
 355 1118 355 1118 355 1001 c 0,13,14
EndSplineSet
Substitution2: "'c2sc' Capitals to Small Capitals lookup 0 subtable" uni042F.c2sc
Position2: "'cpsp' Capital Spacing lookup 0 subtable" dx=36 dy=0 dh=72 dv=0
EndChar

StartChar: uni0431
Encoding: 1073 1073 234
Width: 1149
GlyphClass: 1
Flags: W
LayerCount: 2
Fore
SplineSet
634 1022 m 0,0,1
 838 1022 838 1022 961 885.5 c 128,-1,2
 1084 749 1084 749 1084 515 c 2,3,-1
 1084 503 l 2,4,5
 1084 269 1084 269 950.5 124 c 128,-1,6
 817 -21 817 -21 588 -21 c 0,7,8
 365 -21 365 -21 228 127 c 128,-1,9
 91 275 91 275 91 531 c 2,10,-1
 91 601 l 2,11,12
 91 951 91 951 215 1155 c 128,-1,13
 339 1359 339 1359 585 1410 c 0,14,15
 723 1438 723 1438 763.5 1469.5 c 128,-1,16
 804 1501 804 1501 804 1555 c 1,17,-1
 1000 1555 l 1,18,19
 1000 1454 1000 1454 967 1391 c 128,-1,20
 934 1328 934 1328 866 1288.5 c 128,-1,21
 798 1249 798 1249 632 1214 c 0,22,23
 480 1182 480 1182 400.5 1100 c 128,-1,24
 321 1018 321 1018 294 873 c 1,25,26
 439 1022 439 1022 634 1022 c 0,0,1
586 827 m 0,27,28
 468 827 468 827 401 747.5 c 128,-1,29
 334 668 334 668 334 503 c 0,30,31
 334 347 334 347 400 260 c 128,-1,32
 466 173 466 173 588 173 c 0,33,34
 709 173 709 173 775.5 260.5 c 128,-1,35
 842 348 842 348 842 524 c 0,36,37
 842 664 842 664 775.5 745.5 c 128,-1,38
 709 827 709 827 586 827 c 0,27,28
EndSplineSet
Substitution2: "'smcp' Lowercase to Small Capitals lookup 1 subtable" uni0411.c2sc
EndChar

StartChar: uni0432
Encoding: 1074 1074 235
Width: 1167
GlyphClass: 2
Flags: W
LayerCount: 2
Fore
SplineSet
143 0 m 1,0,-1
 143 1082 l 1,1,-1
 582 1082 l 2,2,3
 804 1082 804 1082 920 1004.5 c 128,-1,4
 1036 927 1036 927 1036 782 c 0,5,6
 1036 707 1036 707 989.5 647.5 c 128,-1,7
 943 588 943 588 852 556 c 1,8,9
 958 534 958 534 1020 467 c 128,-1,10
 1082 400 1082 400 1082 309 c 0,11,12
 1082 158 1082 158 970.5 79 c 128,-1,13
 859 0 859 0 650 0 c 2,14,-1
 143 0 l 1,0,-1
386 461 m 1,15,-1
 386 192 l 1,16,-1
 652 192 l 2,17,18
 839 192 839 192 839 326 c 0,19,20
 839 461 839 461 649 461 c 2,21,-1
 386 461 l 1,15,-1
386 635 m 1,22,-1
 586 635 l 2,23,24
 793 635 793 635 793 757 c 0,25,26
 793 885 793 885 597 889 c 1,27,-1
 386 889 l 1,28,-1
 386 635 l 1,22,-1
EndSplineSet
Substitution2: "'smcp' Lowercase to Small Capitals lookup 1 subtable" uni0412.c2sc
EndChar

StartChar: uni0433
Encoding: 1075 1075 236
Width: 858
GlyphClass: 2
Flags: W
LayerCount: 2
Fore
SplineSet
845 886 m 1,0,-1
 375 886 l 1,1,-1
 375 0 l 1,2,-1
 133 0 l 1,3,-1
 133 1082 l 1,4,-1
 845 1082 l 1,5,-1
 845 886 l 1,0,-1
EndSplineSet
Substitution2: "'smcp' Lowercase to Small Capitals lookup 1 subtable" uni0413.c2sc
EndChar

StartChar: uni0434
Encoding: 1076 1076 237
Width: 1270
GlyphClass: 2
Flags: W
LayerCount: 2
Fore
SplineSet
129 194 m 1,0,1
 230 307 230 307 264.5 408.5 c 128,-1,2
 299 510 299 510 306 668 c 2,3,-1
 320 1082 l 1,4,-1
 1071 1082 l 1,5,-1
 1071 194 l 1,6,-1
 1221 194 l 1,7,-1
 1221 -322 l 1,8,-1
 979 -322 l 1,9,-1
 979 0 l 1,10,-1
 285 0 l 1,11,-1
 285 -322 l 1,12,-1
 39 -322 l 1,13,-1
 40 194 l 1,14,-1
 129 194 l 1,0,1
414 194 m 1,15,-1
 829 194 l 1,16,-1
 829 873 l 1,17,-1
 556 873 l 1,18,-1
 549 666 l 2,19,20
 535 368 535 368 414 194 c 1,15,-1
EndSplineSet
Substitution2: "'smcp' Lowercase to Small Capitals lookup 1 subtable" uni0414.c2sc
EndChar

StartChar: uni0436
Encoding: 1078 1078 238
Width: 1654
GlyphClass: 2
Flags: W
LayerCount: 2
Fore
SplineSet
1077 435 m 1,0,-1
 948 435 l 1,1,-1
 948 0 l 1,2,-1
 705 0 l 1,3,-1
 705 435 l 1,4,-1
 577 435 l 1,5,-1
 328 0 l 1,6,-1
 30 0 l 1,7,-1
 389 563 l 1,8,-1
 49 1082 l 1,9,-1
 346 1082 l 1,10,-1
 591 657 l 1,11,-1
 705 657 l 1,12,-1
 705 1082 l 1,13,-1
 948 1082 l 1,14,-1
 948 657 l 1,15,-1
 1063 657 l 1,16,-1
 1309 1082 l 1,17,-1
 1606 1082 l 1,18,-1
 1267 566 l 1,19,-1
 1628 0 l 1,20,-1
 1326 0 l 1,21,-1
 1077 435 l 1,0,-1
EndSplineSet
Substitution2: "'smcp' Lowercase to Small Capitals lookup 1 subtable" uni0416.c2sc
EndChar

StartChar: uni0437
Encoding: 1079 1079 239
Width: 1046
GlyphClass: 2
Flags: W
LayerCount: 2
Fore
SplineSet
944 786 m 0,0,1
 944 714 944 714 900.5 653.5 c 128,-1,2
 857 593 857 593 778 557 c 1,3,4
 964 492 964 492 964 306 c 0,5,6
 964 157 964 157 843 68.5 c 128,-1,7
 722 -20 722 -20 519 -20 c 0,8,9
 395 -20 395 -20 293 21.5 c 128,-1,10
 191 63 191 63 134 139.5 c 128,-1,11
 77 216 77 216 77 321 c 1,12,-1
 319 321 l 1,13,14
 319 255 319 255 378 210.5 c 128,-1,15
 437 166 437 166 527 166 c 0,16,17
 616 166 616 166 668.5 207.5 c 128,-1,18
 721 249 721 249 721 316 c 0,19,20
 721 395 721 395 675 430 c 128,-1,21
 629 465 629 465 533 465 c 2,22,-1
 359 465 l 1,23,-1
 359 640 l 1,24,-1
 539 640 l 2,25,26
 702 642 702 642 702 774 c 0,27,28
 702 840 702 840 655 877 c 128,-1,29
 608 914 608 914 526 914 c 0,30,31
 446 914 446 914 391 874.5 c 128,-1,32
 336 835 336 835 336 775 c 1,33,-1
 94 775 l 1,34,35
 94 918 94 918 214 1009.5 c 128,-1,36
 334 1101 334 1101 519 1101 c 0,37,38
 720 1101 720 1101 832 1019 c 128,-1,39
 944 937 944 937 944 786 c 0,0,1
EndSplineSet
Substitution2: "'smcp' Lowercase to Small Capitals lookup 1 subtable" uni0417.c2sc
EndChar

StartChar: uni0438
Encoding: 1080 1080 240
Width: 1176
GlyphClass: 2
Flags: W
LayerCount: 2
Fore
SplineSet
800 1082 m 1,0,-1
 1042 1082 l 1,1,-1
 1042 0 l 1,2,-1
 800 0 l 1,3,-1
 800 722 l 1,4,-1
 376 0 l 1,5,-1
 134 0 l 1,6,-1
 134 1082 l 1,7,-1
 376 1082 l 1,8,-1
 376 360 l 1,9,-1
 800 1082 l 1,0,-1
EndSplineSet
Substitution2: "'smcp' Lowercase to Small Capitals lookup 1 subtable" uni0418.c2sc
EndChar

StartChar: uni043A
Encoding: 1082 1082 241
Width: 1134
GlyphClass: 2
Flags: W
LayerCount: 2
Fore
SplineSet
509 428 m 1,0,-1
 386 428 l 1,1,-1
 386 0 l 1,2,-1
 143 0 l 1,3,-1
 143 1082 l 1,4,-1
 386 1082 l 1,5,-1
 386 650 l 1,6,-1
 493 650 l 1,7,-1
 792 1082 l 1,8,-1
 1092 1082 l 1,9,-1
 701 564 l 1,10,-1
 1125 0 l 1,11,-1
 809 0 l 1,12,-1
 509 428 l 1,0,-1
EndSplineSet
Substitution2: "'smcp' Lowercase to Small Capitals lookup 1 subtable" uni041A.c2sc
EndChar

StartChar: uni043B
Encoding: 1083 1083 242
Width: 1178
GlyphClass: 2
Flags: W
LayerCount: 2
Fore
SplineSet
1044 1082 m 1,0,-1
 1044 0 l 1,1,-1
 801 0 l 1,2,-1
 801 886 l 1,3,-1
 495 886 l 1,4,-1
 475 509 l 1,5,6
 456 237 456 237 370.5 118.5 c 128,-1,7
 285 0 285 0 109 0 c 2,8,-1
 34 0 l 1,9,-1
 33 202 l 1,10,-1
 83 207 l 2,11,12
 163 218 163 218 199.5 304.5 c 128,-1,13
 236 391 236 391 246 620 c 2,14,-1
 266 1082 l 1,15,-1
 1044 1082 l 1,0,-1
EndSplineSet
Substitution2: "'smcp' Lowercase to Small Capitals lookup 1 subtable" uni041B.c2sc
EndChar

StartChar: uni043C
Encoding: 1084 1084 243
Width: 1539
GlyphClass: 2
Flags: W
LayerCount: 2
Fore
SplineSet
767 299 m 1,0,-1
 1087 1082 l 1,1,-1
 1391 1082 l 1,2,-1
 1391 0 l 1,3,-1
 1148 0 l 1,4,-1
 1148 716 l 1,5,-1
 850 0 l 1,6,-1
 685 0 l 1,7,-1
 386 720 l 1,8,-1
 386 0 l 1,9,-1
 143 0 l 1,10,-1
 143 1082 l 1,11,-1
 449 1082 l 1,12,-1
 767 299 l 1,0,-1
EndSplineSet
Substitution2: "'smcp' Lowercase to Small Capitals lookup 1 subtable" uni041C.c2sc
EndChar

StartChar: uni043D
Encoding: 1085 1085 244
Width: 1175
GlyphClass: 2
Flags: W
LayerCount: 2
Fore
SplineSet
1041 0 m 1,0,-1
 798 0 l 1,1,-1
 798 437 l 1,2,-1
 377 437 l 1,3,-1
 377 0 l 1,4,-1
 134 0 l 1,5,-1
 134 1082 l 1,6,-1
 377 1082 l 1,7,-1
 377 631 l 1,8,-1
 798 631 l 1,9,-1
 798 1082 l 1,10,-1
 1041 1082 l 1,11,-1
 1041 0 l 1,0,-1
EndSplineSet
Substitution2: "'smcp' Lowercase to Small Capitals lookup 1 subtable" uni041D.c2sc
EndChar

StartChar: uni043F
Encoding: 1087 1087 245
Width: 1176
GlyphClass: 2
Flags: W
LayerCount: 2
Fore
SplineSet
1042 0 m 1,0,-1
 799 0 l 1,1,-1
 799 886 l 1,2,-1
 377 886 l 1,3,-1
 377 0 l 1,4,-1
 134 0 l 1,5,-1
 134 1082 l 1,6,-1
 1042 1082 l 1,7,-1
 1042 0 l 1,0,-1
EndSplineSet
Substitution2: "'smcp' Lowercase to Small Capitals lookup 1 subtable" uni041F.c2sc
EndChar

StartChar: uni0442
Encoding: 1090 1090 246
Width: 1013
GlyphClass: 2
Flags: W
LayerCount: 2
Fore
SplineSet
976 889 m 1,0,-1
 625 889 l 1,1,-1
 625 0 l 1,2,-1
 382 0 l 1,3,-1
 382 889 l 1,4,-1
 35 889 l 1,5,-1
 35 1082 l 1,6,-1
 976 1082 l 1,7,-1
 976 889 l 1,0,-1
EndSplineSet
Substitution2: "'smcp' Lowercase to Small Capitals lookup 1 subtable" uni0422.c2sc
EndChar

StartChar: uni0444
Encoding: 1092 1092 247
Width: 1491
GlyphClass: 2
Flags: W
LayerCount: 2
Fore
SplineSet
84 526 m 1,0,1
 84 791 84 791 188.5 946.5 c 128,-1,2
 293 1102 293 1102 480 1102 c 0,3,4
 556 1102 556 1102 618 1074 c 1,5,-1
 618 1536 l 1,6,-1
 860 1536 l 1,7,-1
 860 1070 l 1,8,9
 924 1102 924 1102 1010 1102 c 0,10,11
 1196 1102 1196 1102 1301.5 947.5 c 128,-1,12
 1407 793 1407 793 1407 505 c 0,13,14
 1407 262 1407 262 1301 121 c 128,-1,15
 1195 -20 1195 -20 1012 -20 c 0,16,17
 929 -20 929 -20 860 10 c 1,18,-1
 860 -416 l 1,19,-1
 618 -416 l 1,20,-1
 618 6 l 1,21,22
 557 -20 557 -20 478 -20 c 0,23,24
 303 -20 303 -20 198.5 109.5 c 128,-1,25
 94 239 94 239 85 466 c 1,26,-1
 84 526 l 1,0,1
1164 526 m 0,27,28
 1164 708 1164 708 1106 807.5 c 128,-1,29
 1048 907 1048 907 942 907 c 0,30,31
 897 907 897 907 860 894 c 1,32,-1
 860 184 l 1,33,34
 893 174 893 174 944 174 c 0,35,36
 1164 174 1164 174 1164 526 c 0,27,28
326 505 m 0,37,38
 326 343 326 343 380 258.5 c 128,-1,39
 434 174 434 174 540 174 c 0,40,41
 585 174 585 174 618 184 c 1,42,-1
 618 897 l 1,43,44
 584 907 584 907 542 907 c 0,45,46
 438 907 438 907 382 810.5 c 128,-1,47
 326 714 326 714 326 505 c 0,37,38
EndSplineSet
Substitution2: "'smcp' Lowercase to Small Capitals lookup 1 subtable" uni0424.c2sc
EndChar

StartChar: uni0446
Encoding: 1094 1094 248
Width: 1235
GlyphClass: 2
Flags: W
LayerCount: 2
Fore
SplineSet
134 1082 m 1,0,-1
 377 1082 l 1,1,-1
 377 194 l 1,2,-1
 799 194 l 1,3,-1
 799 1082 l 1,4,-1
 1042 1082 l 1,5,-1
 1042 194 l 1,6,-1
 1189 194 l 1,7,-1
 1169 -321 l 1,8,-1
 948 -321 l 1,9,-1
 948 0 l 1,10,-1
 134 0 l 1,11,-1
 134 1082 l 1,0,-1
EndSplineSet
Substitution2: "'smcp' Lowercase to Small Capitals lookup 1 subtable" uni0426.c2sc
EndChar

StartChar: uni0447
Encoding: 1095 1095 249
Width: 1126
GlyphClass: 2
Flags: W
LayerCount: 2
Fore
SplineSet
992 0 m 1,0,-1
 749 0 l 1,1,-1
 749 361 l 1,2,3
 655 339 655 339 551 339 c 0,4,5
 329 339 329 339 212 445.5 c 128,-1,6
 95 552 95 552 95 751 c 2,7,-1
 95 1083 l 1,8,-1
 338 1083 l 1,9,-1
 338 751 l 2,10,11
 338 633 338 633 390.5 584 c 128,-1,12
 443 535 443 535 551 535 c 0,13,14
 649 535 649 535 749 558 c 1,15,-1
 749 1082 l 1,16,-1
 992 1082 l 1,17,-1
 992 0 l 1,0,-1
EndSplineSet
Substitution2: "'smcp' Lowercase to Small Capitals lookup 1 subtable" uni0427.c2sc
EndChar

StartChar: uni0448
Encoding: 1096 1096 250
Width: 1678
GlyphClass: 2
Flags: W
LayerCount: 2
Fore
SplineSet
377 1082 m 1,0,-1
 377 194 l 1,1,-1
 715 194 l 1,2,-1
 715 1082 l 1,3,-1
 958 1082 l 1,4,-1
 958 194 l 1,5,-1
 1297 194 l 1,6,-1
 1297 1082 l 1,7,-1
 1539 1082 l 1,8,-1
 1539 0 l 1,9,-1
 134 0 l 1,10,-1
 134 1082 l 1,11,-1
 377 1082 l 1,0,-1
EndSplineSet
Substitution2: "'smcp' Lowercase to Small Capitals lookup 1 subtable" uni0428.c2sc
EndChar

StartChar: uni0449
Encoding: 1097 1097 251
Width: 1772
GlyphClass: 2
Flags: W
LayerCount: 2
Fore
SplineSet
369 1082 m 1,0,-1
 369 194 l 1,1,-1
 707 194 l 1,2,-1
 707 1082 l 1,3,-1
 950 1082 l 1,4,-1
 950 194 l 1,5,-1
 1289 194 l 1,6,-1
 1289 1082 l 1,7,-1
 1531 1082 l 1,8,-1
 1531 194 l 1,9,-1
 1716 194 l 1,10,-1
 1696 -321 l 1,11,-1
 1475 -321 l 1,12,-1
 1475 0 l 1,13,-1
 126 0 l 1,14,-1
 126 1082 l 1,15,-1
 369 1082 l 1,0,-1
EndSplineSet
Substitution2: "'smcp' Lowercase to Small Capitals lookup 1 subtable" uni0429.c2sc
EndChar

StartChar: uni044A
Encoding: 1098 1098 252
Width: 1303
GlyphClass: 1
Flags: W
LayerCount: 2
Fore
SplineSet
586 738 m 1,0,-1
 824 738 l 2,1,2
 957 738 957 738 1056 692 c 128,-1,3
 1155 646 1155 646 1206.5 563 c 128,-1,4
 1258 480 1258 480 1258 370 c 0,5,6
 1258 203 1258 203 1140 102 c 128,-1,7
 1022 1 1022 1 826 0 c 2,8,-1
 343 0 l 1,9,-1
 343 886 l 1,10,-1
 31 886 l 1,11,-1
 31 1082 l 1,12,-1
 586 1082 l 1,13,-1
 586 738 l 1,0,-1
586 543 m 1,14,-1
 586 194 l 1,15,-1
 823 194 l 2,16,17
 912 194 912 194 963.5 238.5 c 128,-1,18
 1015 283 1015 283 1015 365 c 128,-1,19
 1015 447 1015 447 964.5 494.5 c 128,-1,20
 914 542 914 542 828 543 c 2,21,-1
 586 543 l 1,14,-1
EndSplineSet
Substitution2: "'smcp' Lowercase to Small Capitals lookup 1 subtable" uni042A.c2sc
EndChar

StartChar: uni044B
Encoding: 1099 1099 253
Width: 1647
GlyphClass: 2
Flags: W
LayerCount: 2
Fore
SplineSet
386 738 m 1,0,-1
 624 738 l 2,1,2
 757 738 757 738 856 692 c 128,-1,3
 955 646 955 646 1006.5 563 c 128,-1,4
 1058 480 1058 480 1058 370 c 0,5,6
 1058 203 1058 203 940 102 c 128,-1,7
 822 1 822 1 626 0 c 2,8,-1
 143 0 l 1,9,-1
 143 1082 l 1,10,-1
 386 1082 l 1,11,-1
 386 738 l 1,0,-1
1481 0 m 1,12,-1
 1238 0 l 1,13,-1
 1238 1082 l 1,14,-1
 1481 1082 l 1,15,-1
 1481 0 l 1,12,-1
386 543 m 1,16,-1
 386 194 l 1,17,-1
 623 194 l 2,18,19
 712 194 712 194 763.5 238.5 c 128,-1,20
 815 283 815 283 815 365 c 128,-1,21
 815 447 815 447 764.5 494.5 c 128,-1,22
 714 542 714 542 628 543 c 2,23,-1
 386 543 l 1,16,-1
EndSplineSet
Substitution2: "'smcp' Lowercase to Small Capitals lookup 1 subtable" uni042B.c2sc
EndChar

StartChar: uni044C
Encoding: 1100 1100 254
Width: 1128
GlyphClass: 1
Flags: W
LayerCount: 2
Fore
SplineSet
386 738 m 1,0,-1
 624 738 l 2,1,2
 757 738 757 738 856 692 c 128,-1,3
 955 646 955 646 1006.5 563 c 128,-1,4
 1058 480 1058 480 1058 370 c 0,5,6
 1058 203 1058 203 940 102 c 128,-1,7
 822 1 822 1 626 0 c 2,8,-1
 143 0 l 1,9,-1
 143 1082 l 1,10,-1
 386 1082 l 1,11,-1
 386 738 l 1,0,-1
386 543 m 1,12,-1
 386 194 l 1,13,-1
 623 194 l 2,14,15
 712 194 712 194 763.5 238.5 c 128,-1,16
 815 283 815 283 815 365 c 128,-1,17
 815 447 815 447 764.5 494.5 c 128,-1,18
 714 542 714 542 628 543 c 2,19,-1
 386 543 l 1,12,-1
EndSplineSet
Substitution2: "'smcp' Lowercase to Small Capitals lookup 1 subtable" uni042C.c2sc
EndChar

StartChar: uni044D
Encoding: 1101 1101 255
Width: 1084
GlyphClass: 2
Flags: W
LayerCount: 2
Fore
SplineSet
513 907 m 0,0,1
 428 907 428 907 369 854.5 c 128,-1,2
 310 802 310 802 310 723 c 1,3,-1
 81 723 l 1,4,5
 81 823 81 823 139 910.5 c 128,-1,6
 197 998 197 998 298 1050 c 128,-1,7
 399 1102 399 1102 513 1102 c 0,8,9
 733 1102 733 1102 866.5 951 c 128,-1,10
 1000 800 1000 800 1000 548 c 2,11,-1
 1000 523 l 2,12,13
 1000 368 1000 368 939.5 242 c 128,-1,14
 879 116 879 116 769 48 c 128,-1,15
 659 -20 659 -20 514 -20 c 0,16,17
 391 -20 391 -20 291 31.5 c 128,-1,18
 191 83 191 83 136 176 c 128,-1,19
 81 269 81 269 81 386 c 1,20,-1
 310 386 l 1,21,22
 310 293 310 293 369 233.5 c 128,-1,23
 428 174 428 174 514 174 c 0,24,25
 616 174 616 174 679 250.5 c 128,-1,26
 742 327 742 327 754 464 c 1,27,-1
 414 464 l 1,28,-1
 414 632 l 1,29,-1
 753 632 l 1,30,31
 739 764 739 764 676 835.5 c 128,-1,32
 613 907 613 907 513 907 c 0,0,1
EndSplineSet
Substitution2: "'smcp' Lowercase to Small Capitals lookup 1 subtable" uni042D.c2sc
EndChar

StartChar: uni044E
Encoding: 1102 1102 256
Width: 1668
GlyphClass: 2
Flags: W
LayerCount: 2
Fore
SplineSet
388 647 m 1,0,-1
 592 647 l 1,1,2
 619 854 619 854 752 978 c 128,-1,3
 885 1102 885 1102 1088 1102 c 0,4,5
 1307 1102 1307 1102 1443.5 961 c 128,-1,6
 1580 820 1580 820 1591 587 c 1,7,-1
 1592 530 l 2,8,9
 1592 370 1592 370 1530.5 244 c 128,-1,10
 1469 118 1469 118 1354.5 49 c 128,-1,11
 1240 -20 1240 -20 1090 -20 c 0,12,13
 880 -20 880 -20 745.5 110 c 128,-1,14
 611 240 611 240 590 452 c 1,15,-1
 388 452 l 1,16,-1
 388 0 l 1,17,-1
 145 0 l 1,18,-1
 145 1082 l 1,19,-1
 388 1082 l 1,20,-1
 388 647 l 1,0,-1
829 530 m 0,21,22
 829 363 829 363 898 268.5 c 128,-1,23
 967 174 967 174 1090 174 c 128,-1,24
 1213 174 1213 174 1281 270 c 128,-1,25
 1349 366 1349 366 1349 551 c 0,26,27
 1349 718 1349 718 1278.5 812.5 c 128,-1,28
 1208 907 1208 907 1088 907 c 0,29,30
 969 907 969 907 899 812.5 c 128,-1,31
 829 718 829 718 829 530 c 0,21,22
EndSplineSet
Substitution2: "'smcp' Lowercase to Small Capitals lookup 1 subtable" uni042E.c2sc
EndChar

StartChar: uni044F
Encoding: 1103 1103 257
Width: 1136
GlyphClass: 2
Flags: W
LayerCount: 2
Fore
SplineSet
991 1082 m 1,0,-1
 991 0 l 1,1,-1
 749 0 l 1,2,-1
 749 397 l 1,3,-1
 522 397 l 1,4,-1
 291 0 l 1,5,-1
 39 0 l 1,6,-1
 294 437 l 1,7,8
 194 479 194 479 140.5 557 c 128,-1,9
 87 635 87 635 87 736 c 0,10,11
 87 887 87 887 203.5 983.5 c 128,-1,12
 320 1080 320 1080 518 1082 c 2,13,-1
 991 1082 l 1,0,-1
330 730 m 0,14,15
 330 662 330 662 380.5 619.5 c 128,-1,16
 431 577 431 577 510 577 c 2,17,-1
 749 577 l 1,18,-1
 749 889 l 1,19,-1
 525 889 l 2,20,21
 436 889 436 889 383 844 c 128,-1,22
 330 799 330 799 330 730 c 0,14,15
EndSplineSet
Substitution2: "'smcp' Lowercase to Small Capitals lookup 1 subtable" uni042F.c2sc
EndChar

StartChar: uni0452
Encoding: 1106 1106 258
Width: 1137
GlyphClass: 1
Flags: W
LayerCount: 2
Fore
SplineSet
631 1197 m 1,0,-1
 364 1197 l 1,1,-1
 364 964 l 1,2,3
 483 1102 483 1102 665 1102 c 0,4,5
 1011 1102 1011 1102 1016 707 c 1,6,-1
 1016 -63 l 2,7,8
 1016 -241 1016 -241 923.5 -339 c 128,-1,9
 831 -437 831 -437 665 -437 c 0,10,11
 595 -437 595 -437 537 -420 c 1,12,-1
 552 -229 l 1,13,14
 591 -242 591 -242 650 -242 c 0,15,16
 773 -242 773 -242 773 -51 c 2,17,-1
 773 698 l 2,18,19
 773 810 773 810 724.5 856.5 c 128,-1,20
 676 903 676 903 582 903 c 0,21,22
 436 903 436 903 364 773 c 1,23,-1
 364 0 l 1,24,-1
 121 0 l 1,25,-1
 121 1197 l 1,26,-1
 -37 1197 l 1,27,-1
 -37 1368 l 1,28,-1
 121 1368 l 1,29,-1
 121 1536 l 1,30,-1
 364 1536 l 1,31,-1
 364 1368 l 1,32,-1
 631 1368 l 1,33,-1
 631 1197 l 1,0,-1
EndSplineSet
Substitution2: "'smcp' Lowercase to Small Capitals lookup 1 subtable" uni0402.c2sc
EndChar

StartChar: uni0454
Encoding: 1108 1108 259
Width: 1084
GlyphClass: 2
Flags: W
LayerCount: 2
Fore
SplineSet
574 174 m 0,0,1
 663 174 663 174 723 226 c 128,-1,2
 783 278 783 278 789 358 c 1,3,-1
 1017 358 l 1,4,5
 1014 256 1014 256 954 168 c 128,-1,6
 894 80 894 80 793 30 c 128,-1,7
 692 -20 692 -20 576 -20 c 0,8,9
 348 -20 348 -20 216 127.5 c 128,-1,10
 84 275 84 275 84 533 c 2,11,-1
 84 558 l 2,12,13
 84 805 84 805 216 953.5 c 128,-1,14
 348 1102 348 1102 576 1102 c 0,15,16
 768 1102 768 1102 890.5 989 c 128,-1,17
 1013 876 1013 876 1017 694 c 1,18,-1
 789 694 l 1,19,20
 782 790 782 790 723 848.5 c 128,-1,21
 664 907 664 907 573 907 c 0,22,23
 463 907 463 907 400.5 833 c 128,-1,24
 338 759 338 759 328 618 c 1,25,-1
 675 618 l 1,26,-1
 675 450 l 1,27,-1
 329 450 l 1,28,29
 354 174 354 174 574 174 c 0,0,1
EndSplineSet
Substitution2: "'smcp' Lowercase to Small Capitals lookup 1 subtable" uni0404.c2sc
EndChar

StartChar: uni0459
Encoding: 1113 1113 260
Width: 1745
GlyphClass: 1
Flags: W
LayerCount: 2
Fore
SplineSet
1018 1082 m 1,0,-1
 1018 705 l 1,1,-1
 1266 705 l 2,2,3
 1461 702 1461 702 1575.5 608 c 128,-1,4
 1690 514 1690 514 1690 355 c 0,5,6
 1690 195 1690 195 1573.5 98.5 c 128,-1,7
 1457 2 1457 2 1262 0 c 2,8,-1
 775 0 l 1,9,-1
 775 886 l 1,10,-1
 493 886 l 1,11,-1
 472 509 l 2,12,13
 453 239 453 239 369 120 c 128,-1,14
 285 1 285 1 110 0 c 2,15,-1
 32 0 l 1,16,-1
 30 202 l 1,17,-1
 80 207 l 2,18,19
 162 218 162 218 197.5 305.5 c 128,-1,20
 233 393 233 393 243 620 c 2,21,-1
 263 1082 l 1,22,-1
 1018 1082 l 1,0,-1
1018 511 m 1,23,-1
 1018 192 l 1,24,-1
 1255 192 l 2,25,26
 1343 192 1343 192 1395 236 c 128,-1,27
 1447 280 1447 280 1447 357 c 0,28,29
 1447 429 1447 429 1397 469.5 c 128,-1,30
 1347 510 1347 510 1261 511 c 2,31,-1
 1018 511 l 1,23,-1
EndSplineSet
Substitution2: "'smcp' Lowercase to Small Capitals lookup 1 subtable" uni0409.c2sc
EndChar

StartChar: uni045A
Encoding: 1114 1114 261
Width: 1764
GlyphClass: 1
Flags: W
LayerCount: 2
Fore
SplineSet
377 671 m 1,0,-1
 798 671 l 1,1,-1
 798 1082 l 1,2,-1
 1041 1082 l 1,3,-1
 1041 705 l 1,4,-1
 1289 705 l 2,5,6
 1484 702 1484 702 1598.5 608 c 128,-1,7
 1713 514 1713 514 1713 355 c 0,8,9
 1713 195 1713 195 1596.5 98.5 c 128,-1,10
 1480 2 1480 2 1285 0 c 2,11,-1
 798 0 l 1,12,-1
 798 477 l 1,13,-1
 377 477 l 1,14,-1
 377 0 l 1,15,-1
 134 0 l 1,16,-1
 134 1082 l 1,17,-1
 377 1082 l 1,18,-1
 377 671 l 1,0,-1
1041 511 m 1,19,-1
 1041 192 l 1,20,-1
 1278 192 l 2,21,22
 1368 192 1368 192 1419 237 c 128,-1,23
 1470 282 1470 282 1470 357 c 0,24,25
 1470 427 1470 427 1420 469 c 128,-1,26
 1370 511 1370 511 1279 511 c 2,27,-1
 1041 511 l 1,19,-1
EndSplineSet
Substitution2: "'smcp' Lowercase to Small Capitals lookup 1 subtable" uni040A.c2sc
EndChar

StartChar: uni045B
Encoding: 1115 1115 262
Width: 1161
GlyphClass: 1
Flags: W
LayerCount: 2
Fore
SplineSet
651 1205 m 1,0,-1
 364 1205 l 1,1,-1
 364 964 l 1,2,3
 483 1102 483 1102 665 1102 c 0,4,5
 1011 1102 1011 1102 1016 707 c 1,6,-1
 1016 0 l 1,7,-1
 773 0 l 1,8,-1
 773 698 l 2,9,10
 773 810 773 810 724.5 856.5 c 128,-1,11
 676 903 676 903 582 903 c 0,12,13
 436 903 436 903 364 773 c 1,14,-1
 364 0 l 1,15,-1
 121 0 l 1,16,-1
 121 1205 l 1,17,-1
 -18 1205 l 1,18,-1
 -18 1375 l 1,19,-1
 121 1375 l 1,20,-1
 121 1536 l 1,21,-1
 364 1536 l 1,22,-1
 364 1375 l 1,23,-1
 651 1375 l 1,24,-1
 651 1205 l 1,0,-1
EndSplineSet
Substitution2: "'smcp' Lowercase to Small Capitals lookup 1 subtable" uni040B.c2sc
EndChar

StartChar: uni045F
Encoding: 1119 1119 263
Width: 1176
GlyphClass: 1
Flags: W
LayerCount: 2
Fore
SplineSet
377 1082 m 1,0,-1
 377 194 l 1,1,-1
 799 194 l 1,2,-1
 799 1082 l 1,3,-1
 1042 1082 l 1,4,-1
 1042 0 l 1,5,-1
 711 0 l 1,6,-1
 711 -358 l 1,7,-1
 468 -358 l 1,8,-1
 468 0 l 1,9,-1
 134 0 l 1,10,-1
 134 1082 l 1,11,-1
 377 1082 l 1,0,-1
EndSplineSet
Substitution2: "'smcp' Lowercase to Small Capitals lookup 1 subtable" uni040F.c2sc
EndChar

StartChar: uni0460
Encoding: 1120 1120 264
Width: 1865
GlyphClass: 2
Flags: W
LayerCount: 2
Fore
SplineSet
1729 1456 m 1,0,-1
 1729 431 l 2,1,2
 1729 217 1729 217 1604.5 98 c 128,-1,3
 1480 -21 1480 -21 1270 -21 c 0,4,5
 1041 -21 1041 -21 932 144 c 1,6,7
 819 -21 819 -21 586 -21 c 0,8,9
 379 -21 379 -21 257.5 98.5 c 128,-1,10
 136 218 136 218 136 431 c 2,11,-1
 136 1456 l 1,12,-1
 389 1456 l 1,13,-1
 389 428 l 2,14,15
 389 311 389 311 440.5 246 c 128,-1,16
 492 181 492 181 586 181 c 0,17,18
 691 181 691 181 748 245.5 c 128,-1,19
 805 310 805 310 805 429 c 2,20,-1
 805 1456 l 1,21,-1
 1062 1456 l 1,22,-1
 1062 428 l 2,23,24
 1062 312 1062 312 1116.5 246.5 c 128,-1,25
 1171 181 1171 181 1270 181 c 0,26,27
 1367 181 1367 181 1422 244.5 c 128,-1,28
 1477 308 1477 308 1477 429 c 2,29,-1
 1477 1456 l 1,30,-1
 1729 1456 l 1,0,-1
EndSplineSet
EndChar

